<?xml version="1.0" encoding="UTF-8" standalone="no"?>
<!-- Created with Inkscape (http://www.inkscape.org/) -->

<svg
   width="900px"
   height="900px"
   viewBox="0 0 210 297"
   version="1.1"
   id="svg5"
   inkscape:version="1.1.2 (08b2f3d93c, 2022-04-05)"
   sodipodi:docname="denah pesta.svg"
   xmlns:inkscape="http://www.inkscape.org/namespaces/inkscape"
   xmlns:sodipodi="http://sodipodi.sourceforge.net/DTD/sodipodi-0.dtd"
   xmlns="http://www.w3.org/2000/svg"
   xmlns:svg="http://www.w3.org/2000/svg">
  <sodipodi:namedview
     id="namedview7"
     pagecolor="#ffffff"
     bordercolor="#666666"
     borderopacity="1.0"
     inkscape:pageshadow="2"
     inkscape:pageopacity="0.0"
     inkscape:pagecheckerboard="0"
     inkscape:document-units="mm"
     showgrid="false"
     inkscape:zoom="256"
     inkscape:cx="-8388605.8"
     inkscape:cy="-8388607"
     inkscape:window-width="1316"
     inkscape:window-height="704"
     inkscape:window-x="50"
     inkscape:window-y="27"
     inkscape:window-maximized="1"
     inkscape:current-layer="layer1"
     showguides="true" />
  <defs
     id="defs2">
    <inkscape:path-effect
       effect="spiro"
       id="path-effect25198"
       is_visible="true"
       lpeversion="1" />
    <inkscape:path-effect
       effect="spiro"
       id="path-effect25192"
       is_visible="true"
       lpeversion="1" />
    <inkscape:path-effect
       effect="spiro"
       id="path-effect8815"
       is_visible="true"
       lpeversion="1" />
    <inkscape:path-effect
       effect="spiro"
       id="path-effect8809"
       is_visible="true"
       lpeversion="1" />
    <inkscape:path-effect
       effect="spiro"
       id="path-effect8198"
       is_visible="true"
       lpeversion="1" />
    <inkscape:path-effect
       effect="spiro"
       id="path-effect885"
       is_visible="true"
       lpeversion="1" />
    <inkscape:path-effect
       effect="spiro"
       id="path-effect28340"
       is_visible="true"
       lpeversion="1" />
    <inkscape:path-effect
       effect="spiro"
       id="path-effect19853"
       is_visible="true"
       lpeversion="1" />
    <inkscape:path-effect
       effect="spiro"
       id="path-effect19230"
       is_visible="true"
       lpeversion="1" />
    <inkscape:path-effect
       effect="spiro"
       id="path-effect19144"
       is_visible="true"
       lpeversion="1" />
    <inkscape:path-effect
       effect="spiro"
       id="path-effect14720"
       is_visible="true"
       lpeversion="1" />
  </defs>
  <g
     inkscape:label="Layer 1"
     inkscape:groupmode="layer"
     id="layer1">
    <path
       style="fill:none;stroke:#000000;stroke-width:0.264583px;stroke-linecap:butt;stroke-linejoin:miter;stroke-opacity:1"
       d="m 78.999389,232.28862 c -21.592304,-3.03176 -44.294441,2.78261 -61.771055,15.82052 -17.47661366,13.03791 -29.517767,33.14275 -32.763204,54.70397 -3.245437,21.56123 2.343828,44.31983 15.20803066,61.9247 12.86420234,17.60487 32.84881234,29.84453 54.37683834,33.30333 21.528025,3.45879 44.340862,-1.90482 62.072261,-14.59405 17.7314,-12.68924 30.16837,-32.55166 33.84019,-54.04437 3.67181,-21.49272 -1.46562,-44.35756 -13.97864,-62.21375 -12.51302,-17.85619 -32.2513,-30.48924 -53.706604,-34.37372 -3.954758,-4.61165 -10.124391,-7.18342 -16.193623,-6.91537 -6.069232,0.26804 -11.930531,3.31893 -15.754031,8.03997 -3.8235,4.72105 -5.589472,11.02463 -4.899482,17.06047 0.68999,6.03583 3.803099,11.74687 8.452781,15.65684 4.649682,3.90997 10.791321,5.99645 16.861063,5.74022 6.069742,-0.25623 12.023144,-2.85848 16.284598,-7.18831 4.261454,-4.32983 6.777522,-10.37188 6.683397,-16.4463 -0.09413,-6.07442 -2.858522,-12.1142 -7.571596,-15.94752 C -1.6643438e14,232.64704 -3.3184389e14,-6.8514862e13 -4.4953078e14,-1.8620174e14 c -1.1768688e14,-1.1768689e14 -1.8620174e14,-2.830964e14 -1.8620174e14,-4.4953078e14 0,-1.6643438e14 6.851486e13,-3.3184389e14 1.8620174e14,-4.4953078e14 1.1768689e14,-1.176869e14 2.830964e14,-1.862017e14 2322931542.8125,-1.862017e14 102312617.21875,0 1831809065.1875,6.85148e13 2322931369.1875,1.862017e14 1.1768688e14,1.1768689e14 1.8620174e14,2.830964e14 1.8620174e14,4.4953078e14 0,1.6643438e14 -6.851486e13,3.3184389e14 -1.8620174e14,4.4953078e14 C 3.3184389e14,-6.8514862e13 1.6643438e14,233.0166 87.692459,232.81525 h -0.444828 -2.631649 -4.835771 c -0.402001,0 -0.809038,-0.023 -1.190696,-0.14929 -0.381658,-0.12626 -0.723805,-0.34581 -1.079398,-0.53331 -0.177797,-0.0938 -0.362905,-0.17777 -0.559475,-0.21975 -0.196569,-0.042 -0.407871,-0.0393 -0.591617,0.0422 -0.09187,0.0407 -0.175623,0.10107 -0.239477,0.17868 -0.06385,0.0776 -0.107295,0.17276 -0.118894,0.27259 -0.0116,0.0998 0.0095,0.20403 0.06365,0.28872 0.05411,0.0847 0.141717,0.14848 0.240125,0.16888 0.07474,0.0155 0.152056,0.006 0.228118,0 0.43628,-0.0367 0.874379,0.0179 1.309622,0.0653 0.756476,0.0824 1.516958,0.14382 2.262909,0.29418 0.763643,0.15393 1.509266,0.40057 2.282197,0.49764 0.386466,0.0485 0.779664,0.0591 1.164818,0.001 0.385154,-0.058 0.762712,-0.18627 1.08802,-0.40048 0.177308,-0.11675 0.337603,-0.25775 0.514179,-0.37561 0.176577,-0.11785 0.375686,-0.21385 0.587726,-0.22429 0.10602,-0.005 0.213861,0.0116 0.310564,0.0554 0.0967,0.0438 0.181794,0.11516 0.23592,0.20648 0.05413,0.0913 0.07589,0.20267 0.05356,0.30644 -0.02233,0.10377 -0.09021,0.19821 -0.184588,0.24679 -0.08973,0.0462 -0.194731,0.0495 -0.295645,0.0493 -0.379143,-7e-4 -0.758261,-0.0141 -1.137142,0 -0.820041,0.0305 -1.641217,0.0305 -2.461258,0 -1.84453,-0.0686 -3.703841,-0.29079 -5.526598,0 -0.273441,0.0436 -0.545828,0.0988 -0.822228,0.11539 -0.2764,0.0166 -0.560309,-0.007 -0.815122,-0.11539 -0.20264,-0.0862 -0.382385,-0.22513 -0.517928,-0.39867 -0.135542,-0.17354 -0.226716,-0.38125 -0.264083,-0.59826 -0.07474,-0.43402 0.07608,-0.89855 0.384336,-1.21309 0.308255,-0.31454 0.764411,-0.4744 1.202706,-0.43132 0.438295,0.0431 0.851122,0.28517 1.111188,0.64059 0.260066,0.35542 0.365987,0.8175 0.297091,1.25248 -0.0689,0.43499 -0.309393,0.83858 -0.652591,1.11457 -0.343197,0.276 -0.784943,0.42387 -1.225339,0.42088 -0.440397,-0.003 -0.876848,-0.15493 -1.230486,-0.41741 -0.353639,-0.26249 -0.623943,-0.63312 -0.776157,-1.04638 -0.152213,-0.41327 -0.187178,-0.86752 -0.110876,-1.30127 0.0763,-0.43375 0.262622,-0.84638 0.528735,-1.1973 0.266112,-0.35092 0.611001,-0.64028 0.997568,-0.85128 0.773135,-0.42202 1.700596,-0.52161 2.565895,-0.35702 0.865298,0.1646 1.670335,0.58133 2.362812,1.12568 1.385209,1.09109 2.307364,2.64781 3.266838,4.12724 0.959474,1.47942 2.04396,2.96771 3.602997,3.79155 0.779518,0.41191 1.66825,0.64041 2.546901,0.56765 0.878652,-0.0728 1.742663,-0.46247 2.317375,-1.13107 0.287357,-0.33431 0.500026,-0.73408 0.605852,-1.16202 0.105826,-0.42794 0.103562,-0.88356 -0.01721,-1.30753 -0.120774,-0.42396 -0.36101,-0.81475 -0.692142,-1.10575 -0.331132,-0.291 -0.752883,-0.47987 -1.191669,-0.52227 -0.197209,-0.0189 -0.39589,-0.009 -0.593804,0 -1.305755,0.0579 -2.614074,0.0579 -3.919829,0 -1.297475,-0.0575 -2.598363,-0.23566 -3.819993,-0.67654 -1.22163,-0.44087 -2.341778,-1.12157 -3.539056,-1.62484 -0.598638,-0.25163 -1.226389,-0.45233 -1.874038,-0.49964 -0.647649,-0.0473 -1.323071,0.0694 -1.8649,0.42728 -0.270915,0.17896 -0.504654,0.41699 -0.665485,0.69905 -0.16083,0.28206 -0.247054,0.60861 -0.230725,0.93288 0.01633,0.32428 0.137617,0.64491 0.352115,0.88865 0.214498,0.24375 0.522991,0.40643 0.84681,0.43016 0.152478,0.0112 0.305657,0 0.458544,0 h 2.1868 c 0.981537,0 1.974823,0.0564 2.908253,0.35987 0.933429,0.30352 1.774184,0.8307 2.653241,1.26736 0.439529,0.21833 0.898227,0.40948 1.381929,0.49246 0.483702,0.083 1.000294,0.0505 1.435813,-0.17573 0.217759,-0.11312 0.41209,-0.27415 0.553504,-0.47469 0.141414,-0.20054 0.228502,-0.44116 0.235238,-0.68645 0.0067,-0.24529 -0.06911,-0.49423 -0.221889,-0.68625 -0.15278,-0.19202 -0.38339,-0.32337 -0.627904,-0.34401 -0.06678,-0.006 -0.13396,-0.003 -0.200896,0 -0.244196,0.0121 -0.487557,0.0369 -0.730752,0.0621 -0.395817,0.041 -0.792125,0.0827 -1.182926,0.15771 -0.549365,0.10541 -1.084355,0.27575 -1.631894,0.39027 -0.54754,0.11451 -1.118579,0.17222 -1.664521,0.0503 -0.554394,-0.12379 -1.049992,-0.42426 -1.546306,-0.70057 -0.496314,-0.27632 -1.022584,-0.53801 -1.589651,-0.57135 -0.283534,-0.0167 -0.5734,0.0264 -0.830067,0.14801 -0.256667,0.12162 -0.478224,0.32484 -0.599886,0.58149 -0.121663,0.25665 -0.136884,0.56673 -0.01917,0.82521 0.05886,0.12924 0.149638,0.24422 0.263606,0.32894 0.113967,0.0847 0.251063,0.13872 0.392512,0.15135 0.117134,0.0105 0.235066,0 0.352666,0 h 0.70616 c 0.985521,0 1.970583,0.0366 2.954319,0.0958 0.983735,0.0593 1.983594,0.12191 2.944759,-0.0958 0.220623,-0.05 0.438469,-0.11305 0.661502,-0.15085 0.223033,-0.0378 0.449917,-0.046 0.676131,-0.046 2617725355,3456346133 1145914284,3788103957 1656755628,3617823508.75 5.598644e15,-1.86621491e15 1.0394562e16,-6.0256924e15 1.3033789e16,-1.13041458e16 2.639226e15,-5.278452e15 3.089257e15,-1.1610873e16 1.223042e15,-1.7209518e16 -1.866214e15,-5.598645e15 -6.025692e15,-1.0394563e16 -1.1304145e16,-1.3033789e16 -5.278453e15,-2.639227e15 -1.16108736e16,-3.089258e15 -1.72095184e16,-1.223043e15 -5.5986448e15,1.866215e15 -1.03945627e16,6.025692e15 -1.30337896e16,1.1304145e16 -2.639226e15,5.278453e15 -3.089257e15,1.1610874e16 -1.223042e15,1.7209519e16 1.8662146e15,5.5986447e15 6.025692e15,1.03945625e16 1530325580,2070684396 h 0.09539 0.551227 1.262227 c 0.35332,-1.7e-4 0.708156,0.01 1.05579,0.0729 0.347634,0.0631 0.683722,0.17643 1.01979,0.28549 0.336069,0.10905 0.683628,0.21331 1.036158,0.1897 0.176266,-0.0118 0.352229,-0.0576 0.503252,-0.14928 0.151023,-0.0917 0.275805,-0.2315 0.33258,-0.39879 0.08893,-0.23359 0.05783,-0.50745 -0.07359,-0.72005 -0.131418,-0.2126 -0.35828,-0.36148 -0.604125,-0.40655 -0.245845,-0.0451 -0.507158,0.0119 -0.717181,0.1474 -0.210023,0.1355 -0.368136,0.34682 -0.447969,0.58367 -0.07983,0.23684 -0.08248,0.49761 -0.01677,0.73875 0.06571,0.24115 0.198477,0.4624 0.373478,0.64085 0.350003,0.3569 0.858001,0.53269 1.357777,0.54303 0.499775,0.0103 0.992728,-0.13277 1.447613,-0.34004 0.454885,-0.20728 0.877399,-0.47799 1.303686,-0.73907 0.426286,-0.26108 0.861104,-0.51489 1.331491,-0.68406 0.470386,-0.16917 0.982165,-0.25079 1.47349,-0.15869 0.115583,-0.25948 0.218949,-0.52676 0.376212,-0.76332 0.157263,-0.23655 0.375997,-0.44245 0.645774,-0.53138 0.134889,-0.0445 0.280265,-0.0588 0.420474,-0.0361 0.140209,0.0227 0.274629,0.0827 0.383038,0.1744 0.108409,0.0918 0.190004,0.21498 0.231349,0.35086 0.04134,0.13588 0.04221,0.28351 0.0043,0.4204 h -0.194911 -1.122931 c -0.552447,0 -1.106874,-0.0554 -1.656541,0 -0.534179,0.0538 -1.043234,0.24474 -1.560526,0.38844 -0.517292,0.1437 -1.068869,0.2405 -1.588039,0.10374 -0.439528,-0.11578 -0.817941,-0.38857 -1.191873,-0.64696 -0.373931,-0.25839 -0.769452,-0.51371 -1.21823,-0.58574 -0.224389,-0.036 -0.459093,-0.0235 -0.671717,0.0567 -0.212625,0.0802 -0.401586,0.23117 -0.508901,0.43149 -0.05366,0.10017 -0.08659,0.2117 -0.09323,0.32513 -0.0066,0.11344 0.01327,0.22866 0.06007,0.3322 0.0468,0.10355 0.120661,0.1951 0.213548,0.26055 0.09289,0.0654 0.204719,0.10433 0.318292,0.10795 0.03178,0.001 0.06359,0 0.09538,0 h 0.926869 2.523713 c 1.551192,0 3.107036,-0.0507 4.637913,-0.30096"
       id="path14718"
       inkscape:path-effect="#path-effect14720"
       inkscape:original-d="m 78.999389,232.28862 c 1.119171,-0.008 2.175925,0.42445 3.277817,0.52663 1.2822,0.1189 2.575403,0 3.863107,0 0.517382,0 1.034764,0 1.552146,0 0.148275,0 -0.296553,0 -0.444828,0 -0.877215,0 -1.754431,0 -2.631649,0 -1.611924,0 -3.223847,0 -4.835771,0 -0.117229,0 -3.050429,-0.15585 -3.475786,0.0487 -0.06852,0.0329 0.152151,-0.003 0.228118,0 0.436666,0.0191 0.874734,0.0215 1.309622,0.0653 0.756827,0.0761 1.503788,0.24596 2.262909,0.29418 1.508993,0.0958 3.025389,0.0133 4.535035,0.0982 0.277879,0.0156 1.461538,0.0484 1.517359,0.21521 0.03171,0.0947 -0.196059,0.0413 -0.295645,0.0493 -0.377828,0.0304 -0.758095,0 -1.137142,0 -0.820418,0 -1.640838,0 -2.461258,0 -1.842198,0 -3.684399,0 -5.526598,0 -0.545782,0 -2.183135,0 -1.63735,0 5.03727,0 10.07454,0 15.111812,0 0.197935,0 -0.395869,0 -0.593804,0 -1.306611,0 -2.613218,0 -3.919829,0 -3.588329,0 -7.302193,-0.35973 -10.795272,0.577 -0.147632,0.0396 0.305694,0 0.458544,0 0.728932,0 1.457867,0 2.1868,0 2.738136,0 5.607616,0.24734 8.318185,-0.24744 0.06588,-0.012 -0.13393,0 -0.200896,0 -0.320394,0 -0.189931,-0.005 -0.730752,0.0621 -0.394751,0.0491 -0.790004,0.0956 -1.182926,0.15771 -1.094994,0.17301 -2.201831,0.26502 -3.296415,0.44059 -1.317289,0.21129 -2.615694,0.52809 -3.928959,0.76308 -0.115718,0.0207 0.235109,0 0.352666,0 0.235386,0 0.470773,0 0.70616,0 1.966359,0 3.934732,0.089 5.899078,0 0.450218,-0.0204 1.788313,-0.19685 1.337633,-0.19685 -2.930131,0 -5.860259,0 -8.79039,0 -0.0318,0 0.06359,0 0.09539,0 0.183742,0 0.367485,0 0.551227,0 0.420743,0 0.841487,0 1.262227,0 1.315858,0 2.632879,0.0554 3.94757,0 1.812475,-0.0763 3.623905,-0.20381 5.427908,-0.39476 3.712763,-0.39299 1.174637,-0.38513 2.061195,-0.38513 0.06497,0 -0.129943,0 -0.194911,0 -0.374311,0 -0.748623,0 -1.122931,0 -0.55218,0 -1.107234,-0.0563 -1.656541,0 -1.056738,0.10824 -2.093949,0.36492 -3.148565,0.49218 -1.202359,0.14509 -2.037755,0.0758 -3.092035,0.28136 -0.0312,0.006 0.06359,0 0.09538,0 0.308956,0 0.617913,0 0.926869,0 0.841238,0 1.682475,0 2.523713,0 1.188108,0 3.367182,0.23372 4.637913,-0.30096" />
    <g
       id="g25498"
       transform="matrix(0.94561115,0,0,0.94561115,-10.011084,-1.7635217)">
      <path
         style="fill:none;stroke:#000000;stroke-width:0.328553px;stroke-linecap:butt;stroke-linejoin:miter;stroke-opacity:1"
         d="m 65.316286,175.31715 c 0,0 1.047916,-0.89553 -0.831493,-78.341792 C 64.26236,87.809325 46.642169,87.424153 43.109983,78.963111 41.467598,75.028925 40.989636,70.088333 42.693026,66.180166 44.938287,61.02877 49.805806,55.525407 55.410106,55.113138 76.985635,53.525984 105.69402,49.961571 105.69402,49.961571 l 0.55595,49.096567 c -1.81282,26.775112 -2.97513,35.544142 -5.69765,66.207632"
         id="path1470"
         sodipodi:nodetypes="cssssccc" />
      <path
         style="fill:none;stroke:#000000;stroke-width:0.328553px;stroke-linecap:butt;stroke-linejoin:miter;stroke-opacity:1"
         d="m 109.59338,104.18818 c 0,0 43.4779,-6.413193 43.12167,8.55615 -2.64026,26.05062 38.47146,10.79985 47.91328,14.25933 l -0.78601,55.71683 c 0,0 -78.65665,-34.1296 -79.13659,1.06771 -0.0966,7.08389 0,0 0,0"
         id="path1472"
         sodipodi:nodetypes="ccccsc" />
      <text
         xml:space="preserve"
         style="font-style:normal;font-weight:normal;font-size:6.4072px;line-height:1.25;font-family:sans-serif;fill:#000000;fill-opacity:1;stroke:none;stroke-width:0.16018"
         x="143.26578"
         y="149.29379"
         id="text7896"><tspan
           sodipodi:role="line"
           id="tspan7894"
           style="font-style:normal;font-variant:normal;font-weight:normal;font-stretch:normal;font-family:'Shadows Into Light';-inkscape-font-specification:'Shadows Into Light, ';stroke-width:0.16018"
           x="143.26578"
           y="149.29379">tamu </tspan><tspan
           sodipodi:role="line"
           style="font-style:normal;font-variant:normal;font-weight:normal;font-stretch:normal;font-family:'Shadows Into Light';-inkscape-font-specification:'Shadows Into Light, ';stroke-width:0.16018"
           x="143.26578"
           y="157.48798"
           id="tspan7898">laki2</tspan></text>
      <text
         xml:space="preserve"
         style="font-style:normal;font-weight:normal;font-size:6.4072px;line-height:1.25;font-family:sans-serif;fill:#000000;fill-opacity:1;stroke:none;stroke-width:0.16018"
         x="70.232758"
         y="116.90246"
         id="text10646"><tspan
           sodipodi:role="line"
           id="tspan10642"
           style="font-style:normal;font-variant:normal;font-weight:normal;font-stretch:normal;font-family:'Shadows Into Light';-inkscape-font-specification:'Shadows Into Light, ';stroke-width:0.16018"
           x="70.232758"
           y="116.90246">tamu </tspan><tspan
           sodipodi:role="line"
           style="font-style:normal;font-variant:normal;font-weight:normal;font-stretch:normal;font-family:'Shadows Into Light';-inkscape-font-specification:'Shadows Into Light, ';stroke-width:0.16018"
           x="70.232758"
           y="125.09664"
           id="tspan10644">perempuan</tspan></text>
      <path
         style="fill:none;stroke:#000000;stroke-width:0.219004px;stroke-linecap:butt;stroke-linejoin:miter;stroke-opacity:1"
         d="m 115.88813,116.35005 c 0.32613,-2.15207 1.32795,-4.18529 2.77553,-5.81079 1.44758,-1.62551 3.33047,-2.84605 5.37874,-3.5825 4.09654,-1.47288 8.73822,-0.97414 12.72418,0.77604 2.10735,0.92531 4.11628,2.23587 5.4181,4.13388 0.6509,0.949 1.11266,2.03585 1.27843,3.17463 0.16577,1.13877 0.0283,2.32914 -0.45269,3.37457 -0.59163,1.28588 -1.68043,2.30571 -2.93255,2.9658 -1.25213,0.66008 -2.66167,0.9797 -4.07204,1.09961 -2.82075,0.23981 -5.65674,-0.29333 -8.48461,-0.16194 -2.06531,0.096 -4.12148,0.54596 -6.18286,0.38646 -1.03069,-0.0798 -2.06034,-0.31682 -2.9729,-0.80254 -0.91256,-0.48571 -1.70342,-1.23269 -2.14037,-2.16958 -0.48612,-1.04232 -0.50928,-2.24652 -0.33696,-3.38364 z"
         id="path19226"
         inkscape:path-effect="#path-effect19230"
         inkscape:original-d="m 115.88813,116.35005 c -0.11251,-1.12808 13.91919,-5.74463 20.87845,-8.61725 6.95926,-2.87266 4.16279,7.12226 6.24384,10.68308 2.08106,3.56081 -10.32589,2.60253 -15.4892,3.90347 -5.16329,1.30095 -7.53052,-1.72355 -11.29613,-2.58566 -3.76562,-0.86209 -0.22442,-2.25555 -0.33696,-3.38364 z" />
      <path
         style="fill:none;stroke:#000000;stroke-width:0.207359px;stroke-linecap:butt;stroke-linejoin:miter;stroke-opacity:1"
         d="m 51.013104,80.952268 c -1.536724,-1.37324 -2.629241,-3.220448 -3.167715,-5.209757 -0.538473,-1.98931 -0.530498,-4.113869 -0.05317,-6.11873 0.954649,-4.009722 3.754324,-7.430189 7.206177,-9.682729 1.824974,-1.190905 3.904306,-2.104237 6.082934,-2.152843 1.089315,-0.0243 2.189906,0.172715 3.178325,0.631216 0.98842,0.458501 1.860664,1.184056 2.440075,2.106813 0.712678,1.134994 0.956962,2.526198 0.831521,3.86051 -0.12544,1.334311 -0.602258,2.617023 -1.237795,3.796945 -1.271074,2.359842 -3.162666,4.331375 -4.523367,6.6407 -0.993777,1.686597 -1.702223,3.549332 -2.896429,5.100485 -0.597103,0.775576 -1.318357,1.468837 -2.176021,1.940496 -0.857665,0.471659 -1.859363,0.711535 -2.828244,0.572539 -1.077906,-0.154637 -2.044312,-0.76005 -2.856288,-1.485645 z"
         id="path19841"
         inkscape:original-d="m 51.013104,80.952268 c -0.952377,-0.495144 2.657143,-14.007556 3.985289,-21.011216 1.328142,-7.003688 7.801169,0.390039 11.701334,0.585186 3.900151,0.195119 -3.286144,9.53202 -4.929641,14.298155 -1.643507,4.766122 -5.266839,5.075623 -7.900694,7.61352 -2.633846,2.537922 -1.903902,-0.9905 -2.856288,-1.485645 z"
         inkscape:path-effect="#path-effect19853" />
      <text
         xml:space="preserve"
         style="font-style:normal;font-weight:normal;font-size:6.4072px;line-height:1.25;font-family:sans-serif;fill:#000000;fill-opacity:1;stroke:none;stroke-width:0.16018"
         x="42.933113"
         y="219.46964"
         id="text21894"><tspan
           sodipodi:role="line"
           style="font-style:normal;font-variant:normal;font-weight:normal;font-stretch:normal;font-family:'Shadows Into Light';-inkscape-font-specification:'Shadows Into Light, ';stroke-width:0.16018"
           x="42.933113"
           y="219.46964"
           id="tspan21892">Pintu Masuk</tspan><tspan
           sodipodi:role="line"
           style="font-style:normal;font-variant:normal;font-weight:normal;font-stretch:normal;font-family:'Shadows Into Light';-inkscape-font-specification:'Shadows Into Light, ';stroke-width:0.16018"
           x="42.933113"
           y="227.66382"
           id="tspan22994">Laki2</tspan></text>
      <text
         xml:space="preserve"
         style="font-style:normal;font-weight:normal;font-size:6.4072px;line-height:1.25;font-family:sans-serif;fill:#000000;fill-opacity:1;stroke:none;stroke-width:0.16018"
         x="118.53042"
         y="219.27228"
         id="text26242"><tspan
           sodipodi:role="line"
           style="font-style:normal;font-variant:normal;font-weight:normal;font-stretch:normal;font-family:'Shadows Into Light';-inkscape-font-specification:'Shadows Into Light, ';stroke-width:0.16018"
           x="118.53042"
           y="219.27228"
           id="tspan26238">Pintu Masuk</tspan><tspan
           sodipodi:role="line"
           style="font-style:normal;font-variant:normal;font-weight:normal;font-stretch:normal;font-family:'Shadows Into Light';-inkscape-font-specification:'Shadows Into Light, ';stroke-width:0.16018"
           x="118.53042"
           y="227.46646"
           id="tspan26240">Perempuan</tspan></text>
      <path
         style="fill:none;stroke:#000000;stroke-width:1.07413;stroke-linecap:butt;stroke-linejoin:miter;stroke-miterlimit:4;stroke-dasharray:none;stroke-opacity:1"
         d="m 61.747588,209.56969 c 5.056557,-5.12265 9.391764,-10.95631 12.838103,-17.27557 4.376192,-8.02425 7.311874,-16.83137 8.625427,-25.87649"
         id="path8196"
         inkscape:path-effect="#path-effect8198"
         inkscape:original-d="m 61.747588,209.56969 c -3.936598,-4.38258 9.605432,-13.3011 12.838103,-17.27557 3.232666,-3.97444 8.401246,-25.75271 8.625427,-25.87649"
         sodipodi:nodetypes="csc" />
      <path
         style="fill:none;stroke:#000000;stroke-width:1.07413;stroke-linecap:butt;stroke-linejoin:miter;stroke-miterlimit:4;stroke-dasharray:none;stroke-opacity:1"
         d="m 115.52201,215.01375 c -4.91216,-7.16736 -7.79259,-15.71118 -8.22262,-24.38962 -0.29214,-5.89557 0.53257,-11.84455 2.41748,-17.43831"
         id="path8805"
         inkscape:path-effect="#path-effect8809"
         inkscape:original-d="m 115.52201,215.01375 c -3.23332,-3.97377 -4.98995,-20.41515 -8.22262,-24.38962 -3.23267,-3.97445 2.64166,-17.31455 2.41748,-17.43831"
         sodipodi:nodetypes="csc" />
      <text
         xml:space="preserve"
         style="font-style:normal;font-weight:normal;font-size:6.4072px;line-height:1.25;font-family:sans-serif;fill:#000000;fill-opacity:1;stroke:none;stroke-width:0.16018"
         x="38.307198"
         y="39.863392"
         id="text17464"><tspan
           sodipodi:role="line"
           style="font-style:normal;font-variant:normal;font-weight:normal;font-stretch:normal;font-family:'Shadows Into Light';-inkscape-font-specification:'Shadows Into Light, ';stroke-width:0.16018"
           x="38.307198"
           y="39.863392"
           id="tspan17462">Mempelai Wanita</tspan></text>
      <text
         xml:space="preserve"
         style="font-style:normal;font-weight:normal;font-size:6.4072px;line-height:1.25;font-family:sans-serif;fill:#000000;fill-opacity:1;stroke:none;stroke-width:0.16018"
         x="138.68588"
         y="91.901749"
         id="text20914"><tspan
           sodipodi:role="line"
           style="font-style:normal;font-variant:normal;font-weight:normal;font-stretch:normal;font-family:'Shadows Into Light';-inkscape-font-specification:'Shadows Into Light, ';stroke-width:0.16018"
           x="138.68588"
           y="91.901749"
           id="tspan20912">Mempelai Laki2</tspan></text>
      <path
         style="fill:none;stroke:#000000;stroke-width:0.46607;stroke-linecap:butt;stroke-linejoin:miter;stroke-miterlimit:4;stroke-dasharray:none;stroke-opacity:1"
         d="m 60.545809,62.081824 c 2.194061,-2.222737 4.075126,-4.753988 5.570507,-7.49594 1.898848,-3.481755 3.172653,-7.303201 3.742609,-11.227917"
         id="path25188"
         inkscape:path-effect="#path-effect25192"
         inkscape:original-d="m 60.545809,62.081824 c -1.708106,-1.90162 4.167838,-5.7714 5.570507,-7.49594 1.402668,-1.72453 3.645336,-11.174209 3.742609,-11.227917"
         sodipodi:nodetypes="csc" />
      <path
         style="fill:none;stroke:#000000;stroke-width:0.46607;stroke-linecap:butt;stroke-linejoin:miter;stroke-miterlimit:4;stroke-dasharray:none;stroke-opacity:1"
         d="m 138.32099,114.64096 c 2.19406,-2.22274 4.07513,-4.75399 5.57051,-7.49594 1.89885,-3.48176 3.17266,-7.303206 3.74261,-11.227925"
         id="path25194"
         inkscape:path-effect="#path-effect25198"
         inkscape:original-d="m 138.32099,114.64096 c -1.7081,-1.90162 4.16784,-5.7714 5.57051,-7.49594 1.40267,-1.72453 3.64534,-11.174217 3.74261,-11.227925"
         sodipodi:nodetypes="csc" />
    </g>
  </g>
</svg>
