<?xml version="1.0" standalone="no"?>
<!DOCTYPE svg PUBLIC "-//W3C//DTD SVG 20010904//EN"
 "http://www.w3.org/TR/2001/REC-SVG-20010904/DTD/svg10.dtd">
<svg version="1.0" xmlns="http://www.w3.org/2000/svg"
 width="1274.000000pt" height="1280.000000pt" viewBox="0 0 1274.000000 1280.000000"
 preserveAspectRatio="xMidYMid meet">
<metadata>
Created by potrace 1.15, written by Peter Selinger 2001-2017
</metadata>
<g transform="translate(0.000000,1280.000000) scale(0.100000,-0.100000)"
fill="#000000" stroke="none">
<path d="M5910 12794 c-598 -35 -1079 -128 -1650 -320 -789 -266 -1446 -644
-2100 -1208 -400 -345 -871 -894 -966 -1123 -24 -60 -31 -141 -15 -172 7 -13
1 -28 -26 -62 -226 -283 -542 -840 -717 -1264 -205 -499 -359 -1137 -417
-1740 -18 -180 -18 -891 -1 -1055 55 -518 142 -947 282 -1385 114 -358 325
-858 495 -1176 269 -503 490 -811 857 -1197 459 -484 963 -880 1572 -1236 313
-184 596 -313 1053 -482 297 -109 913 -272 1169 -308 354 -50 517 -61 879 -60
486 1 878 40 1250 125 922 212 1724 593 2435 1158 291 231 718 658 1001 1001
639 772 1074 1517 1361 2325 177 498 289 988 345 1500 21 199 24 910 4 1095
-45 421 -107 732 -216 1095 -48 158 -130 386 -166 456 -30 61 -79 109 -109
109 -15 0 -25 17 -44 80 -85 267 -219 543 -449 920 -133 218 -233 355 -431
588 -279 330 -734 751 -1141 1057 -537 403 -999 664 -1530 865 -284 107 -685
226 -915 270 -151 29 -337 60 -485 80 -191 26 -242 32 -385 46 -148 14 -791
27 -940 18z m580 -74 c540 -24 974 -87 1454 -210 577 -148 1088 -349 1486
-585 471 -279 1090 -764 1505 -1180 540 -539 967 -1226 1252 -2015 178 -491
259 -886 308 -1500 42 -537 25 -1085 -46 -1490 -113 -638 -421 -1479 -766
-2090 -417 -738 -1103 -1571 -1713 -2081 -257 -215 -720 -521 -1055 -699 -55
-29 -131 -70 -170 -90 -338 -179 -878 -357 -1390 -459 -365 -73 -601 -94
-1025 -94 -613 1 -1107 74 -1697 252 -837 252 -1702 737 -2372 1329 -395 349
-719 724 -1028 1187 -222 332 -423 709 -551 1030 -369 926 -520 1993 -422
2970 71 696 262 1347 585 1985 231 455 616 1016 981 1430 134 152 450 461 594
581 436 363 990 709 1494 933 1153 512 2576 626 3851 310 391 -97 740 -227
1150 -429 282 -139 492 -259 735 -419 629 -417 1045 -807 1472 -1380 143 -191
293 -413 400 -590 91 -150 269 -506 323 -646 146 -375 268 -855 324 -1277 39
-293 46 -395 44 -703 -2 -811 -125 -1464 -408 -2175 -334 -841 -768 -1537
-1381 -2215 -392 -434 -914 -866 -1394 -1153 -259 -154 -694 -352 -1005 -456
-840 -279 -1874 -364 -2695 -220 -339 59 -798 200 -1193 365 -669 281 -1405
771 -1941 1294 -477 465 -751 840 -1044 1430 -374 751 -566 1410 -621 2130
-36 460 -17 1020 49 1453 82 540 340 1290 620 1807 255 470 561 889 962 1320
319 343 791 742 1112 942 898 558 1860 821 3011 822 184 0 357 -5 425 -12 724
-80 1318 -217 1770 -407 386 -163 939 -497 1380 -834 362 -277 787 -688 1046
-1012 344 -431 692 -1103 794 -1533 47 -197 55 -456 17 -583 -14 -47 -79 -185
-99 -210 -7 -9 -24 -3 -66 25 -32 20 -59 37 -61 39 -2 1 15 44 36 95 22 51 46
118 53 148 17 69 17 255 1 335 -53 264 -156 573 -279 836 -109 236 -306 559
-467 764 -264 338 -677 733 -1075 1027 -842 622 -1568 964 -2350 1107 -442 81
-798 113 -1260 113 -474 1 -771 -39 -1310 -178 -360 -92 -614 -188 -960 -360
-417 -208 -911 -533 -1235 -812 -325 -281 -670 -688 -990 -1172 -512 -773
-731 -1257 -898 -1980 -192 -830 -180 -1739 34 -2585 173 -685 436 -1268 852
-1895 364 -548 813 -971 1556 -1462 688 -456 1301 -728 1986 -883 278 -62 523
-90 938 -104 371 -14 647 4 1010 65 687 114 1422 392 1977 747 409 261 863
643 1169 982 449 496 751 925 1086 1540 275 503 412 853 569 1450 97 366 139
651 156 1032 19 466 -22 1029 -106 1443 -152 743 -473 1468 -901 2032 -365
481 -949 1022 -1493 1384 -579 386 -1309 718 -1901 864 -436 108 -832 150
-1424 150 -404 0 -627 -16 -964 -71 -315 -52 -533 -106 -886 -223 -582 -193
-975 -392 -1480 -751 -502 -357 -1045 -891 -1412 -1390 -374 -510 -669 -1072
-870 -1660 -103 -304 -208 -698 -248 -937 -80 -482 -72 -1233 21 -1863 58
-395 188 -864 352 -1275 241 -603 486 -1044 792 -1425 605 -756 1540 -1479
2415 -1867 649 -289 1062 -393 1845 -465 214 -19 675 -22 880 -4 705 60 1220
189 1852 465 768 335 1506 905 2153 1661 391 457 665 866 975 1455 155 293
252 518 371 862 230 662 319 1160 336 1869 10 418 -41 863 -158 1381 -99 439
-216 783 -379 1110 -252 505 -452 808 -805 1218 -405 471 -771 794 -1275 1130
-577 385 -991 589 -1570 773 -572 182 -817 229 -1456 277 -719 53 -1466 -18
-2102 -200 -354 -102 -884 -315 -1210 -487 -328 -172 -754 -455 -1063 -704
-269 -217 -754 -729 -1043 -1101 -53 -68 -61 -75 -73 -60 -57 76 57 255 433
678 649 730 1406 1253 2363 1633 544 217 1315 375 1941 400 107 4 211 9 230 9
19 1 136 -3 260 -8z m400 -184 c424 -34 631 -70 985 -167 752 -207 1223 -422
1893 -866 386 -256 674 -493 987 -814 390 -400 684 -786 923 -1211 211 -375
315 -612 427 -973 160 -514 285 -1262 285 -1710 0 -134 -22 -507 -41 -700 -54
-553 -257 -1270 -527 -1861 -97 -213 -317 -618 -460 -849 -408 -657 -1012
-1341 -1612 -1824 -340 -274 -832 -571 -1215 -734 -621 -264 -1034 -372 -1700
-444 -201 -21 -834 -25 -1025 -5 -760 77 -1098 158 -1685 404 -952 400 -1904
1121 -2564 1943 -184 229 -351 497 -510 820 -281 568 -447 1034 -561 1574
-122 575 -163 1444 -94 1981 76 593 345 1408 653 1979 364 674 817 1243 1411
1772 469 417 1067 794 1584 998 561 222 1075 349 1646 408 204 21 910 24 1150
4 717 -57 1311 -228 2020 -583 625 -312 1068 -621 1575 -1098 525 -493 835
-905 1111 -1475 265 -547 420 -1074 488 -1655 38 -329 41 -380 41 -790 -1
-434 -6 -510 -56 -820 -57 -354 -208 -886 -356 -1255 -141 -352 -449 -923
-697 -1295 -344 -517 -794 -1029 -1207 -1377 -565 -475 -1047 -756 -1699 -990
-790 -283 -1541 -369 -2425 -277 -443 46 -891 169 -1390 381 -372 158 -740
365 -1150 646 -743 509 -1143 907 -1531 1522 -250 397 -435 765 -566 1130
-205 569 -306 1025 -349 1575 -15 188 -14 657 0 830 68 787 267 1477 608 2105
116 212 183 308 304 431 93 95 155 129 234 128 99 -1 156 -44 180 -134 30
-112 -24 -190 -130 -190 -71 0 -115 41 -101 96 8 31 -2 30 -50 -4 -82 -60
-207 -224 -312 -412 -433 -776 -614 -1492 -615 -2435 0 -1074 248 -1996 770
-2863 239 -399 435 -655 698 -916 555 -551 1206 -998 1940 -1332 858 -390
1423 -497 2324 -439 665 43 1105 135 1649 347 748 290 1279 644 1908 1273 321
321 550 604 829 1025 554 836 829 1475 970 2250 148 817 123 1567 -81 2440
-98 418 -175 631 -358 985 -189 366 -344 604 -584 895 -124 151 -507 532 -697
694 -473 405 -1154 841 -1635 1046 -375 160 -876 290 -1425 369 -357 52 -549
64 -895 58 -766 -14 -1396 -132 -2040 -382 -367 -143 -813 -383 -1087 -586
-649 -480 -1231 -1100 -1651 -1759 -312 -490 -551 -1038 -722 -1655 -135 -486
-189 -986 -177 -1620 8 -378 32 -625 93 -950 89 -476 278 -1010 550 -1555 129
-258 213 -404 334 -585 513 -765 1343 -1476 2294 -1964 511 -263 1174 -481
1688 -556 698 -101 1618 -33 2348 176 616 175 1202 468 1720 858 639 482 1213
1107 1668 1816 375 585 722 1379 871 1998 112 463 169 1007 158 1517 -9 447
-59 798 -178 1275 -141 556 -351 1017 -703 1540 -251 373 -474 645 -775 945
-620 618 -1447 1132 -2329 1446 -633 225 -1489 350 -2169 316 -977 -50 -1786
-263 -2552 -675 -537 -289 -1012 -633 -1405 -1017 -360 -353 -606 -656 -932
-1150 -313 -474 -504 -864 -684 -1396 -182 -535 -265 -1037 -277 -1669 -12
-670 61 -1249 238 -1873 210 -742 495 -1312 981 -1967 272 -366 608 -715 988
-1028 587 -481 1342 -900 2045 -1132 960 -318 1941 -389 2880 -209 437 84 971
256 1320 425 331 160 798 443 1095 664 671 499 1444 1402 1923 2248 321 565
631 1390 752 2000 94 479 111 1075 50 1747 -42 452 -113 803 -246 1204 -32 99
-57 181 -55 184 3 2 14 1 26 -3 62 -20 252 -582 329 -975 34 -172 39 -200 55
-305 38 -252 49 -417 49 -790 1 -456 -20 -704 -94 -1080 -186 -946 -531 -1747
-1163 -2695 -255 -384 -608 -790 -1059 -1219 -414 -394 -714 -615 -1241 -916
-221 -126 -727 -346 -976 -425 -348 -110 -597 -170 -920 -220 -588 -90 -1053
-99 -1543 -30 -562 80 -1060 210 -1582 415 -588 231 -1208 600 -1705 1013
-787 655 -1351 1395 -1750 2297 -156 353 -253 626 -334 945 -38 152 -58 244
-106 485 -18 95 -59 400 -76 570 -24 240 -24 815 0 1050 67 667 150 1041 343
1549 186 492 555 1159 874 1581 224 297 705 822 953 1039 299 262 840 627
1208 814 584 297 1190 505 1738 596 540 91 1073 110 1670 62z m-520 -576 c196
-12 264 -27 314 -71 102 -89 74 -314 -85 -693 -104 -247 -206 -433 -342 -624
l-80 -113 -39 38 c-32 32 -36 39 -25 54 140 194 254 405 337 624 23 61 45 120
50 132 24 59 70 237 79 307 17 122 1 180 -59 211 -53 27 -228 38 -535 32 -372
-8 -553 -31 -830 -108 -612 -170 -939 -399 -1258 -884 -189 -288 -272 -523
-314 -891 l-17 -152 -40 6 c-23 2 -42 5 -43 6 -7 5 18 296 32 360 49 236 202
585 360 824 54 82 226 274 321 358 226 200 371 280 709 392 275 92 482 138
785 172 247 29 431 34 680 20z m895 -90 c247 -28 471 -79 733 -167 453 -152
737 -319 1015 -597 353 -353 572 -758 662 -1225 8 -40 13 -77 10 -81 -2 -3
-28 -8 -58 -9 l-54 -2 -27 143 c-83 438 -317 863 -631 1142 -186 166 -412 318
-605 409 -376 176 -781 289 -1040 290 -186 1 -278 -42 -321 -150 -22 -55 -23
-71 -24 -283 0 -243 7 -302 64 -497 48 -166 127 -349 193 -445 10 -14 18 -29
18 -32 0 -3 -21 -19 -46 -37 -37 -25 -48 -29 -55 -18 -148 230 -242 492 -279
782 -14 113 -12 378 4 477 15 90 43 174 75 227 46 74 157 96 366 73z m-796
-43 c86 -23 96 -40 96 -155 -1 -124 -34 -249 -140 -527 -67 -177 -218 -451
-320 -579 -17 -22 -12 -25 -147 103 l-56 53 68 107 c158 249 223 427 187 513
-18 44 -64 70 -164 95 -98 24 -463 24 -623 -1 -239 -37 -411 -92 -560 -180
-263 -154 -471 -381 -619 -673 -27 -55 -38 -65 -93 -95 -82 -43 -157 -119
-193 -192 -23 -48 -30 -76 -33 -146 -4 -77 -2 -91 21 -136 29 -56 68 -96 146
-147 46 -31 52 -37 36 -43 -23 -9 -481 -12 -489 -3 -9 8 20 250 44 381 47 251
153 483 338 743 287 402 577 604 1097 763 356 109 633 144 1095 137 180 -3
271 -8 309 -18z m1046 -91 c188 -38 459 -122 650 -202 427 -179 821 -486 1035
-805 183 -274 314 -606 346 -881 l7 -58 -76 0 c-92 0 -208 -21 -276 -50 -47
-21 -106 -74 -141 -128 l-15 -23 -95 21 c-52 12 -133 33 -179 47 l-83 25 31
31 30 31 36 -17 c61 -29 167 -43 230 -30 152 32 235 129 235 273 0 70 -43 147
-110 198 -27 21 -50 48 -57 69 -22 60 -103 215 -161 303 -247 381 -741 744
-1160 851 -113 29 -301 33 -347 7 -77 -42 -116 -123 -123 -254 -9 -177 29
-384 99 -533 32 -68 37 -87 27 -96 -7 -7 -57 -42 -110 -78 l-97 -66 -44 77
c-92 160 -177 397 -213 597 -22 125 -26 440 -6 527 23 98 69 146 171 175 60
17 287 10 396 -11z m-1556 -307 c78 -12 157 -44 176 -73 36 -50 12 -173 -62
-320 -51 -102 -171 -296 -182 -296 -4 0 -15 8 -24 18 -14 16 -12 22 24 82 91
148 179 345 179 400 0 20 -9 39 -25 54 -70 65 -400 96 -646 61 -293 -41 -506
-142 -758 -359 -85 -73 -221 -218 -221 -236 0 -4 17 -10 38 -14 197 -31 444
-184 577 -357 43 -55 115 -178 115 -195 0 -9 -131 -84 -147 -84 -5 0 -27 25
-48 56 -49 71 -184 197 -280 262 -81 55 -159 88 -245 104 -55 10 -209 6 -243
-7 -20 -8 -26 -21 68 145 212 371 533 622 915 714 247 59 576 78 789 45z
m1808 -55 c190 -47 456 -182 659 -335 182 -136 385 -347 490 -509 42 -66 146
-267 158 -308 7 -20 5 -21 -19 -12 -42 16 -175 12 -252 -9 -131 -34 -293 -145
-408 -278 -33 -37 -60 -69 -61 -71 -5 -9 -214 126 -214 138 0 11 109 111 175
161 148 113 289 189 463 249 50 18 92 37 92 42 0 25 -190 259 -305 373 -300
300 -679 493 -977 497 -162 2 -183 -25 -182 -237 0 -193 24 -314 85 -437 16
-32 29 -61 29 -66 0 -4 -13 -15 -29 -25 l-28 -16 -36 77 c-71 153 -99 284
-101 472 -1 165 23 239 95 292 55 41 206 42 366 2z m-2188 -159 c32 -8 80 -24
107 -36 57 -25 201 -118 227 -147 18 -20 18 -21 -11 -61 -16 -22 -35 -54 -42
-71 -7 -17 -15 -29 -19 -28 -3 2 -44 24 -91 50 -239 131 -382 126 -723 -26
-32 -14 -67 -26 -78 -26 l-20 0 20 26 c31 39 27 86 -9 127 -28 32 -29 35 -12
49 29 26 135 75 222 104 163 52 322 67 429 39z m1131 -160 c41 -21 62 -68 68
-151 8 -123 -30 -206 -161 -356 l-52 -59 -47 52 -47 53 48 56 c56 64 131 169
131 183 0 5 -6 7 -13 4 -7 -3 -27 1 -44 8 -49 21 -54 84 -13 166 29 55 77 72
130 44z m1375 -40 c67 -12 145 -46 145 -62 0 -3 -13 -21 -30 -40 -31 -35 -38
-70 -19 -105 11 -21 11 -21 -142 -13 -246 12 -249 12 -306 -19 -28 -16 -83
-57 -123 -93 -39 -36 -72 -64 -74 -62 -2 2 -18 35 -35 72 -36 81 -35 83 45
156 109 100 188 143 302 166 90 18 146 18 237 0z m-4483 -16 c33 -9 68 -36 68
-51 0 -6 -43 -6 -103 -2 -311 20 -547 -137 -588 -393 -20 -125 22 -297 91
-377 34 -38 78 -66 104 -66 8 0 25 10 36 23 30 31 22 74 -39 206 -60 129 -76
193 -68 278 12 120 70 184 222 244 68 27 94 32 175 33 194 2 200 -31 21 -127
-113 -60 -144 -86 -171 -144 -36 -75 -31 -151 21 -319 60 -197 55 -251 -27
-324 -98 -86 -192 -80 -290 18 -33 32 -62 80 -105 171 -33 69 -83 171 -112
226 -51 98 -52 102 -52 185 0 76 3 91 30 139 78 141 293 264 510 292 67 8 231
2 277 -12z m1312 5 c9 -8 16 -31 16 -50 0 -29 -5 -36 -42 -55 -46 -24 -168
-71 -168 -65 0 15 61 108 95 143 44 45 73 53 99 27z m3407 -115 c22 -11 73
-52 112 -90 l72 -71 -78 6 c-158 12 -243 80 -191 154 19 27 34 28 85 1z
m-3035 -7 c25 -17 36 -53 24 -82 -12 -29 -35 -42 -105 -59 -54 -13 -216 -33
-222 -28 -10 11 64 80 121 114 94 55 155 74 182 55z m274 -38 c176 -63 259
-121 485 -336 l130 -125 -41 -49 c-23 -27 -53 -69 -69 -93 l-27 -44 -81 89
c-236 261 -291 294 -516 314 -114 10 -183 31 -209 63 -17 20 -8 37 19 37 28 0
75 26 93 52 10 14 16 44 16 77 l0 54 63 -6 c34 -3 96 -18 137 -33z m2653 -115
c27 -12 28 -16 21 -54 -13 -69 -7 -105 22 -136 l27 -28 -34 -20 c-35 -22 -74
-27 -244 -36 -139 -7 -192 -19 -280 -60 -100 -47 -197 -114 -380 -258 -99 -79
-168 -127 -182 -127 -54 0 -152 -67 -153 -104 0 -6 -7 -19 -14 -28 -12 -16
-20 -7 -81 88 l-67 105 19 22 c11 12 50 58 88 102 37 44 71 84 75 88 4 5 16
-5 26 -22 31 -53 45 -50 162 37 145 107 509 355 558 380 123 62 356 89 437 51z
m207 -59 c40 -20 170 -126 170 -138 0 -4 -60 -5 -134 -2 -125 5 -136 7 -160
29 -30 28 -34 75 -10 109 20 29 80 30 134 2z m-1945 -170 c64 -79 225 -308
424 -605 137 -204 331 -502 331 -509 0 -2 -27 -6 -60 -9 -33 -4 -94 -20 -134
-36 l-75 -28 -12 29 c-22 52 -149 260 -222 363 -126 176 -182 221 -360 285
-45 17 -97 39 -115 50 l-34 21 28 37 c15 20 52 66 83 101 l55 64 -77 73 c-42
40 -77 75 -77 78 0 4 30 51 67 106 l66 101 29 -28 c16 -16 54 -57 83 -93z
m-791 -29 c7 -11 -144 -155 -244 -231 -89 -68 -217 -152 -312 -204 -66 -37
-67 -37 -78 -16 -6 12 -10 23 -8 24 2 2 62 38 133 81 171 103 260 169 375 281
76 74 98 90 112 83 9 -5 19 -13 22 -18z m-2997 0 c56 -26 92 -78 175 -251 100
-212 99 -209 153 -265 70 -72 130 -99 204 -92 32 2 76 14 100 26 23 12 45 20
49 17 4 -2 19 -26 32 -53 18 -35 26 -69 28 -123 3 -67 1 -81 -25 -130 -36 -68
-124 -138 -207 -164 -94 -30 -226 -19 -341 29 -172 70 -335 174 -416 264 -28
31 -68 92 -90 137 -34 67 -42 94 -46 160 -10 149 28 261 125 366 89 95 168
120 259 79z m1733 8 c323 -52 678 -522 766 -1014 22 -123 30 -440 15 -558 -42
-320 -124 -573 -297 -919 -35 -70 -115 -210 -129 -226 -1 -1 -38 20 -81 47
l-79 51 95 193 c206 418 284 724 283 1112 0 265 -18 359 -103 542 -83 178
-217 331 -341 391 -87 42 -127 49 -135 25 -36 -120 -143 -213 -245 -213 -55 0
-137 39 -177 85 -91 103 -79 241 29 360 60 65 131 102 231 120 93 17 91 17
168 4z m1346 -75 c35 -30 73 -69 85 -86 l22 -30 -64 -65 c-95 -96 -281 -258
-389 -339 -97 -72 -211 -144 -226 -144 -7 0 -101 186 -122 240 -2 4 46 36 105
69 59 34 148 90 196 125 102 73 270 218 299 259 11 15 22 27 25 27 3 0 34 -25
69 -56z m4183 -34 c53 -25 50 -35 -4 -15 -22 8 -51 14 -65 14 -14 0 -43 -6
-65 -14 -21 -8 -41 -12 -44 -10 -7 8 83 45 109 45 14 0 45 -9 69 -20z m-3643
-111 c3 -5 -15 -33 -39 -62 -104 -122 -196 -310 -246 -502 -10 -38 -22 -70
-27 -69 -5 0 -37 4 -71 8 -70 10 -66 -1 -41 101 38 156 152 387 270 548 l50
67 49 -41 c27 -22 52 -45 55 -50z m3664 71 c48 -24 60 -45 60 -103 0 -33 -6
-49 -24 -66 -14 -13 -22 -29 -20 -36 7 -18 -64 -48 -113 -47 -25 0 -57 9 -78
22 -45 28 -45 33 2 13 44 -18 156 -14 175 6 11 12 9 13 -7 6 -11 -4 -43 -10
-72 -12 -59 -6 -135 24 -155 60 -16 30 -13 92 5 120 37 56 152 75 227 37z
m-2130 -184 c108 -112 254 -230 367 -296 48 -29 89 -53 91 -55 2 -1 -7 -15
-20 -29 l-23 -27 -90 56 c-170 107 -314 229 -452 384 l-85 95 28 23 29 23 35
-43 c19 -23 73 -82 120 -131z m-1937 -12 c-122 -138 -443 -392 -624 -493 l-56
-31 -15 55 -15 54 71 42 c141 84 407 301 561 459 l60 61 37 -41 38 -42 -57
-64z m1822 13 c131 -147 256 -248 508 -412 14 -10 -6 -50 -130 -263 -9 -15
-99 44 -233 152 -95 77 -316 297 -399 399 -35 42 -66 75 -69 72 -3 -2 17 -30
44 -62 178 -212 346 -372 524 -501 58 -41 108 -78 113 -82 4 -4 -4 -32 -18
-63 l-25 -57 -87 61 c-126 88 -265 201 -367 299 -87 83 -273 292 -283 318 -7
16 41 58 196 174 107 80 117 85 132 70 8 -10 51 -56 94 -105z m1328 10 c83
-36 138 -115 139 -201 1 -125 -95 -209 -238 -210 -62 0 -80 4 -139 34 l-68 35
-82 -87 c-44 -47 -109 -126 -144 -175 -66 -92 -176 -308 -206 -403 -10 -30
-19 -58 -22 -62 -2 -4 -20 9 -41 28 -20 19 -68 56 -105 81 -61 42 -67 50 -62
73 14 56 177 372 245 474 144 214 312 358 483 411 56 18 199 19 240 2z m-4494
-141 c65 -41 68 -52 19 -69 -88 -32 -246 -77 -268 -77 -6 0 21 30 59 68 45 44
71 78 75 99 l7 31 36 -14 c19 -9 52 -26 72 -38z m5749 35 c86 -45 144 -143
163 -277 32 -230 -45 -422 -225 -559 l-35 -27 -34 26 c-48 37 -169 90 -257
114 -144 39 -246 47 -420 35 -181 -13 -258 -3 -329 41 -96 61 -95 176 1 250
76 57 169 73 513 86 321 12 378 25 484 114 24 20 47 36 52 36 16 0 9 -104 -10
-146 -22 -48 -66 -84 -136 -110 -43 -16 -78 -19 -260 -19 -115 1 -278 3 -361
5 -170 6 -184 1 -184 -57 0 -78 31 -92 220 -100 261 -11 498 23 625 88 125 64
180 148 179 270 0 61 -3 70 -47 135 -26 39 -47 80 -47 92 0 19 6 22 35 22 20
0 52 -9 73 -19z m-5604 -160 l27 -29 -33 -12 c-289 -105 -687 -161 -1075 -152
l-133 3 0 24 0 24 238 0 c345 -1 531 28 827 131 61 21 113 38 116 39 3 0 18
-12 33 -28z m78 -103 c51 -88 102 -218 85 -218 -1 0 -62 -20 -136 -45 -140
-47 -335 -96 -461 -115 -125 -19 -366 -28 -535 -19 -144 7 -368 33 -387 45 -4
2 13 23 38 46 45 41 104 147 104 186 0 20 4 21 138 15 224 -9 525 18 760 68
108 23 299 76 322 90 27 16 36 10 72 -53z m1890 -95 c30 -43 63 -90 72 -105
l17 -26 -129 -174 c-180 -242 -273 -377 -397 -573 -185 -293 -206 -324 -247
-361 -35 -31 -45 -35 -76 -31 -19 4 -58 20 -86 37 -95 58 -90 48 -57 126 34
80 73 211 92 304 12 65 13 66 154 215 176 185 218 233 425 473 90 106 167 192
170 192 4 0 32 -35 62 -77z m-1226 -278 c43 -130 85 -224 144 -320 56 -90 61
-134 26 -235 -34 -102 -54 -147 -67 -156 -14 -8 -113 96 -208 219 l-71 94 0
164 c0 93 -7 205 -15 259 -8 52 -15 98 -15 102 0 4 33 25 73 47 l72 40 13 -52
c7 -29 29 -101 48 -162z m3334 170 c52 -18 128 -41 168 -50 39 -10 72 -20 72
-24 0 -3 -16 -19 -36 -35 -34 -27 -38 -28 -78 -16 -75 22 -286 102 -291 110
-3 4 5 20 16 34 15 19 27 25 38 20 9 -4 59 -22 111 -39z m-2752 -15 c74 -21
232 -94 232 -108 0 -4 -22 -32 -49 -62 l-49 -54 -81 38 c-92 43 -171 55 -248
37 -58 -14 -151 -81 -210 -151 l-41 -50 -25 54 c-42 92 -43 87 21 148 109 105
229 166 327 167 28 1 83 -8 123 -19z m-3475 -43 c115 -39 300 -129 407 -199
185 -119 410 -410 502 -648 50 -129 54 -126 -75 -60 l-112 58 -38 74 c-123
233 -279 328 -356 217 -22 -32 -23 -40 -17 -144 12 -236 93 -415 263 -579 50
-48 182 -146 213 -158 4 -2 9 -38 12 -80 l5 -78 -36 0 c-84 0 -197 65 -282
159 -115 128 -254 375 -384 686 -120 286 -227 475 -269 475 -7 0 -17 -20 -24
-44 -24 -90 -104 -146 -188 -130 -51 9 -87 44 -118 115 -25 54 -28 70 -24 144
3 73 7 88 33 126 63 89 118 111 270 106 95 -3 125 -9 218 -40z m8382 -8 c32
-39 76 -125 101 -199 22 -67 25 -203 5 -275 -34 -121 -145 -299 -243 -390
-147 -136 -300 -207 -505 -235 -129 -17 -296 12 -417 72 -55 26 -166 101 -166
110 0 5 20 8 45 8 25 0 86 7 136 16 85 14 93 14 142 -3 40 -14 82 -18 177 -18
142 1 240 23 345 78 116 62 264 237 315 375 53 141 -13 310 -90 230 -65 -67
-97 -234 -67 -345 l14 -52 -56 -55 c-31 -31 -59 -56 -63 -56 -8 0 -31 73 -49
150 -6 30 -12 97 -12 150 0 156 42 257 149 362 94 92 164 134 195 117 9 -5 29
-23 44 -40z m-6039 -9 c7 -24 12 -45 11 -46 -7 -7 -167 -66 -247 -92 -528
-168 -1038 -202 -1410 -94 -86 25 -173 63 -163 71 4 4 42 15 83 25 41 10 92
27 112 37 34 18 42 18 100 5 191 -44 659 -56 873 -23 151 24 336 70 485 122
69 24 129 42 134 41 5 -1 15 -22 22 -46z m3814 6 c47 -18 117 -43 155 -56 39
-12 71 -24 73 -25 1 -1 -13 -26 -33 -55 -48 -72 -68 -145 -63 -236 2 -41 2
-74 1 -74 -10 0 -236 101 -304 136 -132 68 -128 62 -94 120 75 131 150 234
165 228 8 -3 53 -21 100 -38z m-782 -183 c45 -30 82 -60 82 -67 0 -7 -11 -46
-25 -87 -53 -155 -104 -365 -120 -492 -8 -71 -39 -111 -122 -154 -77 -41 -154
-63 -221 -63 -68 0 -85 16 -173 165 -82 138 -249 432 -249 439 0 12 180 56
232 56 22 0 32 -10 64 -67 52 -94 102 -170 115 -179 18 -11 39 25 39 65 0 87
74 315 147 453 l35 68 57 -42 c31 -22 93 -65 139 -95z m1172 47 c73 -68 112
-75 360 -72 367 5 536 -35 663 -156 143 -137 102 -342 -88 -435 -180 -90 -651
-44 -900 87 -79 42 -156 118 -196 197 -29 56 -33 74 -33 144 -1 71 3 88 32
148 24 47 46 77 74 98 23 16 42 29 43 29 1 0 21 -18 45 -40z m-4179 18 c9 -25
14 -247 8 -353 -20 -339 -102 -620 -294 -1000 -85 -169 -92 -180 -127 -191
l-36 -12 -159 161 c-182 185 -250 268 -374 454 -142 214 -251 425 -342 660
l-16 41 97 -5 c122 -7 379 12 519 37 208 37 468 110 623 174 80 33 99 39 101
34z m1029 -15 c0 -5 -15 -57 -34 -118 -18 -60 -50 -175 -70 -255 -91 -358
-137 -477 -212 -554 -61 -62 -94 -74 -136 -49 -80 46 -135 169 -145 323 l-5
85 60 -59 c35 -34 64 -72 67 -88 4 -16 18 -36 31 -44 22 -15 26 -15 48 -1 49
33 116 218 197 549 57 231 46 214 147 217 28 0 52 -2 52 -6z m1637 -29 c17 -5
20 -10 12 -23 -6 -9 -18 -43 -28 -76 l-17 -60 -135 -6 c-204 -10 -282 -31
-483 -131 -65 -33 -119 -58 -120 -56 -13 20 -76 130 -76 133 0 9 153 92 240
131 86 37 225 77 305 87 51 7 279 7 302 1z m1179 -265 c60 -23 86 -38 90 -53
4 -12 24 -56 45 -98 l38 -77 -42 16 c-103 40 -271 118 -394 185 -149 79 -145
73 -109 159 l15 36 136 -68 c75 -38 174 -83 221 -100z m-2064 17 c113 -169
150 -270 151 -411 1 -169 -57 -285 -173 -343 -130 -65 -259 -52 -350 36 -57
56 -75 109 -66 191 12 105 115 274 226 374 50 45 54 47 71 31 10 -9 33 -39 51
-66 23 -37 28 -52 19 -58 -7 -4 -47 -40 -88 -81 -122 -120 -163 -232 -108
-298 53 -62 139 -64 205 -5 46 42 66 82 78 157 20 126 -29 266 -148 421 -33
44 -60 82 -60 84 0 2 19 26 41 54 l42 49 24 -23 c14 -13 52 -63 85 -112z
m1436 25 c102 -78 151 -127 173 -176 22 -47 23 -74 7 -110 -18 -40 -52 -42
-95 -6 -78 66 -179 147 -201 161 l-23 15 27 88 c15 48 29 87 31 87 2 0 39 -26
81 -59z m-4518 -103 c98 -241 215 -452 375 -677 95 -133 148 -194 324 -373
l144 -147 -28 -41 -28 -40 -47 40 c-85 71 -295 295 -404 431 -220 273 -342
488 -435 766 -28 83 -51 156 -51 162 0 6 20 11 48 11 l48 0 54 -132z m4792 13
c199 -121 583 -278 893 -367 72 -20 132 -38 134 -40 9 -8 -133 -206 -222 -310
-227 -263 -480 -481 -747 -642 -174 -105 -154 -101 -178 -34 -12 31 -31 107
-43 167 -20 97 -23 140 -23 365 -1 238 9 375 35 517 8 41 15 52 33 57 94 24
118 131 54 252 -18 35 -20 74 -4 74 2 0 33 -17 68 -39z m-6374 -80 c126 -41
231 -107 400 -253 212 -183 342 -395 329 -533 -16 -161 -135 -300 -267 -312
l-57 -6 -7 45 c-4 25 -20 67 -37 93 -88 139 -403 377 -614 464 -41 17 -109 45
-150 62 -90 37 -105 59 -105 151 0 145 115 275 273 308 60 13 162 5 235 -19z
m6002 -30 c22 -16 70 -53 105 -83 74 -61 72 -46 41 -238 -40 -252 -36 -632 9
-852 28 -136 31 -128 -50 -154 -27 -9 -76 -29 -107 -45 -32 -15 -60 -24 -62
-21 -8 15 -36 153 -50 252 -36 252 -44 458 -25 660 17 192 74 510 91 510 4 0
26 -13 48 -29z m-4760 -313 c62 -18 252 -117 350 -183 178 -118 300 -253 300
-331 0 -39 -47 -105 -97 -138 -43 -28 -107 -45 -170 -46 l-43 0 0 78 0 79 39
15 c54 22 76 57 62 101 -31 93 -286 257 -400 257 -65 0 -80 -68 -27 -127 30
-34 34 -46 38 -105 2 -38 2 -68 0 -68 -15 0 -149 120 -184 163 -83 105 -107
195 -70 267 28 56 96 69 202 38z m6293 -7 c16 -6 10 -19 -45 -111 -77 -129
-128 -195 -256 -336 -225 -246 -564 -519 -812 -653 l-74 -40 -19 27 c-10 15
-24 39 -32 54 l-15 26 138 82 c146 88 286 188 392 279 209 180 435 427 540
590 l65 101 50 -7 c28 -3 58 -9 68 -12z m1285 -81 c17 -47 74 -206 126 -353
53 -148 98 -272 101 -277 2 -4 -23 -16 -56 -27 l-61 -20 -20 46 c-11 25 -72
174 -135 331 l-114 285 32 25 c17 14 46 37 63 52 17 14 32 26 32 25 1 -1 15
-40 32 -87z m-5498 -137 c246 -122 591 -262 707 -287 l32 -7 -6 48 c-6 59 19
119 64 149 45 29 128 25 180 -10 76 -51 113 -122 113 -220 0 -79 -18 -123 -69
-169 -47 -43 -90 -57 -191 -64 -210 -15 -678 115 -1053 292 -86 40 -85 39 -47
115 14 28 66 167 86 228 2 8 7 12 12 10 4 -2 82 -40 172 -85z m-3728 56 c183
-61 540 -285 655 -411 52 -57 85 -121 81 -156 -5 -39 -56 -69 -134 -77 -125
-14 -281 24 -502 122 -144 64 -181 72 -217 49 -39 -26 -56 -60 -65 -129 -9
-74 -29 -122 -50 -122 -22 0 -51 90 -57 177 -7 97 10 147 70 205 88 86 144 79
407 -52 182 -90 239 -105 258 -67 20 41 -9 92 -83 144 -120 85 -233 123 -370
123 -90 0 -105 -3 -153 -28 -125 -65 -175 -143 -180 -280 -4 -95 6 -147 46
-234 13 -29 20 -58 17 -64 -15 -23 -101 21 -147 76 -121 142 -83 455 75 622
110 117 215 148 349 102z m6196 -150 l-3 -161 -160 -64 c-181 -73 -379 -142
-505 -175 -66 -18 -112 -23 -210 -24 -120 0 -127 1 -179 30 -68 37 -107 85
-128 154 -33 115 21 218 137 261 134 50 240 -8 240 -130 l0 -42 33 7 c176 35
462 143 662 249 55 29 103 54 108 55 4 0 6 -71 5 -160z m-4347 55 c32 -15 63
-32 68 -38 10 -11 25 -138 37 -303 l7 -93 -86 0 -85 0 -7 68 c-9 93 -32 266
-45 331 -5 29 -10 58 -10 64 0 14 53 1 121 -29z m7688 -179 c178 -42 318 -189
329 -347 3 -39 1 -68 -5 -68 -5 0 -22 13 -37 29 -40 42 -129 78 -226 93 l-83
13 -44 130 c-24 72 -46 138 -49 148 -7 22 26 23 115 2z m-346 -122 c19 -49 49
-119 67 -158 l31 -70 -23 -18 c-109 -85 -188 -173 -287 -319 -101 -152 -201
-362 -201 -425 0 -12 9 -32 19 -42 17 -17 26 -18 53 -11 47 14 72 50 114 165
103 285 317 581 457 633 119 45 305 16 371 -57 l19 -21 -79 6 c-238 19 -384
-100 -600 -487 -110 -198 -119 -213 -172 -283 -110 -144 -250 -158 -293 -29
-7 21 -10 74 -7 132 5 117 12 135 174 412 66 113 122 221 130 251 18 70 18
150 -2 223 l-15 60 26 20 c29 22 166 104 176 104 4 1 23 -38 42 -86z m-7908
-225 c111 -324 151 -608 157 -1122 l3 -259 -40 -18 c-22 -10 -43 -18 -47 -18
-3 -1 -7 102 -7 227 -1 285 -18 551 -46 742 -21 135 -58 280 -115 450 l-50
148 22 53 22 53 28 -62 c16 -34 48 -121 73 -194z m7501 224 c85 -43 134 -132
134 -242 0 -86 -10 -110 -144 -333 -148 -247 -185 -348 -186 -513 0 -61 -19
-90 -87 -130 -41 -25 -58 -29 -123 -29 -88 0 -157 28 -234 96 -44 39 -115 133
-129 171 -8 21 30 169 79 309 45 131 148 346 204 429 69 102 174 205 244 241
55 28 68 30 131 26 44 -2 85 -12 111 -25z m-5246 -79 c188 -111 372 -214 510
-285 140 -72 322 -158 334 -158 3 0 6 16 6 35 0 89 58 145 150 145 66 0 128
-34 161 -87 31 -51 39 -193 15 -258 -21 -54 -72 -100 -128 -116 -68 -18 -190
-6 -298 30 -116 39 -406 181 -595 292 -168 98 -427 268 -423 278 2 3 29 52 62
109 l58 102 32 -18 c17 -11 69 -42 116 -69z m-2356 -167 c55 -166 89 -304 110
-447 23 -155 46 -535 46 -761 l0 -198 -34 -14 c-53 -22 -276 -96 -290 -96 -10
0 -12 91 -12 433 1 480 -5 556 -78 912 l-33 164 31 7 c54 11 100 40 151 96 28
30 53 52 56 49 4 -3 28 -69 53 -145z m5051 -20 c9 -54 14 -100 13 -101 -19
-15 -370 -190 -488 -243 -260 -117 -391 -155 -535 -156 -86 0 -108 4 -156 26
-108 49 -162 120 -175 229 -15 125 46 221 162 255 48 14 66 15 109 5 94 -21
174 -114 175 -202 0 -34 2 -36 28 -32 137 23 363 123 762 337 l85 45 3 -32 c1
-18 9 -77 17 -131z m-4133 64 c203 -26 337 -54 456 -94 82 -28 156 -59 171
-72 3 -3 -58 -104 -63 -104 -1 0 -42 14 -92 31 -111 38 -340 93 -459 111 -61
9 -194 13 -412 13 l-322 0 -15 56 c-9 30 -16 58 -16 62 0 8 107 13 377 15 172
2 257 -2 375 -18z m914 -75 c97 -48 147 -91 138 -119 -11 -36 -152 -242 -185
-271 -42 -35 -63 -29 -163 44 -106 77 -111 86 -85 136 30 56 147 213 172 230
31 22 46 19 123 -20z m-2136 20 c0 -3 9 -47 20 -98 82 -389 106 -652 95 -1047
-4 -146 -10 -290 -14 -320 -6 -54 -6 -55 -43 -61 l-38 -6 0 66 c0 36 5 171 11
299 17 354 -6 659 -74 999 -32 160 -32 162 -12 166 32 7 55 7 55 2z m2815
-384 c203 -157 387 -290 524 -378 l114 -74 31 30 c53 49 94 65 171 66 63 0 75
-3 117 -33 26 -18 62 -54 80 -80 30 -42 33 -54 33 -118 0 -61 -4 -77 -30 -119
-39 -62 -86 -87 -179 -93 -193 -12 -447 113 -901 443 -230 167 -391 294 -529
416 -6 5 5 30 27 61 56 83 70 123 56 162 -11 30 -10 37 10 64 l22 31 152 -131
c83 -71 219 -183 302 -247z m-2946 338 c24 -70 23 -71 -117 -108 -403 -106
-744 -313 -981 -598 -290 -347 -384 -642 -368 -1158 9 -276 40 -464 133 -805
141 -516 248 -784 408 -1025 79 -118 148 -190 192 -201 60 -15 249 118 458
323 201 197 304 336 450 607 47 88 88 161 90 163 5 5 88 -18 99 -27 5 -4 -17
-59 -49 -121 -158 -317 -310 -536 -495 -714 -159 -152 -456 -368 -526 -381
-126 -24 -246 116 -432 506 -173 363 -275 708 -350 1180 -107 677 -75 1101
107 1440 174 326 431 586 717 727 166 83 355 154 535 202 105 28 116 27 129
-10z m1376 -43 c135 -20 255 -49 406 -96 l126 -40 -1 -41 c-1 -38 -10 -53 -92
-148 -107 -125 -380 -393 -536 -526 -109 -94 -111 -95 -162 -94 -89 2 -135
-32 -179 -131 -29 -64 -53 -88 -123 -123 l-51 -26 -6 277 c-8 334 -29 534 -83
802 -13 69 -26 132 -27 140 -2 12 14 16 73 21 126 11 546 1 655 -15z m6035
-10 c0 -2 -14 -33 -30 -69 l-31 -65 -227 -5 c-227 -5 -312 -15 -484 -56 -175
-41 -426 -125 -520 -172 -21 -11 -39 -19 -41 -19 -7 0 -40 91 -35 95 2 3 56
26 119 53 263 114 583 201 839 231 75 8 410 14 410 7z m1617 -97 c314 -195
396 -270 460 -424 41 -98 47 -156 47 -465 1 -365 -4 -386 -87 -344 -122 62
-293 287 -400 526 -76 171 -92 300 -57 455 l11 52 62 -41 62 -41 0 -136 0
-136 37 -76 c39 -80 121 -169 156 -169 10 0 27 9 38 21 16 18 19 37 19 138 0
107 -3 120 -29 175 -45 92 -134 171 -360 321 -111 73 -209 141 -219 153 -19
21 -18 21 40 51 32 16 61 30 65 31 4 0 74 -41 155 -91z m-9003 39 c27 -130 36
-185 55 -348 33 -268 39 -508 21 -845 -7 -126 -15 -192 -23 -198 -18 -12 -274
0 -332 16 -55 16 -129 45 -160 64 -18 10 -18 14 -7 34 93 150 35 338 -126 412
-70 32 -218 31 -285 -2 -61 -30 -134 -100 -154 -148 -24 -58 -33 -149 -23
-230 9 -72 9 -76 -20 -127 -43 -76 -67 -154 -84 -269 -52 -354 -13 -749 110
-1124 70 -212 216 -475 297 -534 45 -33 65 -35 106 -15 52 27 214 213 345 394
56 77 197 311 208 343 2 6 32 -3 68 -19 36 -17 101 -42 145 -58 44 -15 81 -28
83 -29 5 -4 -170 -320 -221 -398 -29 -45 -82 -118 -118 -162 -148 -184 -438
-444 -565 -506 -58 -29 -63 -30 -91 -16 -97 50 -288 354 -388 617 -80 209
-219 689 -265 914 -38 187 -53 342 -53 571 -1 299 29 479 111 665 176 397 544
740 974 906 94 37 342 112 370 113 10 1 20 -8 22 -21z m5879 -110 c30 -39 119
-217 137 -271 15 -49 6 -59 -113 -133 -100 -62 -131 -76 -152 -68 -20 8 -110
151 -151 240 -20 43 -34 89 -34 111 0 37 3 40 67 77 77 45 156 75 195 76 19 0
34 -10 51 -32z m1437 19 c0 -2 -14 -41 -31 -88 -64 -173 -123 -401 -144 -553
-16 -122 -35 -397 -35 -518 0 -43 -2 -78 -5 -78 -3 0 -65 30 -138 66 -231 116
-381 227 -567 421 -137 142 -225 262 -292 398 l-49 99 43 22 c111 56 422 154
598 189 144 29 288 43 458 44 89 1 162 0 162 -2z m-8552 -27 c42 -26 41 -33
-3 -14 -44 18 -116 18 -161 -1 -19 -8 -32 -10 -28 -4 24 39 140 50 192 19z
m-24 -21 c56 -15 96 -59 96 -103 0 -81 -55 -126 -155 -126 -119 0 -186 81
-140 170 30 58 114 83 199 59z m6769 -61 c-4 -39 0 -67 15 -105 l20 -53 -86
-46 c-48 -26 -247 -133 -442 -239 -392 -213 -463 -247 -583 -277 -160 -40
-277 -8 -341 95 -24 39 -29 58 -29 115 -1 88 15 133 63 176 113 102 329 59
330 -66 0 -46 10 -47 110 -14 142 48 717 328 870 424 36 22 68 41 72 41 4 1 4
-23 1 -51z m-3531 -43 c34 -25 68 -49 76 -54 14 -8 12 -14 -11 -45 -91 -118
-482 -510 -657 -657 -70 -59 -272 -211 -275 -207 -2 2 9 62 23 134 l27 130
140 121 c143 123 512 493 575 576 19 26 37 47 39 47 2 0 30 -20 63 -45z m611
-188 c111 -86 331 -249 488 -362 157 -112 301 -221 319 -241 100 -114 112
-308 26 -402 -76 -85 -232 -73 -330 25 -61 62 -71 152 -24 235 12 21 20 39 17
41 -109 91 -597 457 -821 616 l-187 133 21 29 c18 23 29 29 61 29 34 0 45 7
95 58 l57 58 38 -31 c21 -16 129 -101 240 -188z m6050 44 c234 -208 409 -494
506 -826 92 -316 121 -509 121 -804 0 -412 -53 -695 -200 -1066 -62 -158 -95
-221 -180 -348 -148 -223 -209 -237 -465 -112 -315 153 -655 463 -887 807 -32
49 -61 95 -64 103 -4 9 10 22 43 39 l49 24 29 -46 c127 -203 380 -482 557
-615 149 -111 341 -219 416 -233 84 -16 172 48 272 198 142 212 234 485 297
875 13 84 17 174 17 403 1 323 -7 411 -54 600 -106 423 -251 665 -573 957
l-79 71 27 41 c27 41 27 41 55 24 16 -9 66 -50 113 -92z m-9990 5 c40 -8 57
-7 95 6 60 22 66 15 11 -12 -52 -27 -112 -23 -161 10 -18 12 -24 19 -13 14 11
-4 42 -12 68 -18z m9913 -103 c275 -254 400 -467 513 -875 33 -118 49 -221 62
-405 45 -637 -121 -1308 -398 -1605 -89 -94 -143 -102 -275 -41 -245 116 -492
322 -713 598 -84 105 -180 243 -173 250 4 4 228 105 233 105 1 0 29 -42 60
-92 78 -123 140 -201 224 -281 133 -125 263 -197 356 -196 81 0 106 22 167
144 104 206 165 492 175 815 10 348 -34 617 -142 845 -18 39 -38 94 -45 122
-32 140 -153 214 -299 183 -153 -32 -241 -154 -241 -335 l0 -72 -57 -26 c-52
-23 -192 -62 -198 -55 -9 10 20 250 40 342 29 135 50 215 58 222 3 3 22 1 42
-6 21 -7 63 -10 95 -8 101 7 161 71 304 323 56 98 92 152 100 148 6 -4 57 -49
112 -100z m-2973 31 c10 -20 36 -63 58 -96 22 -33 38 -62 37 -63 -2 -2 -91
-55 -199 -118 -363 -214 -579 -358 -818 -546 l-25 -19 27 -31 c36 -43 43 -89
22 -150 -38 -114 -172 -163 -306 -111 -68 25 -105 62 -125 123 -51 154 70 306
441 554 158 106 283 180 495 295 276 150 365 198 371 198 3 0 13 -16 22 -36z
m487 -96 c318 -471 774 -801 1250 -904 107 -23 453 -27 540 -6 83 21 181 53
223 74 l37 18 0 78 c0 144 51 241 149 285 54 24 145 26 186 4 112 -58 135
-182 62 -329 -43 -88 -125 -175 -229 -246 -196 -132 -361 -180 -662 -189 -268
-9 -434 24 -700 138 -348 149 -731 480 -1015 878 -45 63 -80 118 -79 122 3 8
188 128 198 129 3 0 21 -23 40 -52z m-3730 -217 c382 -299 624 -539 693 -691
24 -53 30 -78 30 -140 0 -153 -82 -240 -244 -257 -95 -10 -165 27 -213 111
-32 55 -39 102 -25 167 9 46 19 62 67 107 30 30 51 57 46 60 -6 4 -77 61 -160
128 -192 155 -389 303 -584 439 -85 59 -159 111 -164 116 -5 4 36 55 90 112
l98 105 135 -91 c75 -51 179 -125 231 -166z m4960 15 l36 -38 -17 -87 c-23
-116 -39 -282 -39 -409 0 -86 -2 -103 -14 -99 -8 3 -33 11 -55 17 -22 6 -43
15 -46 19 -9 15 15 474 30 584 8 56 15 107 15 112 0 6 12 -6 27 -25 15 -19 44
-52 63 -74z m-1457 -9 c31 -45 73 -102 91 -127 l34 -45 -160 -110 c-318 -217
-628 -462 -628 -496 0 -5 13 -15 30 -24 82 -42 82 -185 0 -278 -53 -59 -109
-82 -190 -74 -84 7 -138 41 -175 109 -56 100 -35 229 59 372 78 117 323 354
547 528 89 69 318 228 328 227 3 0 32 -37 64 -82z m-3917 -229 c218 -214 385
-404 461 -526 25 -40 59 -112 76 -160 26 -76 29 -96 24 -163 -6 -87 -29 -148
-78 -203 -56 -64 -104 -89 -173 -88 -103 0 -190 52 -231 138 -23 48 -31 142
-16 187 16 47 79 101 136 117 25 7 45 15 45 18 0 10 -193 233 -302 346 -62 66
-170 168 -241 228 -70 59 -127 111 -127 115 1 10 202 193 211 193 4 0 101 -91
215 -202z m5571 112 c59 -22 110 -25 161 -11 29 9 32 8 28 -7 -29 -99 -66
-354 -66 -461 l0 -74 -92 7 c-113 8 -220 24 -231 35 -11 11 10 375 28 471 25
131 19 123 73 89 25 -16 70 -38 99 -49z m343 57 c0 -6 -18 -93 -40 -192 -28
-125 -42 -216 -47 -297 l-6 -118 -60 0 -60 0 8 113 c8 129 15 181 47 330 l23
108 50 25 c27 14 54 30 60 35 13 13 25 11 25 -4z m-8415 -111 c51 -27 102
-102 111 -163 9 -59 -16 -141 -58 -188 -37 -43 -32 -50 55 -93 106 -52 166
-64 346 -69 178 -6 255 3 411 44 169 44 391 135 509 209 l44 27 -7 -44 c-4
-24 -9 -64 -12 -89 -11 -99 -4 -93 -216 -183 -294 -126 -496 -168 -802 -167
-302 0 -470 48 -632 178 -109 89 -154 173 -154 294 0 131 93 249 214 269 62
10 146 -1 191 -25z m1672 -11 c5 -14 -4 -68 -43 -277 -6 -32 -8 -33 -107 -92
l-79 -46 7 52 c11 93 47 242 69 288 11 25 36 55 55 67 39 27 89 30 98 8z
m5095 -241 l114 -111 -146 -91 c-130 -81 -402 -272 -440 -308 -12 -12 -11 -17
12 -41 58 -61 67 -161 22 -243 -41 -75 -79 -95 -184 -95 -78 0 -88 2 -122 28
-20 16 -47 49 -59 73 -18 39 -21 58 -17 132 6 113 30 163 128 266 85 90 559
508 571 504 4 -2 59 -53 121 -114z m-4840 16 c120 -80 438 -473 463 -572 9
-35 -20 -89 -102 -190 -89 -111 -295 -338 -306 -338 -12 0 -145 109 -201 165
l-45 45 110 141 c60 77 116 154 125 170 21 42 14 71 -20 88 -45 21 -189 -4
-376 -65 -93 -31 -237 -64 -281 -64 l-45 0 12 98 c7 53 13 115 14 138 l0 41
118 62 c129 70 264 155 390 249 46 34 87 62 91 62 4 0 28 -14 53 -30z m7348
-239 c41 -135 59 -242 71 -424 28 -424 -72 -933 -223 -1138 -44 -59 -121 -62
-232 -10 -164 79 -331 252 -474 492 l-22 37 32 13 c20 8 33 9 35 3 16 -47 112
-183 182 -256 160 -168 283 -242 370 -223 99 21 202 240 257 543 21 120 30
443 15 568 -14 111 -43 246 -65 299 l-15 35 -83 -83 c-89 -89 -245 -199 -351
-246 -125 -56 -299 -110 -360 -111 -29 0 -32 4 -41 60 l-6 36 72 12 c236 40
451 153 609 319 75 78 107 141 135 268 6 29 7 28 35 -34 16 -35 42 -107 59
-160z m-9588 -77 c63 -49 180 -116 263 -151 104 -45 167 -54 413 -60 262 -6
242 2 220 -94 l-12 -52 -166 6 c-350 14 -559 83 -808 267 -38 29 -43 25 -66
-55 -26 -86 -36 -177 -36 -313 0 -123 4 -171 31 -367 25 -180 102 -422 193
-605 83 -167 138 -226 203 -216 100 15 293 231 433 486 29 52 54 97 55 98 6 6
75 -19 75 -27 0 -13 -141 -254 -188 -321 -127 -180 -324 -403 -370 -421 -58
-22 -137 56 -232 227 -191 345 -296 834 -269 1259 15 223 43 346 105 453 l25
43 39 -58 c21 -32 63 -76 92 -99z m7319 90 c167 -125 456 -283 621 -339 l87
-30 6 -45 c3 -25 8 -57 10 -72 4 -28 4 -28 -55 -28 -87 0 -243 40 -329 85 -44
22 -87 22 -112 -1 -20 -17 -21 -26 -16 -104 6 -86 81 -380 160 -624 19 -58 32
-108 28 -110 -12 -7 -160 -36 -186 -36 -21 0 -29 8 -46 48 -78 178 -331 914
-369 1072 -25 108 -25 142 0 165 20 18 110 74 121 74 3 1 39 -24 80 -55z
m-2666 -100 c118 -55 155 -142 185 -436 11 -109 13 -846 3 -1101 l-6 -167 -51
0 c-88 -1 -136 -15 -168 -49 -16 -17 -36 -31 -44 -31 -16 0 -15 59 7 335 16
201 22 706 10 919 -6 109 -12 201 -15 203 -2 3 -18 -3 -35 -11 -50 -26 -166
-21 -228 9 -64 32 -88 73 -81 139 19 163 256 270 423 190z m-3115 -39 c0 -2
-7 -55 -16 -117 -36 -262 -77 -456 -142 -671 -20 -67 -30 -86 -42 -83 -8 3
-32 8 -52 12 -21 3 -38 11 -38 17 0 5 15 62 34 126 51 169 80 293 120 500 20
101 37 185 38 186 7 4 84 34 91 34 4 1 7 -1 7 -4z m-150 -221 c-37 -189 -87
-393 -130 -531 l-31 -100 -62 13 c-101 21 -237 73 -237 90 0 3 20 74 44 157
39 131 71 262 103 411 l8 39 100 27 c105 28 214 65 224 76 15 15 10 -33 -19
-182z m3820 126 c101 -19 160 -87 160 -183 0 -108 -53 -177 -136 -177 l-45 0
3 -630 3 -630 -52 0 c-29 0 -53 4 -53 10 0 17 -53 38 -113 45 l-58 7 6 607 c7
632 12 736 46 826 22 59 72 111 117 121 15 3 32 7 37 9 18 6 31 5 85 -5z
m-4140 -54 c0 -40 -116 -483 -149 -569 l-11 -28 -33 22 c-17 12 -33 23 -35 24
-1 1 11 42 27 91 39 117 67 227 89 349 16 90 20 100 42 106 29 8 70 11 70 5z
m8320 -196 c0 -120 -2 -131 -22 -150 -53 -49 -127 -8 -114 63 6 30 119 217
131 217 3 0 5 -58 5 -130z m-1227 81 c21 -5 41 -11 43 -14 3 -2 13 -65 24
-140 17 -113 44 -239 75 -343 6 -19 0 -24 -40 -37 -43 -15 -46 -15 -51 1 -3 9
-10 28 -14 42 -29 83 -86 301 -100 384 -20 120 -17 125 63 107z m-8039 -62 c3
-34 6 -99 6 -144 0 -98 -14 -118 -77 -113 l-38 3 -3 64 c-2 42 3 78 13 105 19
48 76 146 86 146 3 0 9 -28 13 -61z m1786 -24 c41 -105 111 -214 190 -294 56
-57 245 -192 288 -205 16 -5 14 -13 -21 -85 l-38 -80 -57 36 c-127 80 -210
138 -261 182 -71 60 -164 177 -207 262 -31 63 -84 205 -84 227 0 8 106 38 146
41 6 1 26 -37 44 -84z m6490 59 c124 -8 110 7 130 -129 11 -71 43 -216 55
-247 8 -20 -17 -32 -160 -79 -79 -26 -91 -28 -101 -15 -24 34 -94 375 -94 462
0 24 3 26 31 20 16 -3 79 -9 139 -12z m228 -29 c5 -49 32 -164 52 -223 l20
-55 -42 -39 c-23 -21 -45 -38 -49 -38 -12 0 -37 95 -62 243 -27 152 -28 147
43 144 31 -2 35 -5 38 -32z m516 -29 c-26 -76 -88 -188 -117 -209 -21 -17 -32
-19 -53 -11 -85 30 -42 115 113 222 32 23 61 41 65 41 4 1 0 -19 -8 -43z
m-8672 -101 c54 -105 54 -136 2 -156 -26 -9 -61 2 -76 25 -12 17 -9 145 4 188
11 37 13 39 26 22 7 -11 27 -46 44 -79z m3621 55 c147 -24 250 -125 292 -286
15 -58 36 -183 54 -319 10 -71 35 -754 29 -761 -2 -1 -46 -10 -98 -18 -52 -9
-119 -24 -148 -32 -29 -9 -55 -14 -56 -12 -2 1 1 95 5 208 12 264 -1 651 -26
815 l-5 31 -88 0 c-71 0 -96 4 -135 23 -110 53 -148 178 -84 271 53 78 130
102 260 80z m1650 -27 c52 -29 100 -86 118 -141 15 -46 -3 -131 -37 -171 -50
-60 -164 -91 -210 -56 -29 22 -32 19 -48 -37 -24 -83 -36 -297 -36 -621 l0
-299 -22 5 c-13 3 -74 11 -137 18 l-113 13 5 410 c7 537 23 651 112 780 44 64
105 114 156 127 58 14 158 1 212 -28z m3187 -5 c0 -7 -7 -22 -15 -32 -33 -43
-6 -130 43 -143 44 -11 63 -6 98 28 42 41 47 19 9 -40 -53 -86 -226 -200 -431
-286 -139 -58 -339 -158 -349 -175 -9 -15 20 -75 66 -135 23 -30 40 -58 37
-60 -2 -3 -25 -8 -50 -11 l-46 -6 -42 133 c-47 154 -71 229 -77 245 -6 16 44
37 201 84 237 71 334 135 404 267 45 85 153 178 152 131z m-8330 -23 c34 -17
71 -69 126 -175 66 -126 133 -177 320 -238 114 -38 190 -50 399 -62 200 -12
217 -15 240 -40 27 -30 14 -74 -61 -214 l-68 -126 -153 0 c-84 0 -153 2 -153
4 0 2 11 28 25 58 43 92 50 84 -135 143 -124 40 -298 108 -382 151 -136 69
-311 204 -344 266 -17 32 -18 42 -3 33 27 -17 81 -6 111 22 28 26 30 31 25 88
-3 33 -8 70 -12 83 -6 18 -4 22 14 22 12 0 35 -7 51 -15z m-377 -72 c33 -36
46 -95 47 -213 0 -112 11 -158 48 -201 32 -39 140 -90 240 -114 39 -10 72 -21
72 -26 0 -12 -40 -80 -73 -121 l-29 -38 -76 0 c-130 1 -228 53 -307 164 -84
120 -155 303 -155 402 l0 44 59 0 c33 0 67 3 76 6 22 9 45 57 45 94 0 38 18
39 53 3z m9017 8 c12 -24 72 -45 102 -36 13 4 33 17 46 28 l22 20 0 -59 c0
-69 -33 -169 -82 -252 -47 -81 -179 -210 -266 -262 -71 -42 -73 -42 -93 -24
-25 22 -93 114 -88 118 2 1 27 15 54 31 58 32 111 79 130 115 7 14 25 67 39
119 30 103 45 139 83 189 28 37 38 40 53 13z m-2289 -17 c32 -16 149 -140 149
-158 0 -13 -55 -37 -112 -50 -24 -5 -35 1 -71 39 -43 44 -45 45 -106 45 -99 0
-160 -42 -161 -112 0 -59 28 -72 143 -66 90 5 178 29 325 87 28 12 75 30 102
41 l50 20 25 -57 c14 -31 24 -62 21 -68 -2 -6 -35 -20 -73 -30 -37 -10 -156
-47 -263 -83 -231 -76 -277 -83 -346 -53 -59 27 -90 54 -115 103 -57 111 20
269 160 331 82 36 212 42 272 11z m924 -62 c54 -27 86 -56 132 -117 61 -79
107 -182 183 -400 70 -202 90 -247 121 -269 20 -14 25 -13 60 7 36 20 39 21
72 5 36 -17 67 -68 67 -110 0 -41 -37 -88 -87 -110 -40 -18 -51 -19 -87 -8
-55 16 -116 81 -160 172 -20 40 -68 162 -106 272 -100 279 -146 363 -228 413
-30 19 -52 23 -119 23 -91 0 -81 -9 -99 92 -6 36 -5 37 28 42 18 3 44 8 58 10
41 7 133 -5 165 -22z m-4969 -72 c56 -17 146 -48 199 -70 167 -68 227 -118
206 -173 -22 -58 -167 -150 -316 -203 -75 -26 -296 -32 -367 -9 -29 10 -56 20
-60 24 -4 3 8 33 26 66 37 66 25 63 153 47 97 -11 156 4 200 52 54 58 42 89
-52 132 -67 32 -122 31 -171 -2 -107 -71 -175 -177 -214 -331 -12 -49 -26 -53
-115 -30 -44 12 -50 16 -47 38 4 30 40 134 60 174 30 60 112 171 164 222 105
102 162 113 334 63z m821 -56 c67 -32 162 -134 201 -216 85 -181 131 -419 148
-768 l6 -145 -58 -13 c-55 -13 -181 -48 -209 -58 -9 -4 -14 43 -19 193 -7 188
-11 236 -37 413 -10 68 -56 260 -64 268 -2 2 -14 -3 -27 -11 -41 -26 -78 -29
-135 -11 -70 22 -137 85 -147 137 -34 181 157 299 341 211z m2534 26 c98 -27
153 -103 151 -206 -2 -109 -42 -163 -137 -184 -38 -9 -59 -7 -102 5 -30 9 -56
15 -58 13 -7 -8 -46 -143 -63 -218 -27 -115 -41 -236 -50 -412 -5 -81 -10
-150 -13 -153 -3 -2 -43 8 -90 24 -46 16 -103 32 -126 36 -24 4 -45 10 -47 13
-8 14 59 452 91 597 46 212 91 327 155 400 74 84 180 115 289 85z m-4178 -218
c37 -25 67 -47 67 -50 0 -2 -35 -47 -77 -99 -158 -192 -238 -307 -253 -362 -7
-27 -6 -49 5 -85 8 -27 15 -60 15 -74 0 -23 -2 -24 -52 -17 -80 11 -278 82
-278 100 0 17 312 589 367 673 l35 52 51 -46 c29 -26 82 -67 120 -92z m5077
-287 c-12 -232 -27 -333 -61 -402 -25 -52 -102 -139 -140 -158 -28 -15 -28
-15 -55 32 -15 27 -33 58 -40 70 -13 20 -11 24 28 50 91 61 118 153 125 439
l6 211 66 19 66 19 9 -30 c5 -17 3 -123 -4 -250z m840 120 c13 -38 38 -107 56
-153 22 -57 29 -84 21 -87 -7 -2 -50 -9 -97 -15 -47 -6 -141 -25 -210 -41
-240 -58 -475 -108 -539 -115 -61 -7 -64 -6 -57 12 5 10 10 67 13 125 l6 106
163 7 c177 7 283 23 406 62 90 29 135 63 175 135 15 26 31 45 34 41 4 -4 17
-38 29 -77z m-5800 -104 c633 -106 1138 -287 1362 -489 74 -67 87 -135 44
-220 -41 -79 -98 -124 -246 -196 -74 -35 -175 -90 -225 -122 -49 -31 -94 -57
-100 -57 -5 0 -46 23 -90 50 -44 28 -105 63 -135 78 -45 23 -51 29 -39 39 8 6
77 65 153 131 180 156 215 215 165 279 -43 54 -289 151 -559 219 -254 65 -375
90 -507 108 -51 6 -93 15 -93 18 0 15 131 181 142 181 7 0 65 -9 128 -19z
m4765 -148 c-15 -147 -41 -209 -101 -237 -47 -23 -68 -51 -61 -84 3 -16 38
-78 76 -138 39 -59 71 -112 71 -116 0 -4 -30 -23 -67 -42 -38 -19 -105 -59
-151 -90 -46 -31 -85 -56 -88 -56 -10 0 -98 146 -130 216 -19 40 -64 161 -99
268 -69 207 -82 289 -49 316 20 17 152 27 402 28 l204 2 -7 -67z m921 -157
c24 -43 44 -87 44 -97 0 -10 -14 -26 -30 -36 -17 -10 -33 -28 -37 -41 -3 -13
4 -87 17 -165 49 -318 50 -325 50 -653 0 -177 -3 -336 -6 -354 l-7 -32 -22 28
c-18 23 -31 29 -63 29 -45 0 -74 -20 -92 -66 -7 -16 -16 -29 -21 -29 -12 0
-11 237 1 340 6 47 20 143 32 215 15 92 19 154 15 215 -5 87 -13 115 -88 325
-41 114 -43 126 -43 234 l-1 114 70 16 c39 10 79 22 90 29 34 20 46 10 91 -72z
m-5560 18 c38 -8 72 -18 76 -20 13 -8 -71 -121 -122 -166 -53 -47 -125 -86
-195 -104 -66 -18 -242 -18 -346 1 -85 15 -124 25 -349 89 -69 20 -130 34
-137 32 -9 -4 -9 -14 3 -41 12 -30 13 -44 4 -71 -26 -79 -101 -99 -162 -45
-31 28 -33 33 -33 98 0 53 6 77 25 111 35 61 62 75 155 80 96 5 165 -10 300
-68 139 -59 204 -74 325 -75 100 0 108 2 172 34 43 21 90 57 130 97 34 35 68
64 75 64 6 0 42 -7 79 -16z m6053 -244 c375 -69 748 -235 983 -436 110 -95
120 -124 80 -235 -53 -151 -335 -576 -556 -839 -367 -437 -986 -861 -1407
-964 -238 -58 -612 -58 -877 0 -228 51 -551 177 -694 272 -42 27 -42 30 -3 91
l25 41 53 -31 c217 -128 542 -244 788 -280 53 -8 156 -10 302 -6 190 4 237 9
329 30 266 63 449 143 683 298 198 131 322 233 506 418 299 300 536 631 623
874 50 137 54 178 23 226 -50 75 -193 180 -353 259 -260 129 -567 202 -845
202 l-109 0 0 56 0 57 168 -6 c103 -3 211 -14 281 -27z m-6809 -55 c47 -12
116 -28 153 -36 62 -12 68 -15 62 -33 -3 -12 -15 -61 -25 -111 -52 -234 -34
-406 79 -775 39 -124 63 -260 47 -260 -3 0 -23 9 -43 20 -41 22 -61 19 -106
-12 -27 -19 -29 -19 -48 -2 -101 91 -153 515 -118 968 9 119 8 141 -5 154 -10
10 -44 16 -109 20 l-94 5 19 51 c27 69 24 67 66 49 20 -9 75 -26 122 -38z
m3472 37 c15 -15 19 -286 5 -334 -13 -50 -49 -63 -167 -63 -147 0 -178 8 -196
50 -15 38 -31 267 -20 309 12 47 51 56 218 53 105 -1 151 -6 160 -15z m2547
-24 c26 -70 36 -61 -133 -117 -213 -70 -377 -142 -531 -232 l-130 -76 -42 20
c-24 12 -43 24 -43 27 0 3 44 35 98 70 172 114 446 240 662 305 96 29 109 30
119 3z m-2277 -28 c271 -18 472 -59 791 -161 l128 -41 -18 -27 c-42 -63 -122
-193 -125 -203 -2 -6 -38 1 -98 20 -221 70 -452 112 -730 133 -80 6 -145 11
-146 12 -1 1 1 64 4 140 4 123 6 137 23 137 9 0 86 -5 171 -10z m-708 -107 c4
-54 9 -119 12 -145 7 -53 22 -46 -146 -68 -550 -73 -1122 -306 -1475 -602
-245 -204 -385 -411 -402 -590 -8 -86 -3 -92 54 -60 96 54 256 26 326 -57 37
-44 50 -95 45 -165 -15 -180 -192 -308 -369 -266 -168 40 -279 160 -330 357
-22 86 -26 216 -10 301 23 116 120 303 225 430 154 189 578 489 882 626 243
109 699 249 999 305 81 15 158 29 171 30 8 1 14 -33 18 -96z m3572 77 c170
-14 299 -41 463 -96 219 -74 405 -175 528 -287 75 -69 86 -97 68 -174 -78
-334 -507 -899 -940 -1236 -125 -98 -339 -237 -453 -296 -246 -125 -530 -190
-839 -191 -212 0 -345 23 -608 106 -104 33 -383 163 -433 202 l-23 18 97 139
c197 284 294 397 513 599 195 180 317 280 336 273 22 -9 111 -122 155 -196 44
-76 46 -81 28 -81 -24 0 -107 -62 -133 -100 -40 -58 -65 -143 -65 -219 0 -55
5 -75 30 -118 36 -63 71 -89 162 -119 120 -41 329 -28 520 32 343 107 730 433
945 794 212 357 235 486 100 564 -119 70 -336 124 -535 133 -76 4 -125 10
-128 17 -4 13 -34 214 -34 233 0 16 67 17 246 3z m-518 -123 c23 -57 44 -121
48 -143 l6 -39 -72 -18 c-123 -32 -312 -121 -471 -223 l-67 -42 -95 72 c-53
40 -119 88 -147 106 l-52 33 54 34 c82 53 204 118 298 159 70 31 430 162 451
163 3 1 24 -46 47 -102z m-1222 -137 c-41 -43 -101 -118 -135 -168 -72 -107
-85 -117 -137 -99 -54 18 -62 36 -38 88 47 107 185 292 262 355 l56 46 33 -72
33 -73 -74 -77z m-4405 159 c304 -60 548 -156 872 -342 l77 -44 -38 -26 -39
-25 -59 35 c-112 68 -349 179 -474 221 -148 50 -338 95 -470 113 -52 7 -96 13
-97 14 -1 1 2 18 8 38 10 37 10 37 63 37 30 0 100 -9 157 -21z m-505 -15 c-3
-9 -6 -26 -6 -38 0 -22 -5 -23 -88 -29 -242 -17 -579 -151 -872 -345 -132 -87
-213 -159 -243 -217 -31 -58 -29 -161 3 -235 120 -273 444 -665 744 -899 167
-130 407 -286 548 -356 284 -140 697 -247 1021 -264 438 -23 740 68 1083 326
43 32 84 61 90 66 15 9 91 -91 78 -102 -106 -91 -248 -193 -325 -232 -453
-228 -1003 -234 -1669 -17 -364 118 -636 287 -993 616 -293 270 -539 571 -680
832 -127 235 -78 331 293 576 366 241 612 328 939 333 72 1 82 -1 77 -15z
m484 -86 c290 -54 524 -141 796 -296 l81 -46 -75 -54 c-41 -29 -102 -76 -134
-104 l-58 -51 -54 36 c-186 123 -442 223 -661 257 -38 6 -85 13 -102 16 l-33
5 0 78 c0 43 5 103 11 135 l12 57 56 -6 c31 -4 103 -16 161 -27z m-498 -105
c-2 -65 -5 -123 -7 -129 -2 -6 -49 -16 -106 -23 -245 -30 -424 -102 -552 -221
-151 -141 -163 -250 -52 -469 63 -126 136 -223 251 -337 268 -265 569 -431
969 -534 218 -56 274 -61 730 -64 74 0 98 4 136 22 54 26 138 111 167 168 44
86 47 207 7 284 -56 108 -215 177 -349 152 l-48 -10 5 34 c9 52 51 137 113
231 l56 83 32 -22 c256 -182 621 -542 909 -899 l37 -47 -87 -65 c-319 -236
-549 -321 -903 -334 -271 -10 -529 29 -840 124 -248 76 -409 152 -626 295
-362 237 -600 459 -831 775 -251 345 -276 517 -96 656 269 207 632 379 898
426 89 16 106 18 151 20 l40 1 -4 -117z m6733 26 c165 -22 351 -87 410 -143
66 -62 56 -153 -35 -330 -132 -260 -237 -404 -427 -586 -274 -264 -555 -410
-841 -438 l-77 -8 76 76 c126 125 178 261 165 433 -16 191 -99 371 -245 527
-34 36 -61 65 -61 66 0 1 25 18 55 38 l55 36 71 -107 c39 -60 95 -157 124
-218 99 -204 126 -309 134 -530 7 -189 7 -189 109 -125 177 111 429 333 548
481 141 176 278 426 308 562 9 40 -33 76 -131 115 -124 50 -218 71 -365 84
-146 12 -147 13 -148 72 0 18 6 18 103 12 56 -4 134 -11 172 -17z m-1619 -63
c357 -177 643 -432 763 -681 45 -93 59 -143 70 -243 10 -102 -2 -173 -43 -256
-39 -79 -88 -135 -152 -172 -150 -88 -334 16 -334 188 0 105 66 199 166 237
27 11 50 26 52 34 5 26 -47 124 -109 207 -125 166 -316 311 -609 463 -63 33
-117 61 -119 63 -11 10 155 222 175 223 5 1 68 -28 140 -63z m-1296 33 c240
-20 506 -72 669 -131 52 -19 65 -28 68 -47 2 -14 9 -31 15 -38 33 -40 122 -58
167 -33 13 6 24 10 26 8 2 -2 -51 -52 -117 -113 -246 -224 -486 -510 -661
-787 -34 -54 -64 -98 -67 -98 -16 0 -132 186 -190 305 -109 224 -184 488 -215
755 -16 136 -14 149 21 150 6 0 20 10 32 23 23 25 32 25 252 6z m-670 -27 l22
-18 -17 -89 c-48 -257 -161 -596 -277 -830 -65 -131 -159 -295 -169 -295 -3 0
-55 57 -115 127 -205 240 -442 484 -647 669 l-78 70 113 56 c282 141 714 274
1018 313 131 17 125 17 150 -3z m3050 -27 c0 -32 -4 -45 -14 -45 -8 0 -53 -11
-101 -25 -105 -31 -242 -98 -347 -170 l-76 -53 -29 30 c-28 29 -28 30 -8 45
44 33 211 127 293 165 83 38 243 96 270 97 8 1 12 -14 12 -44z m-2706 -67 c35
-410 180 -813 399 -1109 l19 -27 -38 -66 c-22 -36 -41 -66 -44 -66 -8 0 -119
180 -173 280 -152 282 -244 611 -281 1007 l-5 52 52 4 c29 2 55 4 58 5 4 1 10
-35 13 -80z m-240 65 l38 -6 -7 -50 c-32 -247 -134 -613 -234 -846 -40 -92
-205 -418 -220 -434 -5 -4 -32 19 -60 52 l-52 60 54 93 c138 235 231 451 317
738 40 132 90 343 90 379 0 23 10 25 74 14z m3486 -48 c6 -3 10 -24 10 -46 0
-21 7 -84 15 -139 13 -87 13 -107 0 -167 -35 -165 -60 -246 -92 -297 l-25 -38
-24 36 c-14 20 -35 38 -47 41 -12 3 -40 9 -62 13 l-40 8 2 62 c2 45 14 88 45
164 l41 103 1 139 1 139 83 -6 c45 -3 87 -9 92 -12z m-6740 -74 c0 -28 -1 -29
-72 -35 -228 -22 -397 -85 -501 -188 -95 -94 -122 -186 -93 -313 21 -88 54
-152 123 -238 168 -209 421 -400 743 -562 70 -35 250 -105 270 -105 6 0 10 69
10 170 0 354 60 554 249 835 121 179 98 165 180 116 39 -23 72 -45 75 -49 3
-5 -19 -45 -49 -89 -68 -102 -135 -235 -170 -338 -32 -94 -44 -263 -26 -357
13 -74 56 -181 93 -236 41 -59 122 -139 165 -161 l37 -18 -58 -7 c-194 -25
-636 79 -901 212 -354 177 -630 425 -769 691 -119 231 -109 334 48 478 118
108 280 174 507 207 141 21 139 21 139 -13z m403 14 c250 -48 445 -123 640
-248 l58 -37 -32 -27 -32 -27 -31 19 c-244 145 -471 232 -658 252 -69 7 -74
10 -83 51 -6 31 -6 32 27 32 18 0 68 -7 111 -15z m-448 -327 l0 -223 28 -58
c16 -32 62 -100 103 -152 77 -98 104 -146 104 -190 0 -34 -11 -32 -49 10 -32
35 -41 39 -96 35 -37 -2 -50 -13 -83 -64 l-25 -40 -39 44 c-59 66 -117 170
-151 268 -28 83 -30 95 -31 257 0 94 3 200 7 237 l9 67 36 7 c41 8 136 21 167
23 20 1 20 -5 20 -221z m4927 191 l42 -21 -24 -20 c-335 -269 -672 -676 -935
-1130 l-79 -137 -53 -11 c-30 -7 -57 -10 -62 -8 -13 4 235 421 337 567 98 141
261 339 387 470 104 108 323 311 337 311 5 0 28 -10 50 -21z m130 -70 c40 -23
106 -64 147 -92 l75 -50 -31 -26 c-16 -14 -71 -60 -122 -101 -163 -131 -401
-388 -559 -601 -77 -104 -214 -311 -282 -426 l-42 -73 -38 30 c-49 39 -129 74
-202 89 l-57 12 83 143 c239 412 515 756 825 1027 67 60 124 109 126 109 2 0
36 -19 77 -41z m-3094 -156 c272 -225 608 -595 940 -1036 l112 -148 -67 3 -67
3 -65 85 c-141 186 -415 521 -503 615 -107 115 -250 254 -423 409 -66 60 -119
110 -118 113 2 5 65 52 71 53 2 0 56 -44 120 -97z m31 -181 c267 -244 450
-449 759 -852 l112 -145 -46 -7 c-60 -9 -131 -53 -169 -105 -16 -23 -32 -42
-35 -42 -3 0 -53 64 -111 142 -232 310 -611 715 -869 927 -69 57 -125 106
-125 110 0 10 78 76 158 134 l79 56 26 -21 c15 -11 114 -100 221 -197z m3340
150 l34 -28 -74 -59 c-375 -299 -620 -582 -909 -1048 l-73 -118 -30 30 -30 30
43 73 c200 339 391 589 645 844 147 148 325 303 350 304 6 0 26 -13 44 -28z
m-3715 -237 c198 -161 481 -447 701 -710 100 -120 285 -362 285 -373 -1 -4 -9
-22 -19 -40 l-17 -34 -95 114 c-52 62 -149 178 -216 258 -234 281 -445 493
-708 713 -66 55 -122 102 -124 104 -10 8 63 72 73 65 6 -5 60 -48 120 -97z
m4792 37 c18 -36 -2 -116 -54 -222 l-47 -95 -3 142 c-3 171 8 206 61 201 21
-2 35 -11 43 -26z m210 -15 c49 -42 20 -87 -133 -204 -40 -31 -75 -54 -77 -52
-9 9 95 245 115 261 29 24 63 22 95 -5z m-6234 -127 c16 -22 18 -41 16 -144
l-3 -119 -47 84 c-58 106 -75 158 -58 188 16 30 66 25 92 -9z m-221 -245 c34
-51 122 -225 117 -230 -10 -11 -138 66 -190 114 -67 62 -75 95 -33 137 37 37
73 29 106 -21z m3265 -106 c41 -19 107 -79 86 -79 -6 0 -14 5 -18 11 -17 28
-100 52 -174 52 -74 0 -157 -24 -174 -52 -10 -16 -2 -14 41 12 32 19 52 22
133 22 83 0 101 -3 139 -25 53 -30 79 -63 91 -113 17 -77 -16 -145 -91 -187
-38 -22 -56 -25 -139 -25 -83 0 -101 3 -140 25 -63 35 -90 80 -90 148 0 39 6
65 22 91 13 20 23 42 23 50 0 23 89 81 137 90 55 10 102 4 154 -20z m-170
-399 c73 -15 143 -5 212 32 l57 30 -25 -27 c-86 -92 -225 -106 -322 -32 -52
40 -63 66 -13 33 20 -14 61 -30 91 -36z m845 -58 c61 -29 159 -126 159 -156 0
-13 -9 -31 -21 -42 -34 -30 -71 -102 -85 -163 -21 -86 -17 -165 17 -338 25
-132 30 -175 27 -265 -4 -94 -8 -114 -34 -165 -72 -140 -240 -206 -396 -155
-113 38 -228 158 -266 281 -24 79 -24 363 0 477 63 289 185 481 345 540 58 22
196 14 254 -14z m-1130 -76 c76 -17 143 -58 181 -109 102 -139 176 -396 185
-645 6 -167 -5 -241 -49 -325 -39 -72 -92 -120 -177 -161 -58 -27 -76 -31
-151 -31 -74 0 -92 4 -138 28 -178 94 -244 261 -192 487 12 52 29 124 37 160
8 36 15 108 16 160 1 87 -2 101 -30 159 l-31 65 22 50 c40 91 87 132 181 162
52 16 78 17 146 0z m1512 -140 c75 -31 158 -178 217 -384 18 -62 46 -133 62
-159 34 -53 29 -76 -17 -81 -42 -5 -71 5 -110 40 -46 40 -64 75 -114 229 -23
70 -50 134 -60 143 -27 24 -56 19 -85 -15 -46 -55 -34 -144 37 -265 72 -122
173 -194 272 -194 75 0 143 45 223 145 77 97 172 195 189 195 17 0 43 -93 43
-154 0 -28 -7 -82 -15 -120 -58 -274 -281 -430 -567 -395 -145 17 -330 98
-312 137 4 9 9 76 12 147 3 118 1 143 -27 268 -18 80 -31 166 -31 206 0 120
42 216 110 252 41 23 126 25 173 5z m-1964 -71 c106 -54 130 -203 69 -424 -27
-100 -32 -133 -32 -241 -1 -133 5 -163 54 -261 l28 -57 -36 -16 c-82 -35 -217
-44 -327 -21 -177 37 -342 172 -416 340 -22 49 -35 184 -22 227 l8 28 75 -51
c41 -27 107 -66 145 -86 61 -31 79 -36 140 -36 171 0 295 142 295 338 0 84
-16 115 -60 115 -45 0 -66 -32 -89 -134 -34 -147 -90 -248 -146 -262 -55 -14
-57 17 -14 153 34 106 109 263 157 329 48 66 114 89 171 59z m3058 -271 c56
-32 66 -51 13 -24 -54 27 -157 30 -214 6 -50 -21 -43 -30 9 -11 83 29 189 13
242 -37 48 -45 50 -138 4 -184 -79 -80 -253 -74 -320 12 -30 38 -29 110 3 157
13 19 22 37 20 39 -10 11 50 52 93 63 58 15 95 10 150 -21z m-4088 -163 c20
-11 43 -27 50 -35 10 -12 2 -11 -34 5 -39 17 -62 21 -121 17 -44 -3 -83 -11
-98 -22 -29 -19 -35 -11 -8 11 56 46 147 56 211 24z m31 -52 c51 -29 70 -63
70 -123 0 -118 -168 -183 -299 -117 -63 33 -90 92 -71 161 11 42 50 78 105 99
47 17 146 7 195 -20z m4080 -90 c-67 -57 -145 -62 -227 -14 -51 31 -53 44 -2
18 51 -27 162 -24 214 4 54 29 56 28 15 -8z m-4195 -184 c59 0 89 5 115 19 28
15 32 16 22 3 -22 -27 -96 -57 -138 -57 -44 0 -112 28 -134 55 -14 17 -13 17
20 -1 26 -14 56 -19 115 -19z"/>
<path d="M2526 10394 c-57 -21 -102 -58 -133 -112 -24 -40 -28 -58 -28 -123 0
-123 17 -143 280 -331 121 -86 226 -157 233 -157 8 -1 11 10 7 37 -3 20 -10
136 -16 257 -12 249 -12 252 -47 318 -56 104 -183 153 -296 111z m129 -35 c40
-11 115 -56 115 -69 0 -4 -21 4 -47 17 -41 21 -59 24 -123 21 -45 -2 -89 -10
-109 -21 -19 -9 -36 -15 -38 -13 -8 8 59 49 100 62 53 16 54 16 102 3z m73
-68 c80 -41 107 -136 60 -211 -12 -19 -23 -41 -24 -48 -6 -33 -89 -73 -152
-73 -54 -1 -89 11 -132 43 -45 33 -36 38 17 12 61 -31 158 -33 222 -4 24 11
41 23 38 26 -3 3 -20 -2 -39 -12 -23 -12 -56 -18 -108 -18 -131 -1 -200 55
-200 163 0 50 3 57 39 91 22 21 57 42 78 48 57 16 152 8 201 -17z"/>
<path d="M2574 10236 c-34 -15 -58 -63 -47 -94 33 -93 163 -78 163 19 0 61
-60 99 -116 75z"/>
<path d="M9550 9164 c-124 -31 -233 -59 -244 -63 -15 -6 20 -38 190 -174 258
-206 296 -222 418 -177 96 36 156 124 156 229 -1 135 -107 241 -240 240 -31 0
-152 -24 -280 -55z m365 -3 c22 -10 49 -28 60 -41 l20 -22 -45 23 c-63 34
-188 34 -242 2 -43 -26 -52 -15 -10 13 76 50 146 58 217 25z m21 -47 c57 -27
87 -68 92 -126 3 -44 0 -59 -20 -87 -63 -93 -243 -109 -333 -30 -77 68 -63
188 27 235 67 35 168 38 234 8z m-108 -306 c61 0 81 5 157 41 6 2 4 -3 -3 -12
-21 -25 -112 -67 -145 -67 -50 0 -106 22 -145 56 l-37 33 53 -26 c41 -20 67
-26 120 -25z"/>
<path d="M9765 9028 c-21 -25 -25 -38 -21 -62 8 -39 31 -63 66 -71 80 -18 134
82 75 140 -36 37 -86 34 -120 -7z"/>
<path d="M1807 8946 c-134 -48 -203 -204 -147 -334 30 -69 93 -126 161 -146
30 -8 119 -25 199 -36 80 -12 168 -25 195 -30 99 -17 147 -21 144 -13 -2 5
-61 113 -132 240 -137 248 -176 297 -255 321 -51 16 -117 15 -165 -2z m202
-70 c51 -36 54 -53 4 -23 -55 32 -180 32 -243 -2 l-45 -23 20 22 c59 66 187
79 264 26z m-40 -22 c97 -28 143 -100 120 -186 -11 -43 -62 -91 -114 -108 -51
-17 -152 -9 -200 16 -61 32 -88 77 -83 142 4 45 10 59 40 89 23 22 54 40 84
49 65 17 91 17 153 -2z m58 -298 c-71 -63 -166 -70 -246 -18 -53 34 -53 45 0
19 61 -30 162 -28 226 5 63 33 64 33 20 -6z"/>
<path d="M1835 8765 c-53 -52 -16 -139 60 -139 81 0 111 101 46 151 -27 21
-79 15 -106 -12z"/>
<path d="M10155 7989 c-56 -28 -100 -74 -123 -128 -19 -46 -29 -149 -48 -500
l-7 -124 159 121 c290 222 308 237 331 277 53 93 50 183 -10 272 -63 94 -203
132 -302 82z m192 -44 c28 -15 57 -33 65 -42 7 -9 9 -14 3 -12 -5 3 -28 14
-50 24 -64 30 -167 27 -230 -8 l-50 -28 25 27 c60 65 153 80 237 39z m23 -47
c65 -33 93 -79 88 -146 -8 -91 -79 -143 -199 -143 -153 -1 -242 99 -191 213
16 37 29 50 73 71 71 36 164 37 229 5z m-110 -303 c59 0 85 5 120 24 43 23 44
23 26 3 -29 -33 -98 -62 -147 -62 -49 0 -115 27 -142 58 -18 20 -18 20 25 -1
33 -17 61 -22 118 -22z"/>
<path d="M10199 7821 c-17 -18 -29 -40 -29 -56 0 -37 50 -85 88 -85 42 0 82
40 82 82 -1 37 -14 59 -47 76 -35 19 -63 14 -94 -17z"/>
<path d="M6785 1714 c-180 -257 -195 -292 -175 -390 24 -113 125 -194 242
-194 32 0 73 6 92 14 85 35 156 138 156 226 0 38 -129 520 -149 558 -5 8 -64
-68 -166 -214z m150 -153 c22 -10 48 -27 58 -39 18 -20 18 -20 -25 1 -62 32
-176 30 -238 -2 -42 -22 -44 -22 -26 -3 51 58 156 78 231 43z m36 -54 c54 -29
82 -75 81 -132 0 -63 -24 -99 -84 -129 -95 -48 -225 -30 -288 38 -21 23 -25
37 -25 91 0 71 18 100 85 136 54 28 173 26 231 -4z m28 -273 c-33 -36 -95 -64
-144 -64 -44 0 -132 37 -155 65 -8 10 -10 16 -5 14 6 -3 28 -13 50 -24 27 -12
63 -19 110 -19 58 0 78 4 115 26 57 33 58 33 29 2z"/>
<path d="M6795 1435 c-41 -40 -33 -105 16 -130 39 -21 64 -19 95 9 21 18 28
32 28 61 0 74 -88 112 -139 60z"/>
<path d="M5882 1813 c-5 -10 -49 -119 -98 -243 -99 -254 -107 -297 -65 -383
43 -88 124 -139 222 -139 160 0 283 154 241 304 -10 38 -272 477 -284 478 -4
0 -11 -8 -16 -17z m156 -342 c21 -10 45 -28 55 -39 16 -17 12 -16 -32 5 -69
34 -163 35 -231 1 -60 -30 -65 -21 -10 17 70 48 144 54 218 16z m-15 -32 c86
-24 139 -108 117 -187 -24 -92 -153 -143 -271 -108 -86 25 -129 76 -129 152 0
113 139 183 283 143z m-83 -314 c70 0 92 4 123 22 50 30 47 13 -4 -23 -79 -54
-203 -42 -264 26 -20 22 -20 22 20 -1 34 -20 54 -24 125 -24z"/>
<path d="M5915 1371 c-60 -25 -75 -92 -30 -136 45 -46 125 -24 141 39 8 35
-20 82 -57 95 -18 6 -32 11 -33 10 -1 0 -10 -4 -21 -8z"/>
</g>
</svg>
