<?xml version="1.0" standalone="no"?>
<!DOCTYPE svg PUBLIC "-//W3C//DTD SVG 20010904//EN"
 "http://www.w3.org/TR/2001/REC-SVG-20010904/DTD/svg10.dtd">
<svg version="1.0" xmlns="http://www.w3.org/2000/svg"
 width="1280.000000pt" height="824.000000pt" viewBox="0 0 1280.000000 824.000000"
 preserveAspectRatio="xMidYMid meet">
<metadata>
Created by potrace 1.15, written by Peter Selinger 2001-2017
</metadata>
<g transform="translate(0.000000,824.000000) scale(0.100000,-0.100000)"
fill="#000000" stroke="none">
<path d="M6610 8209 c-118 -42 -241 -74 -389 -101 -110 -20 -160 -22 -396 -22
-211 0 -295 4 -385 18 -138 21 -327 60 -428 88 -68 18 -75 18 -98 3 -15 -9
-49 -65 -86 -139 l-61 -122 -95 -12 c-288 -37 -646 -180 -848 -340 -109 -86
-214 -380 -259 -725 -22 -170 -20 -278 5 -309 10 -14 107 -96 215 -182 107
-86 195 -158 195 -160 0 -4 -72 -160 -75 -164 -2 -2 -30 14 -62 36 -342 232
-821 295 -1405 186 -76 -15 -142 -32 -149 -40 -8 -10 -2 -29 30 -85 23 -39 41
-72 41 -74 0 -3 -36 12 -80 32 l-81 36 -30 -29 c-17 -16 -46 -62 -66 -101 -33
-66 -36 -80 -35 -155 1 -196 115 -389 389 -663 l128 -127 -58 7 c-81 9 -190
41 -269 77 l-68 31 -67 -36 c-129 -68 -283 -96 -633 -117 -218 -13 -349 -31
-442 -60 -114 -35 -198 -116 -198 -190 0 -91 118 -244 258 -335 41 -26 158
-87 260 -135 190 -89 338 -166 346 -179 3 -4 -79 -17 -182 -30 -713 -86 -1046
-132 -1089 -151 -67 -30 -116 -73 -182 -161 -118 -155 -189 -298 -232 -465
-19 -74 -23 -115 -23 -239 -1 -224 37 -371 155 -610 71 -146 106 -191 158
-205 35 -9 57 -5 197 39 333 104 673 194 911 241 l111 22 73 -22 c41 -12 125
-42 189 -67 375 -148 696 -340 1222 -728 563 -416 766 -543 988 -622 73 -25
100 -43 67 -43 -7 0 -46 -16 -86 -35 -57 -27 -97 -58 -175 -134 -129 -126
-210 -168 -385 -201 -51 -10 -55 -9 -110 25 -213 131 -555 152 -964 60 -134
-30 -449 -117 -443 -122 2 -2 107 -30 232 -63 755 -193 1383 -385 1791 -545
216 -86 204 -87 463 35 664 313 1167 509 1551 605 l146 36 89 -15 c321 -55
620 -45 964 30 159 35 410 120 584 198 81 37 149 66 152 66 3 0 33 -20 68 -45
330 -235 823 -460 1236 -565 412 -104 885 -143 1316 -110 222 17 224 18 224
49 l0 28 -117 6 c-248 14 -480 94 -708 244 -262 173 -489 400 -864 865 l-151
187 28 15 c87 45 208 18 344 -76 15 -11 34 5 140 108 200 196 438 361 806 560
243 131 246 135 197 336 -14 57 -31 157 -37 223 -10 103 -9 134 6 220 36 215
161 380 359 476 37 18 47 28 45 44 -3 18 -20 23 -158 47 -85 14 -161 27 -167
27 -7 1 114 126 268 279 l281 277 141 78 c194 107 743 380 1147 571 184 87
345 168 358 179 36 33 87 124 117 207 54 153 43 317 -33 470 -49 99 -63 106
-179 86 -388 -66 -846 -82 -1172 -41 -260 33 -525 105 -728 200 -104 49 -137
53 -204 30 -161 -57 -425 -105 -577 -105 -95 0 -210 15 -224 28 -4 4 18 38 48
76 164 205 202 442 88 550 -65 62 -205 115 -369 142 -118 18 -377 21 -510 4
-329 -40 -673 -155 -939 -314 -54 -32 -82 -43 -86 -36 -4 7 -10 39 -14 73 -3
34 -13 89 -22 124 -8 34 -14 69 -12 77 2 8 75 98 163 201 268 313 428 539 456
646 11 40 10 50 -7 85 -17 34 -32 46 -123 90 -128 64 -278 114 -441 148 -69
15 -250 67 -403 117 -265 87 -281 93 -350 145 -96 74 -325 186 -386 190 -32 3
-71 -5 -131 -27z m225 -60 c80 -33 222 -112 245 -136 14 -14 -15 -15 -322 -9
-439 8 -705 -13 -1028 -83 -102 -23 -344 -53 -554 -71 -73 -6 -148 -19 -175
-29 -25 -10 -117 -61 -205 -115 -87 -53 -160 -96 -161 -94 -2 2 38 69 88 149
51 80 119 201 152 268 56 114 62 122 85 118 14 -3 95 -21 180 -41 543 -124
1019 -108 1484 49 109 37 107 37 211 -6z m12 -260 c556 -246 896 -458 972
-606 36 -72 31 -89 -65 -198 -510 -581 -905 -1297 -1200 -2179 -40 -120 -75
-220 -77 -222 -3 -3 -8 16 -12 42 -17 114 -89 324 -161 466 -110 219 -344 529
-553 732 -46 46 -49 51 -35 70 16 24 18 69 4 96 -12 23 -45 32 -210 61 -69 12
-130 26 -136 31 -7 5 -15 28 -18 51 -4 23 -18 66 -32 96 -29 63 -28 64 56 82
135 30 295 7 468 -65 59 -24 157 -65 217 -90 240 -99 432 -100 630 -2 78 39
104 59 186 143 142 146 241 286 361 506 l53 98 98 44 c114 51 216 115 252 157
34 40 34 96 0 128 -25 23 -25 23 -40 4 -18 -24 -18 -29 0 -44 24 -20 18 -36
-31 -79 -45 -39 -230 -139 -240 -129 -3 3 5 34 17 69 27 80 36 197 19 239 -19
45 -48 61 -220 120 -85 29 -197 68 -249 86 -72 26 -97 31 -107 23 -8 -6 -14
-15 -14 -20 0 -4 60 -53 133 -108 163 -122 206 -165 191 -189 -13 -20 -144
-132 -155 -132 -4 0 -10 19 -14 43 -11 65 -51 162 -92 225 -50 76 -189 219
-280 289 -64 49 -81 57 -126 61 -171 14 -569 -169 -822 -378 -68 -56 -72 -58
-155 -68 -210 -27 -364 -21 -519 20 -189 50 -188 50 -249 33 -73 -21 -113 -46
-186 -115 -70 -66 -96 -114 -96 -176 0 -67 24 -109 109 -194 l75 -74 -50 28
c-81 47 -192 135 -241 193 l-46 54 17 54 c33 107 141 234 271 321 155 105 464
283 505 293 25 6 128 18 230 27 207 18 366 41 545 77 66 14 185 33 265 42 80
9 154 18 165 19 11 2 118 4 237 5 l217 1 138 -61z m578 -29 c149 -50 324 -102
390 -115 169 -35 275 -67 414 -126 145 -61 171 -79 171 -121 0 -92 -198 -369
-553 -772 -66 -75 -92 -116 -160 -252 l-81 -163 -76 -3 c-68 -3 -75 -5 -78
-25 -2 -11 15 -56 36 -100 l40 -78 -160 -204 c-277 -355 -510 -681 -693 -971
-54 -85 -102 -159 -107 -165 -13 -15 105 327 177 510 92 234 173 413 294 650
270 526 551 922 930 1307 139 143 162 170 151 183 -7 8 -17 15 -24 15 -6 0
-54 -43 -107 -96 l-95 -95 -13 43 c-18 59 -156 195 -286 280 -133 88 -338 198
-543 293 -92 43 -171 81 -176 86 -6 5 51 9 135 9 l144 0 270 -90z m-2777 -117
c-44 -71 -91 -144 -103 -163 -13 -20 -55 -62 -94 -93 -169 -137 -257 -303
-278 -522 l-6 -65 -35 57 c-44 72 -97 193 -113 256 -8 35 -16 47 -26 43 -8 -3
-19 -6 -24 -6 -17 0 -9 -44 24 -130 63 -165 163 -314 321 -478 109 -114 237
-202 441 -302 265 -131 480 -196 880 -268 31 -5 40 -12 40 -27 0 -25 -38 -38
-193 -64 -287 -49 -622 -54 -834 -12 -200 40 -379 111 -528 209 -79 52 -486
372 -508 400 -11 13 -12 41 -8 117 14 218 59 443 123 615 71 191 89 213 265
317 123 73 250 130 384 173 112 35 261 68 316 69 l38 1 -82 -127z m1869 -49
c173 -139 264 -243 322 -364 31 -64 36 -85 36 -144 l0 -69 -110 -58 c-60 -32
-113 -59 -117 -59 -5 0 -8 10 -8 23 0 42 -50 126 -97 162 -61 47 -171 90 -289
114 -124 25 -384 51 -516 51 -54 0 -98 3 -98 6 0 10 42 43 155 119 166 112
314 182 509 241 108 32 152 28 213 -22z m640 -245 c61 -21 116 -39 121 -39 6
0 20 -12 32 -27 44 -55 14 -185 -95 -408 -69 -141 -189 -332 -275 -435 -187
-224 -324 -300 -540 -300 -124 0 -230 26 -373 91 -320 145 -524 181 -701 121
l-58 -20 -33 37 c-18 20 -33 37 -32 38 1 1 107 26 234 57 731 174 1210 343
1498 531 91 58 219 165 235 196 16 28 -15 75 -93 140 -34 29 -66 57 -72 62
-13 12 13 4 152 -44z m-2287 -125 c182 -53 393 -68 584 -39 116 17 223 19 431
5 421 -29 628 -96 686 -225 37 -81 32 -88 -88 -136 -146 -56 -367 -129 -575
-188 -273 -77 -270 -77 -384 -56 -216 38 -414 99 -537 163 -117 60 -192 152
-185 225 l3 32 344 3 344 2 86 -31 c128 -47 308 -125 380 -166 56 -31 62 -37
45 -46 -10 -6 -67 -13 -126 -15 l-108 -5 -52 41 c-79 60 -144 97 -233 133
l-80 32 -230 -7 c-132 -4 -234 -11 -239 -16 -7 -7 -7 -16 0 -28 15 -23 130
-101 223 -150 l76 -40 290 -13 c377 -16 445 -9 663 69 39 14 132 85 132 100 0
4 -9 13 -20 19 -16 11 -23 9 -45 -13 -28 -28 -120 -74 -149 -74 -10 0 -44 15
-75 34 -89 54 -164 89 -346 162 l-170 69 -344 3 c-373 3 -391 1 -416 -49 -19
-35 -19 -43 0 -107 33 -111 165 -212 372 -283 72 -25 269 -77 348 -91 18 -4
-65 -26 -261 -72 l-62 -14 -63 45 c-35 25 -111 68 -169 97 -123 60 -255 152
-357 249 -131 125 -135 183 -22 296 73 73 142 109 209 110 19 0 73 -11 120
-25z m-425 -461 c78 -53 180 -103 338 -169 201 -83 276 -129 385 -236 64 -63
123 -165 137 -235 l6 -32 -53 15 c-248 72 -453 159 -649 274 -102 60 -144 92
-237 184 -96 94 -115 118 -127 160 -15 50 -21 197 -8 209 3 4 38 -24 77 -61
39 -38 98 -87 131 -109z m1055 89 c47 -23 76 -40 65 -36 -119 34 -303 45 -391
23 -41 -11 -47 -10 -87 17 l-42 29 110 6 c212 12 250 7 345 -39z m3 -77 c37
-10 66 -19 64 -22 -7 -6 -321 15 -342 23 -18 7 -18 8 1 16 29 12 201 2 277
-17z m3852 -236 c129 -16 229 -43 315 -86 116 -59 145 -123 116 -260 -24 -116
-83 -218 -196 -338 -157 -168 -391 -504 -532 -765 -60 -110 -264 -573 -317
-717 -87 -238 -147 -522 -158 -746 l-6 -128 -56 -53 c-31 -29 -102 -95 -159
-146 l-103 -93 -133 17 c-205 27 -417 36 -567 26 -74 -5 -141 -9 -149 -10 -8
0 77 93 190 206 143 143 232 224 292 265 463 314 731 704 833 1213 26 132 45
285 45 367 0 63 31 178 73 272 25 57 28 70 16 78 -8 5 -19 9 -25 9 -12 0 -63
-107 -83 -175 -7 -22 -14 -46 -16 -52 -3 -9 -15 -5 -41 12 -47 32 -95 45 -164
45 -63 0 -84 -10 -78 -36 3 -16 11 -18 48 -16 63 4 133 -15 180 -49 l41 -30
-6 -87 c-10 -144 -34 -300 -65 -426 -17 -65 -30 -121 -30 -124 0 -16 -19 18
-30 53 -39 124 -170 337 -289 470 -196 219 -335 501 -396 799 -29 141 -41 118
105 204 269 160 616 270 960 305 82 9 302 6 385 -4z m-1544 -238 c28 -255 72
-443 143 -616 68 -163 182 -351 271 -444 172 -181 345 -494 345 -623 0 -68
-138 -314 -260 -463 -110 -135 -301 -304 -451 -399 l-26 -16 -21 51 c-86 206
-314 377 -670 500 -138 47 -376 109 -517 134 -55 10 -103 20 -107 24 -4 4 35
78 88 166 202 338 476 729 788 1130 94 120 177 227 183 236 11 15 7 29 -22 91
l-35 73 57 5 58 5 74 145 c85 165 84 165 102 1z m-4518 -165 c133 -25 252 -63
355 -111 100 -48 235 -132 230 -145 -2 -4 -34 -75 -72 -158 -61 -133 -72 -151
-90 -147 -23 5 -241 28 -731 75 -298 28 -626 66 -629 72 -9 13 -94 218 -90
218 2 0 21 -7 43 -16 52 -20 82 -15 100 17 14 25 13 30 -22 88 -25 42 -33 63
-24 66 24 8 196 37 303 50 147 19 506 13 627 -9z m821 -120 c350 -220 806
-283 1370 -189 l160 26 121 -124 c355 -365 574 -740 645 -1104 11 -58 20 -119
20 -136 0 -34 8 -34 -140 7 -402 110 -901 349 -1690 808 -324 189 -398 217
-665 252 -71 9 -131 18 -133 19 -2 1 37 90 86 196 49 107 99 218 112 247 12
28 24 52 25 52 2 0 42 -24 89 -54z m-1846 -226 c33 -80 65 -163 72 -185 23
-72 107 -278 170 -413 34 -74 59 -136 57 -138 -2 -3 -53 46 -112 108 -266 277
-374 498 -325 666 13 48 61 126 70 115 4 -4 34 -73 68 -153z m8385 16 c330
-145 621 -204 1062 -213 279 -6 433 3 700 39 88 12 178 22 200 22 40 1 40 0
73 -67 40 -81 66 -210 57 -282 -16 -128 -92 -300 -149 -334 -17 -10 -159 -78
-316 -152 -375 -176 -935 -454 -1146 -569 -719 -393 -1300 -819 -1754 -1286
-64 -66 -212 -238 -330 -384 -393 -485 -583 -691 -685 -740 -77 -37 -577 -130
-1330 -245 -329 -51 -476 -80 -639 -125 -128 -36 -287 -98 -376 -146 -85 -47
-202 -136 -240 -184 -30 -37 -30 -38 -9 -51 18 -13 25 -9 79 43 184 179 515
304 1015 382 618 96 786 124 1005 162 341 60 476 91 532 121 109 59 269 232
674 728 194 239 292 349 426 480 353 347 689 610 1146 898 83 53 152 96 152
94 0 -1 -175 -177 -388 -392 -536 -539 -797 -850 -1167 -1392 -105 -154 -114
-164 -212 -237 -182 -137 -420 -279 -613 -367 -52 -23 -96 -43 -97 -44 -9 -4
12 -45 23 -45 22 0 230 101 349 170 127 73 287 178 397 262 48 36 116 75 185
104 396 168 663 365 833 610 50 73 52 78 35 90 -10 8 -22 14 -25 14 -3 0 -25
-30 -49 -67 -69 -107 -246 -276 -386 -369 -154 -103 -445 -251 -445 -228 0 11
201 294 328 464 220 291 445 555 698 819 l119 124 115 -17 c177 -27 170 -23
108 -64 -93 -62 -173 -154 -223 -256 -54 -110 -75 -209 -75 -348 0 -118 10
-189 47 -339 34 -143 34 -145 -122 -227 -388 -205 -663 -392 -872 -595 l-91
-89 -44 26 c-135 79 -262 86 -368 21 -19 -12 -51 -27 -70 -35 -19 -7 -161 -67
-315 -133 -640 -272 -927 -369 -1260 -428 -127 -22 -404 -31 -477 -16 -37 8
-38 7 -38 -22 l0 -29 77 -8 c43 -4 138 -4 213 -1 368 16 787 143 1520 460 96
42 176 75 178 73 6 -6 -171 -141 -283 -216 -159 -106 -314 -191 -545 -298
-267 -123 -391 -171 -567 -222 -286 -81 -466 -104 -765 -97 -254 5 -372 22
-463 67 -90 43 -198 70 -312 77 -57 3 -103 9 -103 13 0 21 234 104 361 130 52
10 56 13 51 35 -5 29 -2 29 -98 9 -85 -17 -223 -64 -299 -100 l-50 -25 52 48
c42 39 50 52 42 66 -6 9 -15 17 -22 17 -23 0 -104 -79 -143 -139 -40 -62 -67
-77 -111 -60 -25 9 -38 47 -29 82 3 13 117 123 272 262 l267 240 346 189 c190
103 412 228 492 276 l146 87 843 764 842 764 197 123 c325 205 460 267 1241
569 377 145 785 308 893 357 33 14 104 37 158 51 117 29 265 83 364 132 135
67 275 148 275 159 0 6 -7 17 -15 24 -12 10 -31 2 -104 -39 -175 -101 -412
-200 -538 -226 -29 -6 -33 -4 -33 16 0 59 -88 150 -218 226 -43 26 -45 26 -58
8 -8 -10 -14 -21 -14 -24 0 -3 28 -22 63 -42 114 -68 190 -151 174 -193 -9
-22 -177 -91 -1207 -492 -318 -124 -529 -213 -653 -276 l-100 -50 7 49 c40
301 23 577 -51 840 -25 92 -25 94 -8 140 49 134 194 398 327 596 74 111 267
367 276 367 4 0 41 -7 82 -16 177 -38 441 -14 711 65 74 22 138 40 142 40 5 1
63 -23 130 -53z m-8096 -166 c152 -18 855 -88 1258 -126 184 -17 324 -43 427
-80 40 -15 183 -91 318 -169 952 -555 1483 -793 1953 -875 569 -99 937 -245
1128 -447 59 -63 117 -143 103 -143 -4 0 -20 12 -37 26 -40 33 -148 88 -216
108 -162 48 -303 42 -556 -24 -192 -50 -365 -85 -487 -100 -137 -17 -346 -9
-425 17 -41 14 -158 81 -340 196 -1298 818 -2028 1189 -2691 1366 l-113 30 -8
-22 c-5 -12 -6 -25 -2 -28 3 -3 52 -18 108 -33 632 -166 1411 -559 2608 -1317
160 -100 315 -196 345 -211 97 -49 169 -62 340 -62 188 1 317 21 628 100 338
86 495 85 677 -5 69 -35 175 -110 182 -129 2 -4 -48 -25 -110 -46 -400 -139
-724 -318 -930 -516 -182 -173 -276 -375 -277 -589 l0 -84 -89 86 c-336 324
-918 592 -1751 805 -169 43 -702 260 -1025 416 -186 90 -334 173 -492 275
l-103 66 0 85 c0 159 -49 328 -146 508 -31 58 -39 80 -27 73 10 -5 77 -58 148
-117 226 -188 449 -424 617 -656 63 -86 73 -95 89 -85 11 7 19 16 19 22 0 6
-39 62 -86 125 -216 288 -489 558 -794 785 -65 48 -113 91 -125 114 -92 165
-313 681 -292 681 3 0 81 -9 174 -20z m-279 -665 c88 -37 197 -63 296 -71 l86
-7 56 -86 c123 -189 195 -383 210 -562 4 -43 4 -79 2 -79 -3 0 -66 38 -139 85
-157 100 -468 257 -624 314 -137 51 -313 103 -442 131 -119 26 -345 60 -355
54 -5 -3 -8 -15 -8 -27 0 -21 7 -24 126 -40 359 -49 726 -172 1071 -358 65
-35 224 -134 353 -220 129 -86 284 -184 344 -219 156 -89 440 -227 661 -320
180 -75 228 -104 99 -59 -138 48 -564 174 -744 220 -356 92 -736 172 -1175
249 l-280 49 -100 57 c-55 32 -188 99 -295 150 -299 140 -368 187 -457 307
-75 103 -75 164 1 216 89 60 199 84 456 101 256 17 398 30 484 46 87 17 222
63 258 89 26 18 27 17 116 -20z m6681 -392 c42 -181 54 -311 47 -508 -3 -99
-12 -213 -19 -254 l-12 -74 -168 -105 c-92 -58 -170 -102 -173 -99 -9 9 16
253 37 367 26 138 80 332 127 461 49 132 125 309 133 309 3 0 16 -44 28 -97z
m-6864 -658 c732 -131 1322 -273 1800 -435 66 -22 192 -56 280 -76 656 -146
1171 -312 1550 -497 288 -141 466 -265 621 -433 55 -59 193 -202 307 -319
l209 -213 -93 -57 c-52 -32 -101 -60 -109 -61 -9 -2 -31 17 -51 45 -94 124
-287 230 -542 299 l-102 27 -6 110 c-13 225 -94 358 -279 458 -152 82 -373
125 -755 146 -277 16 -686 -18 -895 -74 -30 -8 -60 -15 -66 -15 -7 0 -1 54 18
153 34 180 33 201 -3 205 -24 3 -46 -19 -184 -177 l-156 -181 -234 0 c-261 0
-403 -10 -675 -46 -310 -42 -705 -126 -1030 -220 -69 -19 -197 -51 -285 -70
-298 -64 -667 -163 -936 -250 -131 -42 -150 -43 -182 -4 -65 76 -161 287 -202
443 -83 312 -32 609 152 885 84 126 165 205 233 227 84 26 1260 175 1345 170
39 -2 160 -20 270 -40z m5415 -500 c-149 -149 -212 -206 -235 -211 -76 -16
-228 -70 -305 -109 -96 -48 -223 -140 -289 -208 -38 -39 -42 -48 -31 -62 19
-23 27 -19 83 36 65 64 172 141 257 184 72 36 208 87 222 83 4 -2 -152 -163
-347 -358 -195 -195 -357 -351 -361 -348 -3 4 -8 42 -11 85 -10 150 41 317
141 458 137 191 435 398 781 543 128 53 277 111 290 111 5 1 -82 -91 -195
-204z m574 -250 c60 -8 111 -16 112 -18 4 -4 -1272 -1160 -1284 -1165 -4 -1
-93 83 -197 188 l-190 190 399 399 c439 439 391 402 543 421 98 13 489 3 617
-15z m-4167 -242 c-17 -90 -28 -165 -25 -169 4 -3 66 8 140 25 418 94 849 106
1298 35 403 -63 580 -236 580 -565 0 -86 13 -98 156 -137 136 -38 272 -96 359
-152 58 -38 175 -150 175 -168 0 -4 -154 -91 -341 -192 l-341 -185 -260 -233
c-243 -218 -262 -232 -291 -227 -18 3 -75 12 -127 20 -359 59 -679 192 -923
383 -55 43 -59 45 -75 28 -16 -17 -15 -20 28 -58 173 -155 504 -308 825 -381
l110 -26 -116 0 c-213 -2 -822 69 -970 113 -247 72 -459 198 -979 582 -534
394 -775 548 -1090 698 -117 55 -324 139 -373 151 -33 9 -35 21 -4 28 12 2
128 32 257 65 565 146 966 203 1450 207 l285 2 140 161 c76 89 140 160 141
159 1 -1 -12 -75 -29 -164z m5058 -1545 c555 -698 930 -1007 1354 -1114 l74
-19 -49 -7 c-120 -16 -458 -3 -692 27 -570 73 -1104 272 -1604 597 -60 39
-108 73 -108 77 1 3 54 32 118 63 221 107 499 291 682 452 47 41 90 75 95 75
6 0 64 -68 130 -151z m-4473 -462 c331 -42 427 -49 641 -49 l207 0 0 -42 c0
-71 59 -116 133 -100 65 14 229 17 312 6 89 -12 215 -47 215 -59 0 -4 -43 -17
-95 -30 -351 -85 -882 -292 -1506 -588 -112 -53 -221 -100 -242 -105 -40 -10
-40 -10 -262 76 -353 136 -967 325 -1583 486 -112 29 -197 56 -190 60 21 11
252 66 383 91 172 32 452 32 573 0 158 -41 214 -76 435 -270 65 -57 142 -118
170 -136 29 -19 70 -48 92 -66 164 -132 381 -155 633 -68 54 19 61 24 56 42
-4 12 -8 23 -10 25 -3 3 -39 -7 -82 -22 -119 -40 -236 -54 -325 -39 -98 17
-154 45 -299 148 -105 76 -308 245 -315 263 -2 3 30 14 70 23 39 10 110 36
157 59 68 34 102 60 175 133 97 97 162 139 260 167 83 24 173 23 397 -5z"/>
</g>
</svg>
