<?xml version="1.0" standalone="no"?>
<!DOCTYPE svg PUBLIC "-//W3C//DTD SVG 20010904//EN"
 "http://www.w3.org/TR/2001/REC-SVG-20010904/DTD/svg10.dtd">
<svg version="1.0" xmlns="http://www.w3.org/2000/svg"
 width="1280.000000pt" height="1280.000000pt" viewBox="0 0 1280.000000 1280.000000"
 preserveAspectRatio="xMidYMid meet">
<metadata>
Created by potrace 1.15, written by Peter Selinger 2001-2017
</metadata>
<g transform="translate(0.000000,1280.000000) scale(0.100000,-0.100000)"
fill="#000000" stroke="none">
<path d="M6210 12759 c70 -38 105 -72 133 -128 19 -40 22 -60 20 -152 -4 -197
-62 -386 -253 -834 -87 -204 -309 -697 -319 -707 -11 -12 -224 139 -234 164
-19 49 -58 216 -77 327 -30 179 -49 385 -60 656 -5 136 -12 250 -16 254 -12
10 5 -547 21 -699 17 -167 46 -343 74 -447 10 -40 15 -73 11 -73 -13 0 -239
172 -314 239 -98 87 -172 176 -209 251 -28 56 -32 75 -32 142 0 43 -3 70 -7
60 -4 -9 -7 -44 -7 -77 -1 -69 26 -142 79 -220 68 -100 284 -296 458 -414 52
-35 60 -45 90 -119 33 -81 95 -186 125 -210 15 -13 14 -18 -9 -69 -29 -68 -94
-269 -94 -295 0 -24 -13 -23 -36 3 -26 30 -264 242 -346 309 l-68 55 0 70 c1
64 11 191 25 305 4 40 4 41 -5 15 -14 -42 -40 -245 -40 -311 0 -29 -2 -54 -5
-54 -3 0 -43 29 -90 64 -185 142 -388 266 -509 311 -87 33 -97 27 -11 -7 122
-49 366 -210 582 -385 20 -16 23 -33 33 -145 25 -322 114 -538 335 -818 l62
-80 7 -142 c4 -79 11 -186 17 -238 9 -91 8 -99 -17 -160 -32 -78 -54 -191 -54
-273 0 -252 124 -617 341 -1002 46 -83 79 -163 134 -325 40 -118 104 -299 143
-401 73 -195 272 -662 279 -656 2 3 -33 94 -78 203 -127 311 -347 919 -336
930 1 1 39 -52 84 -120 80 -120 231 -326 261 -356 8 -8 -13 26 -47 75 -35 50
-91 133 -126 185 l-62 95 18 105 c35 202 52 409 52 645 1 381 -43 618 -157
844 l-27 52 72 137 c99 189 110 207 119 191 28 -51 99 -302 134 -475 68 -333
91 -605 91 -1069 -1 -389 -10 -553 -51 -928 -14 -126 -24 -231 -21 -233 10
-11 67 420 89 676 18 208 18 889 0 1070 -37 376 -88 629 -184 912 l-39 116 64
129 c159 317 201 530 138 695 -43 111 -237 286 -539 484 -2 1 26 69 63 150
281 619 436 1018 479 1226 9 44 16 126 16 190 0 97 -3 120 -24 163 -26 57 -66
94 -137 131 -68 34 -75 30 -9 -7z m-517 -1807 c42 -29 77 -54 77 -56 0 -2 -10
-27 -23 -56 l-23 -53 -32 39 c-29 34 -102 170 -102 188 0 8 3 6 103 -62z m224
-154 c239 -172 350 -275 400 -371 22 -42 27 -70 31 -143 5 -100 -10 -182 -54
-306 -30 -83 -144 -328 -153 -328 -3 0 -27 45 -53 98 -26 54 -72 137 -102 185
l-54 86 23 73 c12 40 26 100 30 133 17 153 -54 331 -191 484 l-44 49 24 56
c14 31 29 56 33 56 5 0 54 -33 110 -72z m-620 -195 c76 -68 169 -151 207 -186
l68 -63 -20 -145 c-12 -79 -24 -203 -28 -276 l-7 -131 -42 52 c-161 197 -261
400 -304 614 -25 125 -38 266 -23 261 6 -2 73 -59 149 -126z m508 37 c94 -122
145 -250 145 -362 0 -49 -32 -204 -45 -216 -3 -3 -15 8 -27 24 -12 16 -76 84
-142 151 l-120 123 18 77 c18 73 58 194 87 255 15 33 21 29 84 -52z m-84 -437
c58 -60 119 -127 137 -150 l32 -41 -34 -74 c-18 -40 -63 -135 -100 -211 l-66
-139 -67 82 -66 83 6 156 c6 156 34 401 47 401 3 0 53 -48 111 -107z m247
-312 c54 -90 142 -270 142 -290 0 -17 -172 -361 -180 -361 -3 1 -24 33 -46 73
-23 40 -69 109 -103 155 -33 45 -61 85 -61 90 0 16 194 410 201 407 3 -3 25
-36 47 -74z m-348 -276 l51 -64 -40 -91 c-23 -49 -41 -96 -42 -103 0 -6 -4 0
-9 14 -9 31 -25 309 -17 309 3 0 28 -29 57 -65z m145 -190 c33 -47 79 -118
102 -158 l43 -72 -40 -101 c-56 -143 -71 -205 -77 -325 -9 -159 19 -285 94
-434 41 -81 115 -185 169 -235 27 -26 21 -15 -24 43 -157 199 -219 381 -209
611 5 126 28 220 84 346 l25 55 30 -65 c117 -253 162 -590 139 -1026 -10 -191
-37 -483 -46 -492 -3 -3 -116 179 -138 223 -8 17 -33 94 -56 172 -108 371
-208 822 -252 1138 l-22 160 53 123 c29 67 56 122 59 122 3 0 33 -38 66 -85z
m-180 -410 c37 -248 127 -649 209 -930 19 -66 33 -121 30 -124 -6 -7 -147 291
-192 409 -52 134 -89 261 -108 375 -20 113 -14 293 12 380 17 57 19 59 26 30
4 -16 14 -79 23 -140z"/>
<path d="M8648 12356 c101 -110 107 -198 25 -366 -71 -146 -181 -279 -458
-555 -233 -233 -643 -621 -649 -614 -35 42 -146 224 -146 240 0 39 31 232 52
324 48 214 131 476 234 738 68 172 71 183 43 132 -36 -66 -163 -389 -217 -555
-62 -188 -96 -322 -122 -477 -11 -64 -22 -118 -24 -120 -7 -8 -121 183 -187
314 -37 73 -76 168 -88 211 -37 139 -24 264 37 337 l17 20 -24 -20 c-51 -43
-66 -91 -66 -205 1 -88 5 -118 29 -185 39 -115 101 -240 194 -397 l82 -136 4
-109 c2 -61 12 -140 21 -177 l17 -67 -64 -67 c-35 -37 -92 -102 -125 -144
l-61 -77 -131 266 -131 265 64 132 c35 72 78 155 95 184 17 28 29 52 26 52 -9
0 -95 -139 -147 -239 -27 -53 -51 -97 -53 -99 -1 -1 -28 41 -60 95 -134 226
-289 433 -368 495 -39 30 -38 28 14 -27 104 -112 219 -280 344 -503 l55 -98
-35 -97 c-100 -280 -107 -520 -23 -850 l40 -157 -50 -138 c-27 -75 -60 -173
-73 -216 -20 -69 -32 -90 -96 -165 -41 -49 -90 -121 -113 -167 -118 -236 -147
-612 -88 -1131 9 -77 9 -140 0 -265 -24 -332 -35 -755 -25 -993 9 -209 10
-218 11 -95 2 93 6 140 15 149 10 11 10 13 0 7 -16 -9 -17 152 -3 434 17 342
33 529 42 490 4 -19 21 -100 38 -180 35 -170 81 -352 87 -346 3 2 -11 76 -30
163 -50 225 -51 232 -34 252 28 33 128 203 201 343 134 257 230 503 282 723
21 90 27 144 31 293 l5 183 62 54 c135 118 231 194 235 184 6 -20 -20 -276
-44 -417 -64 -378 -228 -881 -437 -1335 -105 -231 -289 -586 -405 -784 -14
-24 -23 -43 -20 -43 18 0 239 385 357 620 357 713 548 1334 585 1907 l7 102
73 61 c100 82 243 226 300 302 27 35 64 96 83 137 45 93 55 202 27 297 -24 84
-99 230 -204 397 l-91 145 72 69 c40 38 161 153 269 256 360 343 607 610 705
762 50 79 104 208 111 267 4 29 0 63 -10 93 -19 54 -79 140 -110 157 -13 7 -5
-8 21 -36z m-1158 -1480 l52 -78 -38 -39 c-21 -21 -41 -39 -45 -39 -15 0 -31
69 -36 160 -4 63 -2 92 4 85 6 -5 34 -45 63 -89z m-455 -265 c50 -108 96 -208
102 -222 10 -23 8 -32 -15 -65 -57 -85 -169 -295 -220 -414 l-15 -35 -13 45
c-46 153 -67 279 -72 430 -5 178 9 277 60 439 l32 101 24 -42 c14 -23 66 -130
117 -237z m617 12 c151 -243 211 -381 212 -488 1 -144 -72 -268 -280 -472 -79
-78 -152 -147 -163 -152 -18 -10 -20 -5 -26 87 -3 53 -15 149 -25 212 l-19
114 34 38 c158 175 192 369 110 635 l-24 78 41 42 c23 24 45 43 48 43 3 0 44
-62 92 -137z m-181 -65 c19 -67 23 -108 24 -213 0 -127 -1 -132 -33 -200 -37
-77 -111 -180 -122 -168 -3 4 -14 35 -24 68 -10 33 -43 117 -73 187 l-55 128
67 85 c85 109 175 206 185 200 4 -3 18 -42 31 -87z m-199 -501 c38 -116 39
-119 21 -139 -10 -12 -88 -83 -173 -160 l-155 -138 -28 87 c-17 53 -26 101
-23 120 6 42 119 277 193 400 l57 97 34 -75 c19 -41 52 -127 74 -192z m52
-194 c13 -43 26 -158 32 -274 l7 -125 -154 -131 -154 -130 -13 71 c-6 39 -24
122 -38 184 -14 62 -24 116 -22 120 2 5 66 65 143 134 77 69 149 135 159 147
23 26 33 27 40 4z m-414 -193 l23 -80 -79 -74 c-43 -41 -80 -73 -82 -71 -5 4
102 305 109 305 3 0 16 -36 29 -80z m59 -222 c12 -51 27 -133 34 -183 l14 -90
-75 -80 c-142 -151 -212 -267 -253 -421 -32 -116 -32 -316 0 -437 23 -88 47
-157 56 -157 2 0 -2 17 -9 39 -53 150 -65 381 -27 526 41 157 124 295 249 419
l60 58 7 -70 c15 -155 -38 -437 -129 -680 -51 -137 -158 -378 -219 -492 -91
-173 -141 -260 -147 -260 -10 0 -40 214 -40 280 1 181 98 807 181 1165 68 296
64 287 171 387 51 48 96 87 100 88 3 0 16 -42 27 -92z m-309 -270 c-65 -258
-132 -631 -165 -913 -25 -217 -30 -229 -41 -100 -13 157 -10 474 5 580 34 237
96 399 195 512 15 18 29 33 31 33 2 0 -10 -51 -25 -112z"/>
<path d="M3801 12200 c126 -16 190 -67 238 -193 72 -189 85 -319 83 -817 -1
-361 -14 -825 -23 -835 -2 -2 -60 8 -129 21 -122 24 -126 26 -164 67 -129 140
-334 493 -490 842 -42 94 -83 184 -91 200 -31 61 -4 -18 52 -155 125 -304 308
-647 442 -828 33 -45 55 -82 48 -82 -26 0 -255 60 -345 90 -133 45 -228 90
-297 143 -69 53 -103 99 -121 165 -11 39 -13 42 -13 17 -2 -112 138 -240 354
-325 104 -40 296 -97 410 -120 55 -11 67 -19 140 -90 44 -42 106 -92 138 -110
l57 -32 0 -71 c0 -72 15 -239 26 -289 l5 -27 -93 34 c-51 19 -178 62 -281 96
-168 55 -190 65 -199 88 -27 70 -72 205 -93 281 -13 47 -24 75 -24 63 -1 -28
52 -234 78 -303 11 -30 20 -55 18 -56 -1 -1 -69 15 -152 36 -218 55 -323 71
-480 75 l-140 4 115 -9 c167 -13 376 -56 612 -125 l58 -16 49 -102 c74 -152
143 -250 261 -368 107 -107 246 -209 385 -280 l65 -34 110 -222 c107 -217 110
-224 110 -290 1 -171 70 -342 223 -545 83 -112 314 -341 467 -463 155 -124
174 -143 395 -395 173 -197 703 -735 714 -725 3 3 -36 47 -86 98 -56 56 -89
98 -86 107 3 12 2 12 -5 2 -6 -10 -43 22 -139 122 -127 131 -469 512 -500 556
-9 12 25 -6 78 -43 137 -95 419 -265 419 -254 0 2 -57 40 -127 85 -134 84
-357 239 -432 300 -128 104 -626 791 -820 1131 -70 124 -71 125 -70 195 1 39
4 100 8 134 l6 64 135 -91 c195 -131 176 -101 183 -276 6 -163 23 -243 77
-362 73 -161 244 -334 415 -420 69 -35 93 -36 30 -1 -94 52 -154 96 -229 167
-174 167 -251 344 -263 605 l-6 130 30 -22 c56 -40 173 -173 241 -276 154
-229 316 -609 422 -989 18 -64 35 -115 37 -113 8 8 -57 258 -108 414 -145 444
-292 715 -504 930 l-111 112 13 158 c7 86 16 173 19 192 l6 35 55 -60 c70 -78
235 -296 306 -406 298 -466 569 -1103 773 -1819 59 -206 70 -220 24 -30 -119
486 -307 1005 -519 1428 -181 361 -345 609 -592 894 l-46 53 9 95 c13 134 4
430 -16 508 -63 248 -194 338 -638 437 -90 20 -164 38 -166 40 -1 1 2 195 7
431 10 461 2 822 -23 984 -24 152 -78 305 -129 366 -41 48 -112 78 -192 80
l-70 3 66 -9z m212 -1866 l87 -17 0 -59 c0 -34 -4 -58 -10 -58 -18 0 -113 66
-165 115 -42 39 -46 45 -25 41 14 -3 64 -13 113 -22z m507 -120 c114 -35 216
-84 267 -128 54 -47 107 -155 128 -258 16 -80 21 -389 9 -481 l-7 -46 -41 35
c-111 94 -186 154 -238 189 -54 35 -58 40 -58 77 0 66 -30 190 -61 254 -55
112 -167 213 -326 293 l-63 31 0 58 c0 32 2 61 5 64 7 7 273 -54 385 -88z
m-178 -201 c118 -93 197 -247 198 -386 l0 -37 -77 38 c-43 21 -127 58 -188 82
-60 24 -112 45 -114 46 -9 7 -31 217 -31 297 l0 89 76 -41 c42 -23 103 -62
136 -88z m-556 -158 c104 -35 222 -77 263 -93 l75 -29 32 -129 c18 -71 53
-187 78 -259 25 -71 43 -131 41 -133 -2 -2 -46 21 -97 51 -233 137 -385 281
-506 479 -41 67 -92 163 -92 173 0 10 20 4 206 -60z m521 -195 c65 -28 145
-65 178 -84 56 -31 60 -36 58 -67 0 -19 -4 -118 -8 -220 -4 -102 -10 -191 -14
-198 -5 -7 -35 4 -93 35 -98 53 -94 46 -168 259 -34 99 -90 298 -90 319 0 12
21 5 137 -44z m372 -210 c44 -33 115 -92 157 -132 l77 -73 -7 -95 c-14 -200
-23 -290 -28 -295 -3 -3 -41 19 -84 50 -42 31 -113 77 -157 103 l-79 47 6 70
c3 39 9 141 12 228 4 86 10 157 15 157 4 0 44 -27 88 -60z m-226 -380 l67 -35
0 -110 c-1 -102 -2 -109 -16 -90 -15 18 -134 261 -134 272 0 6 5 4 83 -37z
m177 -540 c136 -227 396 -596 583 -827 37 -46 64 -83 61 -83 -14 0 -207 176
-320 292 -243 248 -376 474 -391 663 -3 38 -4 68 -1 65 3 -3 34 -52 68 -110z"/>
<path d="M9757 11168 c-257 -258 -474 -522 -594 -723 -30 -49 -55 -82 -57 -74
-3 8 -12 57 -20 109 -68 419 -36 653 103 755 19 14 29 25 23 25 -7 0 -33 -19
-59 -42 -56 -52 -97 -136 -114 -231 -16 -100 -6 -359 21 -535 l22 -143 -31
-79 c-34 -86 -61 -189 -61 -233 0 -23 -6 -30 -32 -39 -18 -6 -96 -43 -174 -83
l-141 -71 -12 215 c-7 119 -16 250 -21 291 l-10 75 63 59 c53 51 118 105 243
204 16 13 22 20 14 16 -38 -19 -142 -94 -227 -165 l-92 -78 -5 32 c-3 18 -13
82 -21 142 -32 219 -89 433 -141 538 -35 68 -37 58 -3 -21 51 -123 105 -370
130 -604 l13 -117 -55 -58 c-218 -231 -324 -473 -370 -848 l-12 -100 -91 -100
c-51 -55 -120 -135 -156 -178 -55 -68 -74 -83 -138 -112 -180 -84 -311 -219
-439 -454 -92 -168 -195 -433 -259 -667 -16 -62 -64 -172 -143 -336 -66 -134
-153 -321 -195 -415 -81 -183 -248 -604 -242 -610 1 -2 45 97 96 219 150 356
431 943 414 863 -41 -197 -99 -554 -90 -562 2 -2 11 38 20 89 53 296 59 322
80 340 12 10 71 55 132 100 306 228 596 515 755 749 52 77 121 215 154 311 20
57 33 79 49 84 11 3 91 28 177 55 85 27 161 49 167 49 7 0 -7 -38 -33 -89
-305 -608 -906 -1268 -1742 -1916 -75 -57 -82 -69 -15 -24 300 205 779 618
1045 903 359 384 548 641 737 1005 l75 144 125 42 c275 93 412 166 512 272
133 143 147 294 68 729 -12 64 -18 120 -13 124 4 4 78 33 163 65 402 150 813
321 1000 416 155 79 230 130 322 217 93 89 118 135 118 220 0 57 -21 146 -40
166 -5 5 0 -20 11 -55 24 -74 21 -156 -6 -210 -24 -46 -135 -150 -220 -206
-158 -105 -554 -277 -1148 -498 -145 -55 -211 -75 -216 -67 -4 7 -17 65 -30
130 l-23 119 31 61 c101 200 366 538 670 855 62 64 110 117 107 117 -4 0 -80
-73 -169 -162z m-1173 -885 c3 -38 11 -167 17 -287 9 -183 9 -220 -3 -227 -40
-23 -227 -169 -316 -249 l-103 -91 6 53 c43 358 134 577 340 820 22 27 43 48
46 48 4 0 9 -30 13 -67z m546 -236 c0 -28 -19 -41 -81 -54 -26 -5 -26 -5 -19
44 11 64 26 122 47 170 l16 38 18 -85 c10 -47 18 -97 19 -113z m46 -237 c22
-130 28 -198 28 -320 1 -147 0 -158 -25 -210 -15 -30 -43 -74 -63 -97 -54 -62
-191 -149 -319 -203 -119 -50 -276 -105 -282 -98 -2 2 7 35 22 73 14 39 40
129 58 200 31 123 35 131 66 149 95 54 164 104 206 150 84 93 134 230 151 410
l7 78 55 23 c30 12 58 19 61 16 4 -3 19 -80 35 -171z m-190 83 c-3 -21 -8 -63
-12 -93 -17 -148 -91 -296 -185 -370 -49 -39 -148 -95 -154 -88 -1 2 2 41 7
88 5 47 7 138 4 203 l-6 117 57 36 c56 36 270 144 286 144 5 0 6 -17 3 -37z
m-379 -368 c-3 -93 -8 -179 -12 -191 -4 -12 -24 -27 -53 -38 -93 -36 -385
-136 -387 -134 -3 4 14 167 20 193 5 25 205 206 333 303 79 59 98 69 101 55 2
-10 1 -94 -2 -188z m-481 -272 c-13 -114 -8 -106 -109 -146 -51 -21 -96 -37
-101 -37 -4 0 10 22 32 48 56 67 173 192 179 192 3 0 2 -26 -1 -57z m444 -56
c-17 -72 -68 -232 -92 -289 l-20 -48 -188 -60 c-103 -33 -190 -60 -193 -60 -2
0 4 29 14 65 10 36 27 120 38 186 11 67 22 123 24 125 1 2 86 32 187 68 102
35 196 68 210 74 32 12 35 4 20 -61z m-465 -119 c-2 -13 -12 -63 -20 -113 -18
-107 -50 -235 -62 -245 -4 -4 -39 -19 -78 -34 -194 -76 -337 -187 -440 -341
-82 -125 -135 -288 -140 -440 -4 -98 -4 -98 4 -25 33 295 167 529 386 675 58
38 246 127 254 119 7 -6 -40 -125 -82 -209 -105 -212 -326 -471 -632 -742 -95
-84 -307 -254 -311 -250 -2 2 12 64 30 138 30 120 42 150 116 284 46 83 124
220 175 305 187 312 509 775 558 802 28 15 229 97 240 98 4 0 5 -10 2 -22z
m-365 -160 c-201 -269 -492 -725 -605 -948 -15 -29 -29 -50 -32 -47 -8 9 84
270 140 397 103 232 201 386 317 500 59 57 179 140 203 140 5 0 -6 -19 -23
-42z"/>
<path d="M1763 10772 c-65 -27 -61 -32 9 -10 82 26 161 20 222 -16 48 -28 150
-140 205 -226 58 -91 193 -380 289 -620 161 -402 276 -721 264 -729 -7 -4 -65
-17 -130 -30 l-119 -23 -59 30 c-200 101 -497 333 -834 650 -119 113 -133 124
-80 63 87 -100 347 -341 495 -460 145 -117 231 -178 336 -242 44 -26 76 -50
72 -52 -5 -3 -76 -16 -158 -28 -195 -30 -429 -32 -525 -6 -79 22 -148 65 -183
114 -15 21 -27 32 -27 25 0 -23 83 -103 132 -128 121 -61 378 -70 680 -24
l147 23 60 -27 c67 -30 200 -66 243 -66 24 0 31 -6 40 -31 16 -46 102 -219
132 -268 14 -22 26 -42 26 -45 0 -2 -68 -7 -151 -11 -84 -4 -215 -13 -293 -20
l-141 -14 -68 72 c-37 40 -100 114 -139 165 -39 50 -73 92 -75 92 -13 0 112
-173 194 -267 l54 -62 -33 -5 c-18 -3 -82 -13 -143 -21 -219 -32 -433 -89
-537 -141 -65 -33 -61 -38 7 -9 120 54 377 110 617 136 l116 13 73 -68 c222
-206 473 -313 834 -357 l100 -12 100 -91 c55 -50 135 -120 178 -155 68 -56 83
-74 112 -139 102 -220 290 -376 636 -528 112 -49 376 -141 499 -173 44 -12
176 -69 320 -139 309 -151 529 -248 795 -352 234 -92 248 -97 223 -80 -10 6
-102 46 -205 89 -104 43 -231 97 -283 120 -125 56 -611 293 -607 298 2 1 59
-9 128 -23 144 -29 450 -77 456 -70 2 2 -40 12 -94 21 -54 10 -150 28 -213 41
-63 13 -128 27 -145 30 -113 21 -247 60 -299 86 -393 197 -1175 709 -1222 799
-18 36 -95 232 -91 235 4 4 184 -27 267 -48 96 -23 120 -33 120 -51 0 -28 91
-210 140 -281 147 -213 402 -352 660 -361 52 -1 75 -1 50 2 -299 26 -547 165
-695 389 -38 57 -127 245 -119 253 6 7 125 -40 209 -82 173 -86 381 -251 590
-468 117 -121 285 -316 361 -418 21 -28 40 -49 42 -46 6 6 -108 161 -212 289
-122 150 -349 380 -471 479 -174 140 -297 212 -466 272 l-76 27 -51 161 c-28
89 -54 175 -58 190 l-7 29 84 -43 c372 -186 728 -452 1123 -839 261 -256 492
-514 720 -805 132 -168 155 -193 106 -120 -177 265 -495 641 -799 946 -372
371 -719 635 -1087 827 l-167 87 -32 100 c-91 277 -177 440 -288 542 -141 128
-291 141 -723 63 -64 -12 -120 -18 -124 -13 -4 4 -28 67 -55 138 -130 354
-323 822 -416 1007 -105 212 -246 391 -343 438 -53 25 -162 27 -223 2z m1760
-1595 c115 -53 214 -181 302 -391 46 -112 99 -265 93 -271 -2 -2 -35 7 -73 22
-39 14 -128 40 -200 58 l-130 33 -44 78 c-109 193 -276 291 -528 311 l-84 6
-15 36 c-8 20 -18 48 -21 62 l-5 25 169 27 c92 15 182 29 198 31 17 2 86 3
155 2 112 -2 131 -5 183 -29z m-717 -127 l6 -27 -49 7 c-65 11 -123 27 -170
47 l-38 17 110 21 110 22 13 -30 c7 -16 15 -42 18 -57z m249 -86 c93 -18 202
-67 262 -119 43 -37 125 -152 138 -194 6 -21 5 -23 -11 -16 -11 4 -104 9 -208
10 l-189 1 -24 35 c-25 35 -153 289 -153 302 0 9 76 1 185 -19z m5 -407 c48
-72 149 -196 238 -295 l76 -83 -55 6 c-253 29 -439 87 -614 190 -81 48 -246
174 -253 195 -4 10 316 34 508 38 l65 1 35 -52z m412 38 c9 -4 23 -25 32 -48
72 -203 136 -390 134 -392 -2 -1 -48 3 -104 9 l-101 12 -76 80 c-93 98 -190
214 -247 296 l-43 61 194 -5 c107 -3 202 -9 211 -13z m167 -35 c93 -23 282
-88 295 -100 7 -7 98 -281 122 -366 l6 -22 -65 18 c-36 10 -110 26 -164 34
-54 9 -110 19 -124 22 -24 5 -31 18 -79 157 -29 84 -63 180 -76 215 -27 73
-30 72 85 42z m-7 -446 c23 -5 31 -18 62 -98 20 -50 36 -96 36 -100 0 -9 -99
75 -185 157 l-60 58 60 -6 c33 -3 72 -8 87 -11z m328 -431 c233 -171 674 -448
878 -552 24 -12 42 -24 40 -27 -8 -7 -269 83 -379 132 -141 61 -298 145 -378
202 -119 84 -244 227 -277 317 -6 16 -5 18 7 9 8 -6 57 -43 109 -81z"/>
<path d="M10080 9973 c-1 -134 -46 -382 -111 -605 l-31 -107 -113 -56 c-271
-133 -458 -319 -630 -627 l-46 -83 -220 -107 c-213 -104 -223 -108 -287 -108
-304 -1 -649 -242 -1037 -725 -62 -77 -137 -160 -166 -185 -231 -193 -534
-477 -759 -711 -101 -106 -176 -187 -165 -181 11 6 58 49 104 95 56 57 89 84
100 80 12 -4 13 -2 3 4 -9 7 20 41 110 129 155 150 486 448 570 513 10 7 -20
-42 -66 -110 -45 -68 -110 -170 -144 -226 -112 -188 -121 -223 -12 -48 74 119
232 347 294 427 105 132 686 562 1096 809 148 89 158 93 220 96 36 2 100 0
143 -4 l79 -8 -91 -135 c-131 -196 -101 -176 -276 -183 -207 -8 -339 -47 -484
-146 -103 -69 -238 -226 -298 -346 -39 -77 -34 -89 7 -16 52 94 112 171 191
247 162 154 325 220 573 231 l130 6 -22 -30 c-40 -56 -173 -173 -276 -241
-157 -105 -415 -230 -626 -304 -126 -44 -299 -99 -387 -124 -51 -15 -92 -29
-89 -31 8 -8 252 55 399 103 206 67 350 125 499 199 193 96 315 181 446 310
l113 111 157 -13 c86 -7 173 -16 192 -19 l35 -6 -60 -54 c-208 -189 -504 -382
-855 -558 -410 -205 -830 -365 -1354 -517 -241 -69 -235 -77 11 -14 739 190
1461 501 1940 838 97 68 161 119 341 273 l37 31 95 -9 c134 -13 430 -4 508 16
248 63 338 194 438 641 20 88 37 161 39 163 1 1 195 -2 431 -7 636 -14 965 3
1148 59 202 63 277 137 282 280 l3 65 -9 -61 c-20 -143 -84 -202 -285 -266
-148 -46 -486 -62 -1030 -49 -231 6 -446 14 -478 17 -54 6 -58 8 -53 28 3 11
14 68 26 126 20 102 22 106 68 148 149 137 566 373 959 542 56 24 101 46 99
48 -2 2 -44 -12 -92 -31 -341 -133 -701 -320 -910 -474 -52 -39 -84 -57 -84
-48 0 38 83 335 121 431 48 124 126 243 186 287 23 16 64 36 90 43 41 11 43
13 17 13 -46 1 -129 -45 -179 -101 -93 -104 -166 -272 -240 -559 l-44 -172
-74 -76 c-41 -42 -89 -102 -107 -133 l-32 -58 -71 0 c-73 0 -239 -15 -289 -26
l-28 -6 37 99 c19 54 63 181 97 282 l61 184 90 34 c50 18 137 47 195 62 58 16
94 30 80 30 -31 1 -226 -50 -299 -78 -30 -11 -56 -19 -57 -18 -2 1 13 62 32
135 52 201 75 343 81 495 3 75 3 137 -1 137 -3 0 -6 -30 -6 -67z m-160 -762
c0 -12 -121 -363 -158 -461 l-29 -74 -129 -32 c-71 -17 -187 -52 -259 -77 -71
-26 -131 -44 -133 -42 -7 7 104 188 167 273 114 153 247 268 428 368 101 56
113 60 113 45z m418 -404 l-23 -107 -57 0 c-33 0 -58 4 -58 10 0 25 145 218
156 207 2 -2 -6 -52 -18 -110z m-224 -189 c-70 -139 -162 -243 -261 -295 -64
-35 -165 -63 -226 -63 l-37 0 38 78 c21 42 58 127 82 187 24 61 45 112 46 114
8 9 197 29 287 30 l97 1 -26 -52z m188 47 c3 -3 -10 -72 -28 -152 -101 -439
-176 -554 -400 -618 -67 -19 -455 -32 -532 -18 l-42 8 70 80 c39 44 99 119
133 168 59 83 63 87 100 87 66 0 190 30 257 63 107 53 212 172 294 335 l26 52
59 0 c31 0 60 -2 63 -5z m-597 -57 c-15 -49 -97 -236 -129 -293 l-33 -60 -109
4 c-161 5 -343 17 -348 22 -3 3 15 44 40 92 51 98 40 91 234 158 110 39 310
97 338 98 9 1 11 -6 7 -21z m-597 -186 c-1 -5 -19 -38 -38 -75 l-35 -67 -115
0 c-136 0 -137 -1 52 90 126 60 142 66 136 52z m-584 -255 c-253 -155 -549
-363 -801 -564 -51 -40 -95 -73 -99 -73 -23 0 309 346 426 445 193 161 402
262 544 264 l50 1 -120 -73z m824 57 c89 -4 162 -10 162 -14 0 -15 -122 -171
-191 -244 l-75 -80 -160 12 c-87 7 -178 15 -201 18 l-42 5 51 67 c27 37 75
109 106 160 l57 94 65 -6 c36 -3 138 -8 228 -12z"/>
<path d="M557 8735 c-49 -19 -134 -81 -149 -108 -7 -13 8 -5 36 21 110 101
198 107 366 25 149 -73 281 -183 570 -473 244 -245 606 -628 599 -634 -42 -35
-224 -146 -240 -146 -39 0 -232 31 -324 51 -206 47 -508 144 -759 243 -77 31
-141 54 -143 52 -2 -2 38 -21 89 -44 344 -150 704 -266 972 -312 66 -11 121
-22 123 -24 8 -7 -183 -121 -314 -187 -73 -37 -168 -76 -211 -88 -139 -37
-264 -24 -337 37 l-20 17 20 -24 c43 -51 91 -66 205 -66 88 1 118 6 185 28
108 38 254 110 406 201 l125 76 111 4 c60 2 140 12 177 21 l67 17 70 -66 c38
-37 103 -93 144 -125 l73 -59 -265 -131 -264 -131 -132 64 c-73 36 -156 79
-184 96 -29 17 -53 29 -53 26 0 -10 130 -90 236 -146 54 -29 100 -53 102 -55
2 -1 -34 -24 -80 -51 -213 -123 -448 -297 -510 -377 -30 -39 -28 -38 27 14
112 104 280 219 503 344 l98 55 97 -35 c294 -105 551 -108 909 -9 l97 27 113
-41 c122 -45 297 -102 313 -102 6 -1 48 -34 95 -76 53 -46 115 -89 166 -114
238 -119 601 -147 1135 -88 81 9 143 9 263 0 313 -24 762 -35 996 -25 202 9
212 10 94 11 l-131 2 -76 50 c-121 80 -376 223 -577 325 -715 360 -1339 553
-1916 591 l-102 6 -62 74 c-157 188 -310 321 -439 382 -61 30 -88 36 -156 40
-137 7 -260 -42 -532 -214 l-148 -94 -154 163 c-250 263 -659 667 -761 752
-231 191 -427 275 -543 230z m2241 -895 c96 -34 181 -98 334 -251 80 -81 151
-156 157 -167 10 -19 6 -20 -92 -27 -56 -4 -151 -15 -212 -25 l-109 -19 -38
34 c-175 158 -369 192 -635 110 l-78 -25 -45 46 c-37 37 -42 47 -30 55 8 5 65
41 125 79 178 114 349 196 445 214 40 7 120 -4 178 -24z m-756 -337 c21 -20
38 -40 38 -44 0 -15 -70 -31 -165 -36 l-100 -6 90 61 c50 33 92 61 95 61 2 1
21 -16 42 -36z m613 -41 c68 -33 180 -110 171 -119 -3 -3 -42 -18 -88 -33 -46
-16 -130 -49 -188 -74 l-105 -46 -50 35 c-68 46 -240 198 -238 209 1 5 21 16
44 24 92 31 166 41 274 39 101 -2 116 -5 180 -35z m778 -210 c48 -59 105 -128
127 -153 l40 -46 -78 -12 c-42 -7 -127 -24 -188 -38 l-112 -25 -44 49 c-25 26
-64 71 -88 98 -25 28 -73 81 -109 118 -49 52 -61 71 -51 77 8 5 50 13 94 19
118 16 142 18 236 19 l85 1 88 -107z m127 97 c444 -41 966 -192 1545 -448 249
-111 895 -449 895 -469 0 -12 -643 14 -890 37 l-75 6 95 19 c140 26 472 107
466 113 -3 3 -56 -6 -118 -20 -238 -54 -278 -60 -296 -44 -30 26 -202 127
-347 203 -249 130 -501 228 -720 280 -90 21 -144 27 -293 31 l-182 5 -43 48
c-23 25 -79 92 -125 148 -96 118 -105 109 88 91z m-643 -91 c28 -29 99 -107
157 -173 l107 -120 -88 -28 c-56 -18 -100 -26 -121 -23 -41 6 -331 149 -426
209 l-68 44 111 47 c90 38 243 92 271 95 3 1 29 -23 57 -51z m-372 -178 c67
-41 299 -160 354 -182 26 -10 25 -10 -19 -24 -148 -46 -278 -67 -430 -72 -178
-5 -280 9 -437 59 -117 38 -121 31 87 132 284 137 333 157 355 143 11 -7 52
-32 90 -56z m1393 -60 c183 -20 411 -86 662 -192 196 -83 580 -280 580 -298 0
-16 -244 -43 -334 -37 -185 13 -617 76 -901 132 -184 36 -482 113 -508 130
-22 14 -169 171 -175 186 -4 9 153 45 273 62 l90 13 93 -85 c214 -198 378
-266 637 -264 131 1 220 17 333 60 67 25 44 24 -46 -2 -232 -68 -464 -50 -662
50 -84 43 -133 79 -227 168 l-76 72 39 6 c64 10 119 10 222 -1z m-648 -172
c41 -45 66 -79 55 -74 -11 4 -74 25 -140 48 -175 59 -173 58 -90 84 39 12 77
23 85 23 8 1 49 -36 90 -81z m349 -192 c240 -61 621 -129 896 -161 217 -25
229 -30 100 -41 -156 -12 -463 -10 -575 5 -192 25 -336 72 -450 146 -69 45
-122 95 -86 82 10 -4 62 -18 115 -31z"/>
<path d="M5618 6613 c7 -3 16 -2 19 1 4 3 -2 6 -13 5 -11 0 -14 -3 -6 -6z"/>
<path d="M11166 8293 c-36 -93 -134 -250 -255 -412 -158 -212 -134 -192 -237
-198 -325 -16 -568 -112 -854 -338 l-80 -62 -142 -7 c-79 -4 -185 -12 -236
-17 -90 -10 -95 -9 -175 20 -147 54 -258 63 -422 36 -247 -41 -522 -147 -845
-328 -64 -36 -157 -78 -210 -95 -136 -43 -444 -153 -585 -207 -151 -58 -587
-247 -582 -251 2 -2 93 32 203 77 321 130 919 347 930 336 1 -1 -54 -40 -123
-86 -123 -82 -323 -228 -353 -259 -8 -8 26 13 75 47 50 35 133 91 185 126 l95
63 100 -18 c195 -35 412 -53 660 -53 356 -1 554 33 775 132 l114 50 125 -66
c192 -101 215 -115 200 -124 -51 -28 -335 -107 -506 -140 -324 -63 -586 -84
-1038 -84 -389 1 -553 10 -928 51 -126 14 -231 23 -233 21 -9 -9 355 -59 611
-83 228 -23 941 -26 1135 -6 379 39 601 83 877 173 l152 50 128 -64 c318 -160
530 -201 695 -138 65 25 166 114 257 225 42 52 184 249 227 314 1 2 109 -45
240 -103 582 -262 933 -397 1136 -439 44 -9 126 -16 190 -16 97 0 120 3 163
24 57 26 94 66 131 137 34 68 30 75 -7 9 -38 -70 -72 -105 -128 -133 -40 -19
-60 -22 -152 -20 -58 1 -139 9 -180 18 -99 21 -339 103 -523 180 -265 110
-820 358 -838 374 -4 4 26 56 66 117 l74 110 73 22 c236 68 515 105 938 122
134 5 247 13 250 16 10 12 -549 -5 -699 -21 -168 -17 -343 -46 -450 -74 -41
-11 -75 -19 -77 -18 -4 5 186 254 245 322 83 94 174 170 252 208 56 28 75 32
142 32 43 0 70 3 60 7 -29 11 -135 8 -175 -6 -140 -50 -299 -201 -501 -476
l-77 -105 -86 -37 c-71 -31 -140 -71 -208 -122 -8 -6 -51 5 -121 32 -60 22
-140 48 -179 58 -38 10 -72 19 -74 20 -1 2 46 56 105 121 60 65 147 164 194
221 l84 102 76 0 c41 0 111 -4 155 -9 174 -20 192 -22 160 -11 -42 14 -245 40
-311 40 -29 0 -54 2 -54 5 0 3 33 49 73 103 145 191 256 374 302 496 34 89 26
97 -9 9z m-436 -639 c0 -16 -371 -424 -385 -424 -5 0 -68 9 -140 19 -71 11
-192 23 -269 27 l-138 7 32 26 c227 181 436 284 661 325 124 23 239 32 239 20z
m-1605 -391 l60 -20 -35 -6 c-19 -4 -82 -14 -140 -23 -259 -40 -629 -123 -925
-208 -66 -19 -122 -33 -124 -31 -1 2 39 25 90 50 257 130 481 212 684 251 102
19 313 12 390 -13z m555 -27 c0 -2 -29 -27 -65 -56 l-64 -51 -91 40 c-49 23
-95 41 -102 41 -6 0 -8 3 -5 7 12 11 327 30 327 19z m510 -22 c63 -9 117 -18
119 -21 7 -6 -167 -179 -236 -234 l-61 -49 -74 34 c-40 18 -135 64 -211 100
l-138 66 78 66 78 65 165 -5 c91 -3 217 -13 280 -22z m-800 -55 c66 -29 120
-55 120 -58 0 -9 -160 -120 -243 -169 l-73 -42 -87 35 c-166 67 -227 80 -382
80 -116 0 -154 -4 -219 -23 -144 -41 -317 -143 -406 -238 -26 -27 -15 -21 43
24 199 157 381 219 611 209 126 -5 219 -28 345 -84 l55 -24 -65 -30 c-244
-116 -588 -163 -1025 -140 -191 10 -483 37 -492 46 -3 3 177 115 223 138 39
19 387 118 590 167 281 69 749 156 852 159 18 1 84 -21 153 -50z m1623 38
c-23 -38 -114 -167 -117 -167 -2 0 -27 10 -56 23 l-53 23 39 32 c35 29 169
102 187 102 4 0 4 -6 0 -13z m-538 -42 c110 -29 240 -79 239 -91 0 -15 -115
-103 -184 -142 -76 -43 -173 -71 -251 -71 -49 -1 -204 31 -217 44 -3 3 8 15
24 27 16 12 83 75 149 140 66 65 127 118 135 118 8 0 56 -11 105 -25z m-696
-178 l193 -94 -68 -43 c-78 -49 -282 -150 -303 -150 -16 0 -361 172 -361 180
0 3 31 22 68 43 37 21 105 67 152 102 56 42 92 63 105 60 11 -2 107 -46 214
-98z m1036 49 c30 -14 55 -29 55 -33 0 -11 -161 -234 -227 -316 -74 -90 -155
-162 -217 -194 -41 -22 -69 -28 -142 -31 -100 -5 -182 10 -306 54 -84 30 -328
144 -328 153 0 3 49 30 108 59 59 28 141 74 183 102 l75 49 75 -23 c156 -50
277 -42 414 24 78 37 191 115 229 159 11 11 21 21 22 21 2 0 28 -11 59 -24z"/>
<path d="M6611 7174 c0 -11 3 -14 6 -6 3 7 2 16 -1 19 -3 4 -6 -2 -5 -13z"/>
<path d="M4400 6394 c-25 -2 -101 -8 -170 -14 -346 -29 -632 -86 -912 -181
l-116 -40 -124 62 c-343 172 -570 211 -735 125 -45 -23 -154 -126 -223 -211
-41 -51 -195 -264 -226 -313 -1 -2 -73 29 -160 69 -599 271 -1016 433 -1216
473 -43 9 -127 16 -190 16 -97 0 -120 -3 -163 -24 -57 -26 -94 -66 -131 -137
-34 -68 -30 -75 7 -9 38 70 72 105 128 133 40 19 60 22 150 20 57 -1 140 -10
185 -19 190 -38 570 -190 1186 -471 91 -42 168 -79 173 -82 4 -4 -26 -56 -68
-116 -83 -123 -77 -119 -250 -160 -216 -51 -471 -80 -834 -95 -134 -5 -247
-13 -250 -16 -10 -12 549 5 699 21 167 17 343 46 448 74 39 10 72 15 72 11 0
-13 -172 -239 -239 -314 -87 -98 -176 -172 -251 -209 -56 -28 -75 -32 -142
-32 -43 0 -70 -3 -60 -7 29 -11 135 -8 175 6 142 51 329 232 519 502 54 77 59
80 136 112 66 27 156 79 217 126 8 6 51 -5 121 -32 60 -22 141 -48 179 -58 39
-10 72 -19 74 -21 2 -1 -36 -44 -83 -95 -48 -51 -135 -150 -194 -220 l-107
-127 -70 0 c-38 -1 -108 3 -155 8 -202 22 -197 22 -165 11 42 -14 245 -40 311
-40 29 0 54 -3 54 -6 0 -3 -29 -42 -64 -87 -134 -172 -277 -409 -316 -522 -27
-80 -19 -80 12 0 49 122 210 366 385 582 16 20 33 23 144 32 322 26 540 116
821 337 l78 61 142 7 c79 4 185 12 237 17 89 10 96 9 160 -16 172 -69 333 -72
586 -8 188 47 499 181 725 313 43 25 155 70 292 116 123 42 306 107 408 146
189 71 653 268 647 274 -2 2 -116 -41 -253 -97 -310 -125 -870 -326 -881 -316
-1 2 38 29 87 61 134 86 463 331 390 290 -8 -4 -55 -37 -105 -73 -49 -35 -126
-88 -170 -116 l-81 -52 -99 18 c-195 34 -413 52 -655 52 -378 1 -613 -43 -839
-157 l-52 -27 -117 62 c-202 106 -226 121 -211 129 53 29 337 109 501 140 335
64 590 85 1043 85 392 -1 560 -10 928 -51 126 -14 231 -24 233 -21 9 9 -349
58 -606 83 -154 15 -853 28 -970 18z m-1716 -59 c37 -9 99 -27 139 -41 82 -30
327 -144 327 -153 0 -3 -44 -27 -98 -53 -53 -25 -136 -71 -184 -101 l-87 -55
-73 23 c-98 31 -179 39 -261 25 -113 -18 -247 -88 -356 -186 l-49 -44 -56 25
c-31 14 -56 28 -56 32 0 11 162 236 227 316 97 118 189 192 273 218 43 13 186
10 254 -6z m703 -312 c95 -49 173 -90 173 -93 -1 -3 -33 -24 -73 -46 -40 -23
-109 -69 -155 -103 -58 -43 -89 -60 -102 -56 -11 3 -105 48 -211 99 l-191 93
68 43 c79 50 282 150 304 150 8 0 93 -39 187 -87z m1383 77 c168 -10 450 -37
458 -44 3 -4 -177 -116 -223 -139 -40 -19 -379 -116 -590 -167 -228 -56 -525
-113 -720 -141 l-160 -22 -122 53 c-68 29 -123 56 -123 59 0 9 160 120 243
169 l73 42 75 -30 c242 -101 451 -116 654 -48 129 43 284 138 365 224 26 27
15 21 -43 -24 -186 -146 -364 -212 -574 -212 -113 0 -193 15 -314 60 -137 49
-137 49 -19 99 259 109 568 146 1020 121z m-2115 -170 c43 -11 81 -22 83 -25
3 -3 -8 -15 -24 -27 -16 -12 -84 -76 -151 -142 l-123 -120 -77 18 c-73 18
-194 58 -255 87 -33 15 -29 22 52 84 173 133 320 170 495 125z m207 -74 c40
-18 135 -63 211 -100 l139 -66 -82 -67 -83 -66 -156 6 c-154 6 -401 34 -401
46 0 15 278 277 297 281 1 0 35 -15 75 -34z m1978 -32 c0 -9 -295 -147 -410
-192 -237 -92 -406 -127 -580 -119 -99 4 -239 31 -227 44 2 2 74 14 160 28
289 45 687 135 947 214 106 32 110 33 110 25z m-2871 -80 l45 -18 -38 -32
c-37 -32 -183 -110 -191 -102 -9 8 118 179 129 175 6 -3 31 -13 55 -23z m1372
-114 c49 -22 95 -40 102 -41 41 -3 -77 -18 -192 -24 -122 -6 -134 -5 -121 8
18 19 113 96 119 97 2 0 43 -18 92 -40z m-746 -79 c72 -11 192 -22 267 -26
l137 -8 -62 -49 c-198 -159 -393 -255 -605 -297 -110 -22 -262 -37 -262 -26 0
17 369 425 385 425 5 0 69 -9 140 -19z"/>
<path d="M6655 6381 l-140 -7 131 -2 131 -2 74 -49 c200 -131 636 -363 912
-485 592 -261 1101 -400 1583 -431 l101 -7 60 -71 c86 -102 233 -247 306 -303
34 -26 95 -63 136 -82 93 -45 202 -55 297 -27 84 24 230 99 397 204 l145 91
64 -67 c488 -515 693 -718 862 -857 126 -104 199 -150 301 -194 100 -42 158
-50 220 -29 54 19 140 79 157 110 7 13 -8 5 -36 -21 -110 -101 -198 -107 -366
-25 -145 71 -278 180 -550 453 -204 203 -612 632 -617 648 -4 12 216 152 238
152 39 0 233 -31 324 -52 217 -49 496 -138 761 -243 76 -30 139 -53 141 -51 6
5 -198 93 -352 151 -281 106 -499 169 -712 205 -64 11 -118 22 -120 24 -8 7
183 121 314 187 73 37 168 76 211 88 139 37 264 24 337 -37 l20 -17 -20 24
c-43 51 -91 66 -205 66 -88 -1 -118 -6 -185 -28 -106 -37 -272 -119 -417 -206
l-116 -71 -109 -4 c-61 -2 -140 -12 -177 -21 l-67 -17 -67 64 c-37 35 -102 92
-144 125 l-77 61 265 131 266 131 131 -64 c73 -35 156 -78 185 -95 28 -17 52
-29 52 -26 0 9 -139 95 -239 147 -53 27 -97 51 -99 53 -1 1 41 28 95 60 227
135 434 290 497 372 25 32 20 29 -30 -17 -112 -106 -274 -216 -499 -343 l-101
-57 -94 34 c-301 108 -545 110 -911 10 l-96 -27 -154 56 c-85 30 -185 64 -224
76 -58 18 -83 33 -150 91 -141 123 -300 184 -570 216 -146 18 -442 14 -620 -8
-128 -16 -311 -16 -545 0 -225 15 -713 22 -905 13z m775 -31 c334 -22 340 -23
290 -33 -262 -54 -564 -126 -556 -134 2 -2 64 10 137 26 74 17 171 38 215 46
l82 15 58 -38 c217 -144 575 -318 824 -400 194 -65 299 -84 498 -89 l183 -5
54 -62 c118 -135 194 -231 184 -235 -20 -6 -276 20 -417 44 -379 64 -880 228
-1337 437 -255 117 -804 405 -840 441 -11 11 387 3 625 -13z m1316 -10 c110
-15 200 -35 286 -66 80 -28 199 -98 236 -137 l24 -25 -114 28 c-261 66 -577
123 -908 165 -112 15 -207 28 -209 31 -2 2 13 5 35 5 21 1 86 5 144 9 127 10
397 4 506 -10z m-625 -50 c505 -60 1167 -192 1247 -249 27 -19 172 -175 172
-184 0 -8 -172 -45 -275 -60 l-90 -13 -93 85 c-212 196 -377 266 -632 265
-132 0 -255 -24 -344 -65 -22 -11 -32 -17 -21 -14 186 55 314 71 443 56 212
-26 379 -110 536 -269 l58 -60 -70 -7 c-196 -20 -507 52 -852 197 -178 75
-580 282 -580 299 0 10 189 37 265 38 39 0 145 -8 236 -19z m1487 -316 c78
-26 142 -51 142 -54 0 -6 -138 -50 -157 -50 -4 0 -42 37 -83 82 -41 45 -68 79
-60 76 8 -3 79 -27 158 -54z m966 15 c75 -10 217 -46 280 -71 27 -11 28 -12
10 -26 -22 -16 -241 -124 -394 -193 -101 -46 -106 -47 -130 -31 -109 71 -280
163 -400 216 l-64 29 44 13 c239 72 439 91 654 63z m-580 -172 c75 -36 180
-92 233 -124 l97 -57 -75 -34 c-41 -19 -127 -52 -192 -74 -116 -38 -119 -39
-139 -21 -12 10 -83 88 -160 173 l-139 155 83 27 c50 16 98 26 119 24 21 -2
98 -33 173 -69z m-314 -107 c51 -58 117 -131 148 -163 30 -32 52 -60 49 -64
-13 -12 -166 -33 -288 -39 l-126 -7 -104 123 c-57 68 -116 138 -131 155 l-27
32 102 17 c56 9 134 25 172 36 39 10 79 18 91 17 12 -1 58 -44 114 -107z m743
-147 c97 -73 229 -195 220 -203 -4 -4 -44 -18 -88 -31 -67 -20 -102 -24 -210
-24 -126 0 -132 1 -200 33 -69 33 -180 110 -171 119 3 3 42 18 88 33 46 16
128 49 183 73 55 25 104 46 108 46 5 1 36 -20 70 -46z m-477 -134 c38 -43 148
-113 213 -136 122 -45 265 -41 438 12 l78 24 42 -41 c24 -23 43 -45 43 -48 0
-10 -272 -176 -365 -222 -127 -64 -188 -82 -270 -81 -83 0 -159 28 -256 93
-61 41 -337 310 -358 349 -10 18 -5 20 87 26 53 3 144 14 202 24 58 10 110 19
116 20 6 0 19 -9 30 -20z m1019 -58 c-6 -5 -46 -32 -89 -60 l-80 -52 -38 38
c-21 20 -38 40 -38 44 0 8 49 25 90 32 50 8 164 7 155 -2z"/>
<path d="M6520 6321 c8 -5 98 -44 200 -86 236 -98 461 -201 702 -320 192 -95
224 -114 178 -101 -63 16 -402 75 -465 80 l-70 6 70 -15 c39 -8 124 -24 190
-37 90 -17 124 -27 137 -43 10 -11 58 -74 106 -140 217 -293 512 -589 742
-745 76 -51 216 -121 311 -155 l76 -27 57 -177 c31 -97 56 -183 56 -190 0 -28
-360 178 -563 323 -450 321 -1000 874 -1431 1439 -32 42 -61 77 -63 77 -14 0
237 -333 376 -499 366 -438 767 -817 1135 -1075 145 -102 251 -165 425 -256
l144 -75 32 -100 c90 -276 177 -440 288 -542 141 -128 301 -142 725 -62 64 12
117 18 121 13 4 -5 52 -126 106 -269 195 -515 374 -920 477 -1075 58 -89 181
-215 232 -240 29 -13 62 -20 104 -20 57 0 146 21 166 40 5 5 -20 0 -55 -11
-129 -41 -219 -12 -321 104 -86 97 -133 173 -224 362 -140 292 -458 1110 -436
1124 7 4 65 17 130 30 l119 23 62 -31 c197 -100 529 -360 856 -672 109 -103
114 -107 54 -39 -36 41 -138 142 -225 224 -230 214 -445 384 -618 485 -37 21
-64 41 -59 44 5 3 76 16 158 28 195 30 429 32 525 6 79 -22 148 -65 183 -114
15 -21 27 -32 27 -25 0 23 -83 103 -132 128 -27 14 -83 32 -126 40 -103 22
-355 14 -550 -16 l-143 -22 -79 31 c-86 34 -189 61 -233 61 -22 0 -30 6 -39
32 -16 46 -116 247 -139 279 -10 15 -19 29 -19 32 0 2 68 8 151 12 84 4 215
13 293 20 l141 14 59 -62 c51 -53 104 -117 204 -243 13 -16 20 -22 16 -14 -16
33 -101 150 -170 232 l-74 87 33 5 c17 3 82 13 142 21 219 32 433 89 538 141
64 33 60 38 -8 9 -121 -54 -377 -110 -617 -136 l-117 -13 -58 55 c-224 212
-463 319 -816 365 l-132 17 -100 92 c-55 50 -135 119 -178 155 -68 55 -83 74
-112 138 -84 180 -219 311 -454 439 -166 91 -436 196 -665 258 -65 18 -173 64
-348 149 -308 150 -515 242 -797 352 -205 80 -245 94 -211 75z m1116 -541
c116 -30 201 -72 509 -253 392 -230 834 -539 864 -604 22 -48 91 -226 88 -229
-4 -4 -206 33 -277 50 -84 21 -110 33 -110 48 0 23 -85 203 -124 261 -152 228
-408 372 -681 382 -98 4 -98 4 -25 -4 309 -35 552 -179 690 -411 48 -79 113
-230 100 -230 -39 0 -251 100 -345 163 -235 157 -613 535 -826 825 l-31 43 28
-6 c16 -4 79 -20 140 -35z m424 -124 c410 -142 682 -302 816 -479 44 -60 89
-136 82 -142 -2 -2 -55 35 -118 82 -225 166 -603 405 -846 535 -81 43 -105 58
-91 58 2 0 72 -24 157 -54z m1183 -918 l72 -69 -60 6 c-117 11 -110 6 -149
109 -20 50 -36 96 -36 100 0 10 84 -60 173 -146z m-276 -62 c54 -9 110 -19
124 -22 24 -5 31 -18 79 -157 29 -84 63 -180 76 -214 19 -53 21 -63 8 -63 -43
0 -309 81 -368 112 -25 13 -35 35 -82 184 -30 93 -56 179 -60 190 l-6 22 65
-18 c36 -10 110 -26 164 -34z m313 -42 l85 -6 63 -67 c86 -90 209 -237 262
-312 l43 -62 -194 5 c-107 3 -202 9 -211 13 -9 4 -23 25 -32 48 -54 152 -136
389 -136 393 0 3 8 3 18 0 9 -3 55 -8 102 -12z m342 -40 c176 -29 341 -88 477
-170 77 -47 251 -181 251 -194 0 -9 -94 -17 -359 -31 -197 -10 -215 -10 -224
6 -23 41 -163 219 -247 313 l-91 103 53 -6 c29 -4 92 -13 140 -21z m-652 -336
c30 -11 114 -35 185 -53 l130 -33 44 -78 c109 -193 276 -291 528 -311 l84 -6
15 -36 c8 -20 18 -48 21 -62 l5 -25 -174 -29 c-137 -24 -204 -30 -323 -30
-150 0 -151 0 -217 33 -139 68 -252 244 -359 561 -34 99 -35 105 -11 96 9 -4
42 -16 72 -27z m595 -103 l190 -1 28 -45 c28 -42 147 -280 147 -293 0 -8 -81
1 -185 20 -167 32 -300 125 -372 261 -38 70 -40 78 -15 68 9 -4 102 -9 207
-10z m562 -404 c23 -6 59 -19 80 -28 l38 -17 -110 -21 -110 -22 -13 30 c-7 16
-15 42 -18 57 l-6 27 49 -7 c27 -5 68 -13 90 -19z"/>
<path d="M6186 6231 c-59 -59 -94 -88 -105 -84 -12 4 -13 3 -3 -4 10 -7 -22
-43 -122 -140 -127 -123 -511 -469 -553 -498 -10 -7 23 50 75 128 52 78 112
174 134 212 23 39 52 89 65 113 48 82 14 40 -48 -60 -70 -112 -261 -389 -316
-456 -105 -128 -791 -626 -1132 -821 -124 -70 -125 -71 -195 -70 -39 1 -100 4
-134 8 l-64 6 91 135 c131 195 101 176 276 183 163 6 243 23 362 77 161 73
334 244 420 415 36 70 35 92 0 29 -53 -97 -119 -183 -193 -255 -167 -159 -327
-224 -578 -236 -152 -7 -151 -10 -34 102 127 123 244 203 437 300 202 101 503
215 755 286 66 18 115 34 109 36 -16 6 -275 -63 -426 -112 -433 -143 -705
-291 -915 -499 l-113 -112 -157 13 c-86 8 -173 17 -192 21 l-34 8 91 78 c484
416 1231 775 2188 1050 105 31 182 55 172 56 -31 0 -398 -97 -581 -155 -770
-243 -1404 -572 -1845 -957 l-83 -73 -102 8 c-143 12 -427 2 -504 -17 -90 -23
-163 -60 -222 -113 -90 -81 -160 -258 -225 -567 -14 -66 -27 -122 -29 -123 -2
-2 -196 1 -432 6 -632 14 -966 -3 -1145 -58 -206 -64 -280 -137 -285 -281 l-3
-65 9 61 c20 141 82 201 270 261 164 52 482 68 1050 54 418 -11 531 -17 529
-29 0 -4 -12 -63 -27 -132 l-27 -124 -60 -49 c-189 -154 -517 -339 -898 -507
-92 -40 -165 -75 -163 -77 5 -5 250 95 396 161 240 110 490 252 638 362 46 35
72 49 72 40 0 -39 -83 -336 -121 -432 -48 -124 -126 -243 -186 -287 -23 -16
-64 -36 -90 -43 -39 -10 -43 -13 -18 -13 112 -2 240 138 325 354 40 104 96
295 120 410 11 55 19 67 91 142 43 45 92 107 109 137 l32 56 71 0 c73 0 239
15 290 26 26 5 27 5 16 -23 -7 -15 -51 -142 -98 -282 l-86 -255 -80 -29 c-44
-16 -132 -45 -195 -63 -82 -24 -100 -33 -65 -28 53 6 276 68 308 86 10 5 20 8
22 6 2 -2 -12 -63 -31 -136 -54 -212 -75 -344 -79 -497 l-4 -140 9 105 c14
175 58 397 124 622 l17 58 102 49 c277 135 470 325 642 633 l46 83 217 106
217 106 100 6 c119 7 179 24 300 83 220 108 498 363 744 682 41 52 121 132
220 218 86 75 233 207 326 295 175 164 523 519 508 519 -5 0 -48 -40 -97 -89z
m-1089 -1058 c-184 -212 -392 -398 -554 -496 -114 -69 -272 -122 -347 -115
-36 3 -36 3 56 58 225 133 731 490 883 623 22 19 42 33 44 31 2 -2 -35 -47
-82 -101z m-1644 -249 l46 -7 -35 -41 c-94 -111 -154 -186 -189 -238 -35 -54
-40 -58 -77 -58 -66 0 -190 -30 -254 -61 -112 -55 -213 -167 -293 -326 l-31
-63 -58 0 c-32 0 -61 2 -64 5 -7 7 54 273 88 385 35 114 84 216 128 267 45 52
154 107 251 127 73 15 401 22 488 10z m292 -24 c72 -6 149 -13 172 -16 l41 -5
-48 -64 c-27 -36 -75 -108 -107 -161 l-58 -96 -70 6 c-38 3 -141 9 -227 12
-87 4 -158 10 -158 15 0 15 122 171 191 244 82 86 63 81 264 65z m-168 -369
c73 -4 135 -10 138 -12 3 -3 -16 -44 -41 -91 -31 -57 -54 -90 -72 -98 -108
-50 -497 -169 -509 -156 -11 10 109 284 154 353 14 21 20 22 106 17 51 -3 152
-9 224 -13z m-405 -68 c-21 -43 -58 -127 -82 -188 -24 -60 -45 -112 -46 -114
-7 -9 -217 -31 -297 -31 l-89 0 41 76 c116 214 278 329 469 333 l42 1 -38 -77z
m804 48 c-8 -12 -277 -143 -283 -138 -2 3 13 37 34 76 l38 71 108 0 c60 0 106
-4 103 -9z m-386 -237 c0 -3 -24 -47 -54 -98 -136 -231 -281 -384 -478 -504
-89 -54 -169 -95 -175 -88 -6 6 77 259 140 425 l44 115 129 32 c71 18 185 53
254 77 133 48 140 50 140 41z m-990 -184 c0 -25 -145 -218 -156 -207 -2 2 6
52 18 110 l23 107 57 0 c33 0 58 -4 58 -10z"/>
<path d="M6255 6128 c-38 -90 -95 -224 -127 -298 -62 -141 -310 -652 -314
-647 -2 1 10 68 26 147 31 156 73 431 66 437 -2 2 -11 -38 -20 -89 -33 -185
-59 -313 -65 -325 -3 -6 -42 -37 -86 -68 -240 -171 -547 -453 -698 -640 -140
-174 -212 -297 -272 -467 -16 -46 -34 -78 -43 -81 -10 -2 -91 -28 -181 -56
-91 -28 -168 -51 -173 -51 -17 0 118 250 227 420 300 465 841 1027 1450 1504
179 141 196 157 90 85 -110 -74 -338 -253 -486 -380 -583 -499 -1001 -994
-1257 -1486 l-87 -166 -100 -32 c-274 -89 -440 -177 -542 -288 -128 -141 -141
-291 -63 -723 12 -64 18 -120 13 -124 -4 -4 -66 -29 -138 -55 -188 -68 -638
-248 -792 -316 -296 -131 -436 -213 -550 -322 -98 -94 -123 -140 -123 -225 0
-57 21 -146 40 -166 5 -5 0 20 -11 55 -27 83 -21 161 15 223 28 48 140 149
223 203 136 87 411 210 838 375 391 152 506 192 514 180 4 -7 17 -65 30 -130
l23 -119 -30 -59 c-101 -198 -337 -503 -645 -829 -120 -127 -130 -139 -63 -80
220 195 562 599 695 823 28 48 53 79 55 71 3 -8 12 -57 20 -109 67 -413 34
-657 -101 -753 -21 -15 -33 -27 -27 -27 23 0 106 84 130 131 13 27 32 84 40
127 22 103 14 355 -16 550 l-22 143 31 79 c34 86 61 189 61 233 0 23 6 31 32
40 50 18 220 102 268 132 23 14 43 25 44 23 2 -2 9 -100 15 -218 7 -118 17
-249 21 -290 l9 -75 -72 -68 c-39 -37 -114 -100 -164 -139 -51 -39 -93 -73
-93 -75 0 -13 173 112 267 194 l62 54 5 -33 c3 -18 13 -82 21 -143 32 -219 89
-433 141 -537 35 -69 37 -59 3 20 -51 123 -105 370 -130 604 l-13 117 55 58
c211 223 319 465 365 816 l17 132 91 100 c50 55 120 135 155 178 56 68 74 83
139 112 40 19 102 55 137 80 214 153 410 514 554 1022 23 81 64 178 150 355
66 134 153 321 195 415 80 182 248 604 242 610 -1 2 -34 -70 -71 -159z m-469
-938 c-30 -121 -42 -151 -116 -285 -118 -213 -273 -470 -391 -647 -153 -229
-317 -447 -350 -464 -38 -19 -232 -95 -235 -91 -10 9 65 360 80 375 3 3 47 22
96 43 112 46 183 88 269 159 173 145 288 382 296 615 4 98 4 98 -4 25 -34
-304 -173 -541 -403 -683 -82 -51 -238 -121 -238 -107 0 18 48 136 85 210 130
258 414 567 824 899 62 50 115 90 117 89 2 -2 -12 -64 -30 -138z m-98 -357
c-57 -191 -177 -470 -265 -617 -60 -100 -160 -223 -225 -275 -58 -48 -156
-107 -163 -99 -2 2 24 39 57 83 153 204 391 577 538 843 40 72 74 132 75 132
2 0 -6 -30 -17 -67z m-971 -795 c-10 -48 -56 -285 -62 -319 l-5 -35 -153 -53
c-83 -29 -180 -63 -214 -76 -75 -29 -74 -32 -39 100 36 133 89 277 106 286 15
8 348 116 364 118 4 1 6 -9 3 -21z m-432 -135 c-27 -67 -51 -145 -80 -258
l-33 -130 -78 -44 c-193 -109 -291 -276 -311 -528 l-6 -84 -36 -15 c-20 -8
-48 -18 -62 -21 l-25 -5 -29 174 c-24 137 -30 204 -30 323 0 150 0 151 33 217
68 138 216 235 532 349 121 44 135 46 125 22z m531 -260 c-41 -49 -91 -104
-111 -123 l-37 -35 6 60 c13 117 8 110 104 148 48 19 93 35 100 36 7 1 -20
-38 -62 -86z m-170 -20 c-3 -10 -8 -55 -12 -100 l-7 -83 -81 -79 c-93 -92
-210 -190 -298 -251 l-61 -43 5 194 c3 107 9 201 12 211 4 9 33 26 64 37 97
36 367 130 375 130 5 1 6 -7 3 -16z m-481 -180 c-4 -10 -9 -103 -10 -207 l-2
-190 -34 -23 c-46 -31 -191 -106 -257 -132 l-53 -21 6 53 c30 260 106 401 270
499 68 41 91 47 80 21z m450 -125 c-29 -252 -87 -438 -190 -613 -48 -81 -174
-246 -194 -253 -11 -4 -18 80 -32 347 -9 186 -8 226 3 232 42 23 227 170 313
248 55 49 101 90 103 90 1 1 0 -23 -3 -51z m-847 -564 c-9 -59 -44 -173 -57
-187 -9 -9 -46 183 -39 203 4 14 59 38 89 39 14 1 15 -7 7 -55z"/>
<path d="M6488 6275 c6 -11 47 -56 90 -99 53 -52 79 -84 75 -95 -4 -12 -2 -13
4 -3 7 9 41 -20 129 -110 157 -162 486 -529 508 -566 4 -7 -57 30 -136 82
-152 100 -368 229 -374 223 -2 -1 46 -34 107 -71 128 -80 369 -246 451 -310
152 -121 727 -919 882 -1224 28 -54 31 -110 17 -250 l-6 -64 -135 91 c-195
131 -176 101 -183 276 -6 163 -23 243 -77 362 -75 165 -240 332 -415 420 -78
39 -89 34 -15 -7 104 -58 154 -96 236 -182 163 -170 229 -328 241 -582 6 -126
6 -128 -14 -118 -40 22 -184 185 -251 285 -104 156 -229 413 -302 622 -10 28
-31 89 -48 138 -17 48 -47 146 -68 217 -20 72 -39 128 -41 126 -8 -8 57 -257
108 -414 68 -208 117 -330 195 -487 95 -190 180 -313 306 -440 l108 -110 -1
-55 c0 -73 -24 -318 -31 -326 -7 -6 -114 115 -195 222 -154 202 -278 408 -422
694 -204 409 -365 832 -515 1355 -66 230 -73 220 -12 -17 234 -920 630 -1746
1073 -2240 l69 -77 -9 -93 c-12 -135 -2 -439 17 -516 63 -248 193 -338 636
-436 90 -21 166 -38 168 -40 1 -2 -2 -196 -7 -432 -15 -652 3 -970 63 -1159
65 -202 147 -277 297 -274 l54 2 -66 7 c-122 15 -189 68 -237 190 -72 182 -86
324 -84 820 1 374 14 825 24 835 2 3 60 -7 129 -21 124 -25 124 -25 167 -72
138 -150 387 -592 542 -960 24 -56 45 -100 48 -98 6 7 -81 220 -159 391 -114
246 -255 494 -366 638 -30 39 -39 57 -29 57 38 0 335 -83 432 -121 124 -48
243 -126 287 -186 16 -23 36 -64 43 -90 11 -41 13 -43 13 -17 1 16 -11 53 -25
82 -70 140 -280 249 -667 346 l-139 34 -71 70 c-39 39 -99 87 -134 108 l-63
37 0 71 c0 72 -15 238 -26 288 l-6 28 94 -35 c74 -27 397 -134 456 -151 7 -2
17 -16 23 -31 29 -72 73 -206 94 -283 13 -47 24 -75 24 -63 1 28 -52 234 -78
303 -11 30 -20 55 -18 56 1 1 62 -13 135 -32 212 -54 344 -75 497 -79 l140 -4
-105 9 c-175 14 -358 49 -572 111 l-107 31 -60 122 c-133 266 -318 450 -623
621 l-83 47 -106 216 -106 217 -6 101 c-9 169 -71 317 -215 511 -91 121 -328
355 -502 495 -80 63 -165 140 -190 169 -193 230 -478 534 -706 754 -103 99
-182 171 -176 160z m1141 -1179 c137 -120 327 -317 400 -415 130 -175 198
-325 208 -456 l5 -70 -74 120 c-166 268 -394 591 -581 823 -37 45 -64 82 -61
82 4 0 50 -38 103 -84z m742 -1275 c33 -68 57 -126 55 -128 -2 -2 -35 13 -73
34 l-68 39 -2 109 c-3 133 0 131 88 -54z m-217 -23 l88 -53 -6 -70 c-3 -38 -9
-141 -12 -227 -4 -87 -10 -158 -14 -158 -15 0 -170 121 -242 189 -70 65 -78
77 -78 109 0 37 17 250 26 329 l5 42 72 -54 c40 -30 112 -78 161 -107z m219
-123 c77 -41 87 -50 105 -93 56 -130 161 -476 148 -489 -6 -6 -190 69 -274
111 -110 56 -101 31 -91 266 9 194 15 250 23 250 2 0 42 -20 89 -45z m251
-139 c196 -116 339 -241 449 -394 62 -87 152 -250 143 -259 -5 -6 -320 99
-465 155 l-75 29 -32 129 c-27 105 -83 284 -119 377 -4 9 -4 17 0 17 4 0 48
-24 99 -54z m-584 -168 c41 -34 99 -77 128 -96 48 -32 52 -38 52 -74 0 -67 30
-190 63 -258 53 -107 172 -212 335 -294 l52 -26 0 -59 c0 -31 -2 -60 -5 -63
-7 -7 -272 54 -385 88 -110 33 -214 83 -267 129 -54 46 -107 153 -128 257 -16
80 -21 389 -9 481 l7 46 41 -35 c22 -19 75 -63 116 -96z m485 -278 c61 -24
112 -45 114 -46 9 -7 31 -217 31 -297 l0 -87 -52 26 c-139 70 -243 162 -295
261 -35 64 -63 165 -63 226 l0 37 78 -38 c42 -21 127 -58 187 -82z m248 -523
c69 -45 159 -130 131 -124 -11 2 -62 12 -112 23 l-92 18 0 58 c0 34 4 58 10
58 6 0 34 -15 63 -33z"/>
<path d="M6372 6154 l-2 -131 -50 -76 c-80 -121 -223 -376 -325 -577 -348
-692 -544 -1312 -586 -1862 l-12 -156 -74 -62 c-187 -157 -320 -311 -381 -439
-45 -93 -55 -202 -27 -297 24 -84 103 -236 206 -399 l89 -140 -163 -154 c-258
-245 -665 -657 -752 -761 -100 -121 -160 -213 -202 -314 -43 -101 -51 -159
-30 -221 19 -54 79 -140 110 -157 13 -7 5 8 -21 36 -99 107 -106 197 -31 356
55 114 128 214 276 375 150 164 828 815 837 804 35 -42 146 -224 146 -240 0
-56 -34 -250 -71 -399 -46 -186 -140 -477 -223 -684 -30 -77 -54 -141 -52
-143 5 -5 79 168 140 324 107 275 179 522 216 740 11 64 22 118 24 120 7 8
120 -181 186 -312 37 -71 76 -166 88 -211 39 -142 25 -266 -36 -339 l-17 -20
24 20 c51 43 66 91 66 205 -1 88 -5 118 -29 185 -39 115 -101 240 -194 397
l-82 136 -4 109 c-2 61 -12 140 -21 176 l-17 67 77 83 c42 45 96 107 118 137
23 31 46 57 50 58 5 2 67 -115 138 -258 l129 -262 -64 -131 c-36 -73 -79 -156
-97 -186 -18 -30 -28 -51 -21 -47 14 8 96 144 152 251 23 44 43 81 45 83 1 1
28 -41 60 -95 135 -227 289 -433 372 -497 29 -23 23 -14 -24 37 -102 109 -233
303 -351 518 l-41 75 34 97 c100 280 106 521 23 850 l-40 159 51 141 c28 78
62 178 76 222 22 69 35 91 95 160 42 48 86 113 110 161 118 237 147 612 88
1131 -9 77 -9 141 0 264 24 331 35 767 25 999 -9 202 -10 212 -11 94z m-5
-381 c-7 -229 -22 -518 -35 -661 l-7 -77 -28 140 c-28 141 -95 416 -103 424
-8 8 -4 -17 22 -130 14 -62 32 -148 40 -190 l14 -76 -39 -59 c-185 -281 -374
-696 -445 -983 -36 -143 -46 -225 -46 -380 l0 -140 -97 -83 c-54 -46 -122
-103 -150 -127 l-53 -43 0 29 c0 58 21 252 41 378 59 372 227 889 441 1359
114 252 427 846 446 846 3 0 2 -102 -1 -227z m-74 -705 c21 -138 21 -186 2
-353 -50 -426 -123 -829 -207 -1148 l-31 -118 -94 -92 c-51 -51 -97 -93 -102
-95 -11 -4 -46 147 -64 273 l-13 90 84 91 c104 114 144 169 188 263 58 122 77
207 77 361 1 143 -20 260 -64 354 -11 22 -17 32 -13 21 88 -288 78 -518 -32
-736 -36 -72 -125 -188 -197 -258 l-45 -43 -7 73 c-18 197 56 518 195 844 87
205 282 585 300 585 4 0 14 -51 23 -112z m60 -688 c2 -366 -40 -579 -148 -755
-44 -71 -105 -139 -92 -101 49 134 152 675 191 1001 9 72 19 150 23 175 l7 45
8 -70 c5 -38 10 -171 11 -295z m-557 -1041 l27 -116 -49 -45 c-27 -24 -71 -64
-99 -88 -27 -25 -81 -74 -119 -109 -52 -50 -70 -62 -76 -50 -14 25 -31 160
-36 289 l-5 125 51 40 c29 22 98 79 154 127 l101 87 13 -72 c7 -40 24 -124 38
-188z m223 -12 c-16 -58 -90 -262 -98 -270 -4 -4 -18 29 -31 74 l-23 81 79 74
c43 40 80 73 81 74 1 0 -3 -15 -8 -33z m-589 -337 l19 -114 -37 -41 c-155
-169 -188 -368 -107 -632 l24 -78 -41 -42 c-23 -24 -45 -43 -48 -43 -10 0
-176 272 -222 365 -64 127 -82 188 -81 270 1 156 117 328 378 559 l80 70 8
-99 c5 -55 17 -152 27 -215z m456 -18 c-6 -41 -148 -331 -209 -426 l-44 -68
-46 108 c-69 167 -100 273 -85 292 7 9 85 80 173 160 l160 144 28 -89 c17 -55
26 -101 23 -121z m80 -252 c21 -89 28 -150 32 -270 5 -178 -9 -280 -59 -437
-29 -91 -32 -96 -46 -78 -29 38 -236 478 -236 500 0 6 24 48 53 94 29 46 86
154 128 239 l77 155 12 -44 c7 -24 25 -95 39 -159z m-482 35 c10 -33 43 -116
72 -184 l54 -125 -34 -51 c-54 -77 -208 -248 -216 -238 -11 13 -39 110 -51
179 -6 36 -10 107 -7 157 3 78 9 103 36 162 36 77 111 180 122 168 3 -4 14
-35 24 -68z m-124 -707 c15 -43 26 -227 13 -213 -6 6 -34 45 -63 89 l-52 78
38 39 c21 21 41 39 45 39 4 0 12 -15 19 -32z"/>
<path d="M6181 5624 c0 -11 3 -14 6 -6 3 7 2 16 -1 19 -3 4 -6 -2 -5 -13z"/>
<path d="M6430 6259 c0 -3 36 -96 81 -205 128 -313 347 -919 336 -930 -1 -1
-40 54 -86 123 -82 123 -228 323 -259 353 -8 8 13 -25 47 -75 35 -49 91 -133
126 -185 l63 -95 -18 -100 c-36 -197 -53 -412 -53 -660 -1 -356 33 -554 132
-775 l50 -113 -56 -106 c-113 -214 -125 -235 -133 -220 -28 51 -99 301 -134
476 -58 284 -84 550 -93 933 -8 359 10 705 58 1108 11 95 19 178 16 185 -8 26
-66 -410 -89 -673 -17 -206 -18 -912 0 -1075 42 -396 89 -628 184 -907 l39
-116 -62 -124 c-114 -227 -169 -401 -169 -534 0 -216 92 -321 568 -650 2 -1
-29 -73 -69 -160 -272 -601 -431 -1009 -473 -1216 -9 -44 -16 -126 -16 -190 0
-97 3 -120 24 -163 26 -57 66 -94 137 -131 68 -34 75 -30 9 7 -70 38 -105 72
-133 128 -19 40 -22 60 -20 152 4 167 40 305 158 604 91 229 393 914 414 937
4 4 56 -26 117 -66 l110 -74 22 -73 c68 -234 105 -519 122 -934 5 -136 12
-250 16 -254 12 -11 -5 538 -21 696 -17 172 -45 343 -74 453 -11 41 -19 75
-18 77 5 4 254 -186 322 -245 94 -83 170 -174 208 -252 28 -56 32 -75 32 -142
0 -43 3 -70 7 -60 4 9 7 44 7 77 1 168 -166 370 -504 610 -76 54 -96 73 -106
103 -19 60 -75 165 -115 217 l-37 49 17 46 c38 101 96 282 96 300 0 27 12 25
41 -6 30 -33 321 -290 372 -328 37 -28 37 -29 37 -100 0 -67 -9 -169 -26 -296
-4 -30 -4 -53 -1 -50 10 10 37 185 44 288 3 56 8 102 10 102 2 0 47 -33 101
-74 188 -143 395 -267 507 -306 76 -26 80 -20 7 10 -126 52 -295 159 -496 314
l-115 89 -5 76 c-28 365 -112 581 -341 871 l-62 80 -7 142 c-4 79 -11 186 -17
237 -9 90 -8 99 16 161 14 36 32 97 40 135 55 259 -59 665 -316 1122 -58 103
-86 170 -144 344 -103 303 -192 537 -307 804 -96 222 -117 267 -118 254z m378
-1126 c84 -138 84 -137 146 -353 106 -370 193 -771 237 -1085 l22 -160 -53
-122 c-29 -68 -56 -123 -59 -123 -9 0 -120 160 -169 243 l-42 73 30 75 c101
242 116 451 48 654 -43 129 -138 284 -224 365 -30 29 -27 24 15 -30 67 -83
125 -181 162 -270 88 -216 78 -463 -28 -700 l-25 -55 -30 65 c-117 254 -163
593 -139 1028 6 121 18 275 26 343 8 68 15 130 15 137 0 6 2 12 4 12 2 0 31
-44 64 -97z m246 -445 c123 -256 191 -449 222 -633 21 -118 14 -296 -13 -380
l-20 -60 -6 35 c-3 19 -18 107 -32 195 -48 290 -149 720 -230 974 -3 12 -3 21
0 21 4 0 39 -69 79 -152z m-138 -1201 c23 -40 69 -109 103 -155 43 -58 60 -89
56 -102 -3 -11 -48 -105 -99 -211 l-93 -191 -42 67 c-51 81 -151 282 -151 304
0 17 172 361 180 361 3 -1 24 -33 46 -73z m319 -226 c4 -77 5 -141 2 -141 -3
0 -28 29 -57 64 l-51 65 43 99 c51 119 52 117 63 -87z m1 -371 c-5 -142 -30
-386 -43 -399 -6 -7 -179 167 -234 236 l-49 61 34 74 c18 40 63 135 100 211
l66 139 66 -79 65 -78 -5 -165z m-524 162 c26 -53 72 -136 102 -184 l54 -87
-23 -73 c-46 -147 -42 -269 15 -394 33 -72 98 -172 152 -230 l38 -41 -25 -57
c-14 -31 -28 -56 -32 -56 -11 0 -236 162 -316 227 -89 73 -162 154 -195 217
-25 48 -27 59 -27 176 1 118 3 131 38 233 37 107 154 367 166 367 3 0 27 -44
53 -98z m712 -241 c105 -154 171 -307 205 -479 23 -115 37 -262 25 -262 -10 1
-195 163 -338 296 l-89 83 17 108 c10 59 22 183 29 274 l11 166 42 -51 c23
-29 67 -89 98 -135z m-514 -81 c0 -5 61 -73 137 -150 l136 -140 -13 -58 c-15
-70 -54 -189 -82 -254 -24 -56 -26 -56 -93 32 -103 134 -151 262 -142 385 4
76 34 195 48 195 5 0 9 -4 9 -10z m264 -864 c20 -40 36 -76 36 -80 0 -3 -41
21 -91 55 -50 33 -88 66 -86 72 3 7 13 32 23 56 l18 45 32 -38 c18 -21 48 -70
68 -110z"/>
<path d="M7038 5903 c7 -3 16 -2 19 1 4 3 -2 6 -13 5 -11 0 -14 -3 -6 -6z"/>
</g>
</svg>
